<svg width="207" height="191" viewBox="0 0 207 191" fill="none" xmlns="http://www.w3.org/2000/svg">
<mask id="path-1-inside-1_79_38" fill="white">
<path fill-rule="evenodd" clip-rule="evenodd" d="M34.1642 6.58209C36.5877 6.58209 38.5523 4.61749 38.5523 2.19403C38.5523 1.39477 38.3386 0.645425 37.9652 0H48.6468C48.2734 0.645425 48.0597 1.39477 48.0597 2.19403C48.0597 4.61749 50.0243 6.58209 52.4478 6.58209C54.8712 6.58209 56.8358 4.61749 56.8358 2.19403C56.8358 1.39477 56.6222 0.645425 56.2488 0H68.393C68.0197 0.645425 67.806 1.39477 67.806 2.19403C67.806 4.61749 69.7706 6.58209 72.1941 6.58209C74.6175 6.58209 76.5821 4.61749 76.5821 2.19403C76.5821 1.39477 76.3684 0.645425 75.9951 0H86.6766C86.3033 0.645425 86.0896 1.39477 86.0896 2.19403C86.0896 4.61749 88.0542 6.58209 90.4776 6.58209C92.9011 6.58209 94.8657 4.61749 94.8657 2.19403C94.8657 1.39477 94.652 0.645425 94.2786 0H104.96C104.587 0.645425 104.373 1.39477 104.373 2.19403C104.373 4.61749 106.338 6.58209 108.761 6.58209C111.185 6.58209 113.149 4.61749 113.149 2.19403C113.149 1.39477 112.936 0.645425 112.562 0H123.244C122.87 0.645425 122.657 1.39477 122.657 2.19403C122.657 4.61749 124.621 6.58209 127.045 6.58209C129.468 6.58209 131.433 4.61749 131.433 2.19403C131.433 1.39477 131.219 0.645425 130.846 0H135.821C138.244 0 140.209 1.9646 140.209 4.38806V93.6119C140.209 96.0354 138.244 98 135.821 98H25.3881C22.9646 98 21 96.0354 21 93.6119V4.38806C21 1.9646 22.9646 0 25.3881 0H30.3632C29.9898 0.645425 29.7761 1.39477 29.7761 2.19403C29.7761 4.61749 31.7408 6.58209 34.1642 6.58209ZM53.6643 36.5672L37.8209 36.5672L37.8209 52.4105L53.6643 52.4105L53.6643 36.5672ZM37.8209 34.3731C36.6092 34.3731 35.6269 35.3554 35.6269 36.5672V52.4105C35.6269 53.6223 36.6092 54.6046 37.8209 54.6046H53.6643C54.876 54.6046 55.8583 53.6223 55.8583 52.4105V36.5672C55.8583 35.3554 54.876 34.3731 53.6643 34.3731H37.8209ZM90.4487 36.5672L74.6053 36.5672L74.6053 52.4105L90.4487 52.4106L90.4487 36.5672ZM74.6053 34.3732C73.3936 34.3732 72.4113 35.3555 72.4113 36.5672V52.4105C72.4113 53.6223 73.3936 54.6046 74.6053 54.6046H90.4487C91.6604 54.6046 92.6427 53.6223 92.6427 52.4106V36.5672C92.6427 35.3555 91.6604 34.3732 90.4487 34.3732H74.6053ZM126.313 36.5672L110.47 36.5672V52.4105L126.313 52.4106V36.5672ZM110.47 34.3732C109.258 34.3732 108.276 35.3555 108.276 36.5672V52.4105C108.276 53.6223 109.258 54.6046 110.47 54.6046H126.313C127.525 54.6046 128.507 53.6223 128.507 52.4106V36.5672C128.507 35.3555 127.525 34.3732 126.313 34.3732H110.47ZM53.6643 65.0896H37.8209L37.8209 80.9329H53.6643L53.6643 65.0896ZM37.8209 62.8955C36.6092 62.8955 35.6269 63.8778 35.6269 65.0896V80.9329C35.6269 82.1447 36.6092 83.127 37.8209 83.127H53.6643C54.876 83.127 55.8583 82.1447 55.8583 80.9329V65.0896C55.8583 63.8778 54.876 62.8955 53.6643 62.8955H37.8209ZM90.4487 65.0896H74.6053V80.933H90.4487V65.0896ZM74.6053 62.8956C73.3936 62.8956 72.4113 63.8779 72.4113 65.0896V80.933C72.4113 82.1447 73.3936 83.127 74.6053 83.127H90.4487C91.6604 83.127 92.6427 82.1447 92.6427 80.933V65.0896C92.6427 63.8779 91.6604 62.8956 90.4487 62.8956H74.6053ZM126.313 65.0896H110.47L110.47 80.933H126.313L126.313 65.0896ZM110.47 62.8956C109.258 62.8956 108.276 63.8779 108.276 65.0896V80.933C108.276 82.1447 109.258 83.127 110.47 83.127H126.313C127.525 83.127 128.507 82.1447 128.507 80.933V65.0896C128.507 63.8779 127.525 62.8956 126.313 62.8956H110.47Z"/>
</mask>
<path fill-rule="evenodd" clip-rule="evenodd" d="M34.1642 6.58209C36.5877 6.58209 38.5523 4.61749 38.5523 2.19403C38.5523 1.39477 38.3386 0.645425 37.9652 0H48.6468C48.2734 0.645425 48.0597 1.39477 48.0597 2.19403C48.0597 4.61749 50.0243 6.58209 52.4478 6.58209C54.8712 6.58209 56.8358 4.61749 56.8358 2.19403C56.8358 1.39477 56.6222 0.645425 56.2488 0H68.393C68.0197 0.645425 67.806 1.39477 67.806 2.19403C67.806 4.61749 69.7706 6.58209 72.1941 6.58209C74.6175 6.58209 76.5821 4.61749 76.5821 2.19403C76.5821 1.39477 76.3684 0.645425 75.9951 0H86.6766C86.3033 0.645425 86.0896 1.39477 86.0896 2.19403C86.0896 4.61749 88.0542 6.58209 90.4776 6.58209C92.9011 6.58209 94.8657 4.61749 94.8657 2.19403C94.8657 1.39477 94.652 0.645425 94.2786 0H104.96C104.587 0.645425 104.373 1.39477 104.373 2.19403C104.373 4.61749 106.338 6.58209 108.761 6.58209C111.185 6.58209 113.149 4.61749 113.149 2.19403C113.149 1.39477 112.936 0.645425 112.562 0H123.244C122.87 0.645425 122.657 1.39477 122.657 2.19403C122.657 4.61749 124.621 6.58209 127.045 6.58209C129.468 6.58209 131.433 4.61749 131.433 2.19403C131.433 1.39477 131.219 0.645425 130.846 0H135.821C138.244 0 140.209 1.9646 140.209 4.38806V93.6119C140.209 96.0354 138.244 98 135.821 98H25.3881C22.9646 98 21 96.0354 21 93.6119V4.38806C21 1.9646 22.9646 0 25.3881 0H30.3632C29.9898 0.645425 29.7761 1.39477 29.7761 2.19403C29.7761 4.61749 31.7408 6.58209 34.1642 6.58209ZM53.6643 36.5672L37.8209 36.5672L37.8209 52.4105L53.6643 52.4105L53.6643 36.5672ZM37.8209 34.3731C36.6092 34.3731 35.6269 35.3554 35.6269 36.5672V52.4105C35.6269 53.6223 36.6092 54.6046 37.8209 54.6046H53.6643C54.876 54.6046 55.8583 53.6223 55.8583 52.4105V36.5672C55.8583 35.3554 54.876 34.3731 53.6643 34.3731H37.8209ZM90.4487 36.5672L74.6053 36.5672L74.6053 52.4105L90.4487 52.4106L90.4487 36.5672ZM74.6053 34.3732C73.3936 34.3732 72.4113 35.3555 72.4113 36.5672V52.4105C72.4113 53.6223 73.3936 54.6046 74.6053 54.6046H90.4487C91.6604 54.6046 92.6427 53.6223 92.6427 52.4106V36.5672C92.6427 35.3555 91.6604 34.3732 90.4487 34.3732H74.6053ZM126.313 36.5672L110.47 36.5672V52.4105L126.313 52.4106V36.5672ZM110.47 34.3732C109.258 34.3732 108.276 35.3555 108.276 36.5672V52.4105C108.276 53.6223 109.258 54.6046 110.47 54.6046H126.313C127.525 54.6046 128.507 53.6223 128.507 52.4106V36.5672C128.507 35.3555 127.525 34.3732 126.313 34.3732H110.47ZM53.6643 65.0896H37.8209L37.8209 80.9329H53.6643L53.6643 65.0896ZM37.8209 62.8955C36.6092 62.8955 35.6269 63.8778 35.6269 65.0896V80.9329C35.6269 82.1447 36.6092 83.127 37.8209 83.127H53.6643C54.876 83.127 55.8583 82.1447 55.8583 80.9329V65.0896C55.8583 63.8778 54.876 62.8955 53.6643 62.8955H37.8209ZM90.4487 65.0896H74.6053V80.933H90.4487V65.0896ZM74.6053 62.8956C73.3936 62.8956 72.4113 63.8779 72.4113 65.0896V80.933C72.4113 82.1447 73.3936 83.127 74.6053 83.127H90.4487C91.6604 83.127 92.6427 82.1447 92.6427 80.933V65.0896C92.6427 63.8779 91.6604 62.8956 90.4487 62.8956H74.6053ZM126.313 65.0896H110.47L110.47 80.933H126.313L126.313 65.0896ZM110.47 62.8956C109.258 62.8956 108.276 63.8779 108.276 65.0896V80.933C108.276 82.1447 109.258 83.127 110.47 83.127H126.313C127.525 83.127 128.507 82.1447 128.507 80.933V65.0896C128.507 63.8779 127.525 62.8956 126.313 62.8956H110.47Z" fill="url(#paint0_linear_79_38)"/>
<path d="M37.9652 0V-2.19403H34.1614L36.0661 1.09861L37.9652 0ZM48.6468 0L50.5459 1.09861L52.4506 -2.19403H48.6468V0ZM56.2488 0V-2.19403H52.4449L54.3496 1.09861L56.2488 0ZM68.393 0L70.2922 1.09861L72.1969 -2.19403H68.393V0ZM75.9951 0V-2.19403H72.1912L74.0959 1.09861L75.9951 0ZM86.6766 0L88.5758 1.09861L90.4805 -2.19403H86.6766V0ZM94.2786 0V-2.19403H90.4748L92.3795 1.09861L94.2786 0ZM104.96 0L106.859 1.09861L108.764 -2.19403H104.96V0ZM112.562 0V-2.19403H108.758L110.663 1.09861L112.562 0ZM123.244 0L125.143 1.09861L127.048 -2.19403H123.244V0ZM130.846 0V-2.19403H127.042L128.947 1.09861L130.846 0ZM30.3632 0L32.2624 1.09861L34.167 -2.19403H30.3632V0ZM37.8209 36.5672L37.8209 34.3731L35.6269 34.3731L35.6269 36.5672L37.8209 36.5672ZM53.6643 36.5672L55.8583 36.5672L55.8583 34.3731L53.6643 34.3731L53.6643 36.5672ZM37.8209 52.4105L35.6269 52.4105L35.6269 54.6046L37.8209 54.6046L37.8209 52.4105ZM53.6643 52.4105L53.6643 54.6046L55.8583 54.6046L55.8583 52.4105L53.6643 52.4105ZM74.6053 36.5672L74.6053 34.3732L72.4113 34.3732L72.4113 36.5672L74.6053 36.5672ZM90.4487 36.5672L92.6427 36.5672L92.6427 34.3732L90.4487 34.3732L90.4487 36.5672ZM74.6053 52.4105L72.4113 52.4105L72.4113 54.6046L74.6053 54.6046L74.6053 52.4105ZM90.4487 52.4106L90.4487 54.6046L92.6427 54.6046L92.6427 52.4106L90.4487 52.4106ZM110.47 36.5672L110.47 34.3732L108.276 34.3732V36.5672H110.47ZM126.313 36.5672H128.507V34.3732L126.313 34.3732L126.313 36.5672ZM110.47 52.4105H108.276V54.6046L110.47 54.6046L110.47 52.4105ZM126.313 52.4106L126.313 54.6046L128.507 54.6046V52.4106H126.313ZM37.8209 65.0896V62.8955H35.6269L35.6269 65.0896L37.8209 65.0896ZM53.6643 65.0896L55.8583 65.0896L55.8583 62.8955H53.6643V65.0896ZM37.8209 80.9329L35.6269 80.9329L35.6269 83.127H37.8209V80.9329ZM53.6643 80.9329V83.127H55.8583L55.8583 80.9329L53.6643 80.9329ZM74.6053 65.0896V62.8956H72.4113V65.0896H74.6053ZM90.4487 65.0896H92.6427V62.8956H90.4487V65.0896ZM74.6053 80.933H72.4113V83.127H74.6053V80.933ZM90.4487 80.933V83.127H92.6427V80.933H90.4487ZM110.47 65.0896V62.8956H108.276L108.276 65.0896L110.47 65.0896ZM126.313 65.0896L128.507 65.0896L128.507 62.8956H126.313V65.0896ZM110.47 80.933L108.276 80.933L108.276 83.127H110.47V80.933ZM126.313 80.933V83.127H128.507L128.507 80.933L126.313 80.933ZM36.3582 2.19403C36.3582 3.40576 35.3759 4.38806 34.1642 4.38806V8.77612C37.7994 8.77612 40.7463 5.82922 40.7463 2.19403H36.3582ZM36.0661 1.09861C36.2514 1.41908 36.3582 1.79076 36.3582 2.19403H40.7463C40.7463 0.998789 40.4257 -0.128234 39.8644 -1.09861L36.0661 1.09861ZM48.6468 -2.19403H37.9652V2.19403H48.6468V-2.19403ZM46.7476 -1.09861C46.1863 -0.128234 45.8657 0.99879 45.8657 2.19403H50.2538C50.2538 1.79076 50.3606 1.41908 50.5459 1.09861L46.7476 -1.09861ZM45.8657 2.19403C45.8657 5.82922 48.8126 8.77612 52.4478 8.77612V4.38806C51.2361 4.38806 50.2538 3.40576 50.2538 2.19403H45.8657ZM52.4478 8.77612C56.083 8.77612 59.0299 5.82922 59.0299 2.19403H54.6418C54.6418 3.40576 53.6595 4.38806 52.4478 4.38806V8.77612ZM59.0299 2.19403C59.0299 0.998794 58.7093 -0.128232 58.148 -1.09861L54.3496 1.09861C54.535 1.41908 54.6418 1.79075 54.6418 2.19403H59.0299ZM68.393 -2.19403H56.2488V2.19403H68.393V-2.19403ZM66.4939 -1.09861C65.9325 -0.128232 65.612 0.998794 65.612 2.19403H70C70 1.79075 70.1068 1.41908 70.2922 1.09861L66.4939 -1.09861ZM65.612 2.19403C65.612 5.82922 68.5589 8.77612 72.1941 8.77612V4.38806C70.9823 4.38806 70 3.40576 70 2.19403H65.612ZM72.1941 8.77612C75.8292 8.77612 78.7761 5.82922 78.7761 2.19403H74.3881C74.3881 3.40576 73.4058 4.38806 72.1941 4.38806V8.77612ZM78.7761 2.19403C78.7761 0.998794 78.4556 -0.128232 77.8942 -1.09861L74.0959 1.09861C74.2813 1.41908 74.3881 1.79075 74.3881 2.19403H78.7761ZM86.6766 -2.19403H75.9951V2.19403H86.6766V-2.19403ZM88.2836 2.19403C88.2836 1.79075 88.3904 1.41908 88.5758 1.09861L84.7775 -1.09861C84.2161 -0.128232 83.8955 0.998794 83.8955 2.19403H88.2836ZM90.4776 4.38806C89.2659 4.38806 88.2836 3.40576 88.2836 2.19403H83.8955C83.8955 5.82922 86.8424 8.77612 90.4776 8.77612V4.38806ZM92.6717 2.19403C92.6717 3.40576 91.6894 4.38806 90.4776 4.38806V8.77612C94.1128 8.77612 97.0597 5.82922 97.0597 2.19403H92.6717ZM92.3795 1.09861C92.5649 1.41908 92.6717 1.79075 92.6717 2.19403H97.0597C97.0597 0.998794 96.7391 -0.128232 96.1778 -1.09861L92.3795 1.09861ZM104.96 -2.19403H94.2786V2.19403H104.96V-2.19403ZM103.061 -1.09861C102.5 -0.128232 102.179 0.998794 102.179 2.19403H106.567C106.567 1.79075 106.674 1.41908 106.859 1.09861L103.061 -1.09861ZM102.179 2.19403C102.179 5.82922 105.126 8.77612 108.761 8.77612V4.38806C107.549 4.38806 106.567 3.40576 106.567 2.19403H102.179ZM108.761 8.77612C112.396 8.77612 115.343 5.82922 115.343 2.19403H110.955C110.955 3.40576 109.973 4.38806 108.761 4.38806V8.77612ZM115.343 2.19403C115.343 0.998794 115.023 -0.128232 114.461 -1.09861L110.663 1.09861C110.848 1.41908 110.955 1.79075 110.955 2.19403H115.343ZM123.244 -2.19403H112.562V2.19403H123.244V-2.19403ZM121.345 -1.09861C120.783 -0.128232 120.463 0.998794 120.463 2.19403H124.851C124.851 1.79075 124.958 1.41908 125.143 1.09861L121.345 -1.09861ZM120.463 2.19403C120.463 5.82922 123.41 8.77612 127.045 8.77612V4.38806C125.833 4.38806 124.851 3.40576 124.851 2.19403H120.463ZM127.045 8.77612C130.68 8.77612 133.627 5.82922 133.627 2.19403H129.239C129.239 3.40576 128.257 4.38806 127.045 4.38806V8.77612ZM133.627 2.19403C133.627 0.998794 133.306 -0.128232 132.745 -1.09861L128.947 1.09861C129.132 1.41908 129.239 1.79075 129.239 2.19403H133.627ZM135.821 -2.19403H130.846V2.19403H135.821V-2.19403ZM142.403 4.38806C142.403 0.752872 139.456 -2.19403 135.821 -2.19403V2.19403C137.033 2.19403 138.015 3.17633 138.015 4.38806H142.403ZM142.403 93.6119V4.38806H138.015V93.6119H142.403ZM135.821 100.194C139.456 100.194 142.403 97.2471 142.403 93.6119H138.015C138.015 94.8237 137.033 95.806 135.821 95.806V100.194ZM25.3881 100.194H135.821V95.806H25.3881V100.194ZM18.806 93.6119C18.806 97.2471 21.7529 100.194 25.3881 100.194V95.806C24.1763 95.806 23.194 94.8237 23.194 93.6119H18.806ZM18.806 4.38806V93.6119H23.194V4.38806H18.806ZM25.3881 -2.19403C21.7529 -2.19403 18.806 0.752876 18.806 4.38806H23.194C23.194 3.17633 24.1763 2.19403 25.3881 2.19403V-2.19403ZM30.3632 -2.19403H25.3881V2.19403H30.3632V-2.19403ZM31.9702 2.19403C31.9702 1.79076 32.077 1.41909 32.2624 1.09861L28.464 -1.09861C27.9027 -0.128235 27.5821 0.998789 27.5821 2.19403H31.9702ZM34.1642 4.38806C32.9525 4.38806 31.9702 3.40576 31.9702 2.19403H27.5821C27.5821 5.82922 30.529 8.77612 34.1642 8.77612V4.38806ZM37.8209 38.7612L53.6643 38.7612L53.6643 34.3731L37.8209 34.3731L37.8209 38.7612ZM40.015 52.4105L40.015 36.5672L35.6269 36.5672L35.6269 52.4105L40.015 52.4105ZM53.6643 50.2165L37.8209 50.2165L37.8209 54.6046L53.6643 54.6046L53.6643 50.2165ZM51.4703 36.5672L51.4703 52.4105L55.8583 52.4105L55.8583 36.5672L51.4703 36.5672ZM37.8209 36.5672V36.5672V32.1791C35.3975 32.1791 33.4329 34.1437 33.4329 36.5672H37.8209ZM37.8209 52.4105V36.5672H33.4329V52.4105H37.8209ZM37.8209 52.4105L37.8209 52.4105H33.4329C33.4329 54.834 35.3975 56.7986 37.8209 56.7986V52.4105ZM53.6643 52.4105H37.8209V56.7986H53.6643V52.4105ZM53.6643 52.4105L53.6643 52.4105V56.7986C56.0877 56.7986 58.0523 54.834 58.0523 52.4105H53.6643ZM53.6643 36.5672V52.4105H58.0523V36.5672H53.6643ZM53.6643 36.5672L53.6643 36.5672H58.0523C58.0523 34.1437 56.0877 32.1791 53.6643 32.1791V36.5672ZM37.8209 36.5672H53.6643V32.1791H37.8209V36.5672ZM74.6053 38.7612L90.4487 38.7612L90.4487 34.3732L74.6053 34.3732L74.6053 38.7612ZM76.7993 52.4105L76.7994 36.5672L72.4113 36.5672L72.4113 52.4105L76.7993 52.4105ZM90.4487 50.2165L74.6053 50.2165L74.6053 54.6046L90.4487 54.6046L90.4487 50.2165ZM88.2547 36.5672L88.2546 52.4106L92.6427 52.4106L92.6427 36.5672L88.2547 36.5672ZM74.6053 36.5672L74.6053 36.5672V32.1791C72.1819 32.1791 70.2173 34.1437 70.2173 36.5672H74.6053ZM74.6053 52.4105V36.5672H70.2173V52.4105H74.6053ZM74.6053 52.4106L74.6053 52.4105H70.2173C70.2173 54.834 72.1819 56.7986 74.6053 56.7986V52.4106ZM90.4487 52.4106H74.6053V56.7986H90.4487V52.4106ZM90.4487 52.4106L90.4487 52.4106V56.7986C92.8721 56.7986 94.8367 54.834 94.8367 52.4106H90.4487ZM90.4487 36.5672V52.4106H94.8367V36.5672H90.4487ZM90.4487 36.5672L90.4487 36.5672H94.8367C94.8367 34.1437 92.8722 32.1791 90.4487 32.1791V36.5672ZM74.6053 36.5672H90.4487V32.1791H74.6053V36.5672ZM110.47 38.7612L126.313 38.7612L126.313 34.3732L110.47 34.3732L110.47 38.7612ZM112.664 52.4105V36.5672H108.276V52.4105H112.664ZM126.313 50.2165L110.47 50.2165L110.47 54.6046L126.313 54.6046L126.313 50.2165ZM124.119 36.5672V52.4106H128.507V36.5672H124.119ZM110.47 36.5672L110.47 36.5672V32.1791C108.047 32.1791 106.082 34.1437 106.082 36.5672H110.47ZM110.47 52.4105V36.5672H106.082V52.4105H110.47ZM110.47 52.4106L110.47 52.4105H106.082C106.082 54.834 108.047 56.7986 110.47 56.7986V52.4106ZM126.313 52.4106H110.47V56.7986H126.313V52.4106ZM126.313 52.4106L126.313 52.4106V56.7986C128.737 56.7986 130.702 54.834 130.702 52.4106H126.313ZM126.313 36.5672V52.4106H130.702V36.5672H126.313ZM126.313 36.5672L126.313 36.5672H130.702C130.702 34.1437 128.737 32.1791 126.313 32.1791V36.5672ZM110.47 36.5672H126.313V32.1791H110.47V36.5672ZM37.8209 67.2836H53.6643V62.8955H37.8209V67.2836ZM40.015 80.9329L40.015 65.0896L35.6269 65.0896L35.6269 80.9329L40.015 80.9329ZM53.6643 78.7389H37.8209V83.127H53.6643V78.7389ZM51.4703 65.0896L51.4703 80.9329L55.8583 80.9329L55.8583 65.0896L51.4703 65.0896ZM37.8209 65.0896L37.8209 65.0896V60.7015C35.3975 60.7015 33.4329 62.6661 33.4329 65.0896H37.8209ZM37.8209 80.9329V65.0896H33.4329V80.9329H37.8209ZM37.8209 80.9329L37.8209 80.9329H33.4329C33.4329 83.3564 35.3975 85.321 37.8209 85.321V80.9329ZM53.6643 80.9329H37.8209V85.321H53.6643V80.9329ZM53.6643 80.9329L53.6643 80.9329V85.321C56.0877 85.321 58.0523 83.3564 58.0523 80.9329H53.6643ZM53.6643 65.0896V80.9329H58.0523V65.0896H53.6643ZM53.6643 65.0896L53.6643 65.0896H58.0523C58.0523 62.6661 56.0878 60.7015 53.6643 60.7015V65.0896ZM37.8209 65.0896H53.6643V60.7015H37.8209V65.0896ZM74.6053 67.2836H90.4487V62.8956H74.6053V67.2836ZM76.7994 80.933V65.0896H72.4113V80.933H76.7994ZM90.4487 78.7389H74.6053V83.127H90.4487V78.7389ZM88.2547 65.0896V80.933H92.6427V65.0896H88.2547ZM74.6053 65.0896L74.6053 65.0896V60.7015C72.1819 60.7015 70.2173 62.6661 70.2173 65.0896H74.6053ZM74.6053 80.933V65.0896H70.2173V80.933H74.6053ZM74.6053 80.933L74.6053 80.933H70.2173C70.2173 83.3564 72.1819 85.321 74.6053 85.321V80.933ZM90.4487 80.933H74.6053V85.321H90.4487V80.933ZM90.4487 80.933L90.4487 80.933V85.321C92.8721 85.321 94.8367 83.3564 94.8367 80.933H90.4487ZM90.4487 65.0896V80.933H94.8367V65.0896H90.4487ZM90.4487 65.0896L90.4487 65.0896H94.8367C94.8367 62.6661 92.8721 60.7015 90.4487 60.7015V65.0896ZM74.6053 65.0896H90.4487V60.7015H74.6053V65.0896ZM110.47 67.2836H126.313V62.8956H110.47V67.2836ZM112.664 80.933L112.664 65.0896L108.276 65.0896L108.276 80.933L112.664 80.933ZM126.313 78.7389H110.47V83.127H126.313V78.7389ZM124.119 65.0896L124.119 80.933L128.507 80.933L128.507 65.0896L124.119 65.0896ZM110.47 65.0896L110.47 65.0896V60.7015C108.047 60.7015 106.082 62.6661 106.082 65.0896H110.47ZM110.47 80.933V65.0896H106.082V80.933H110.47ZM110.47 80.933L110.47 80.933H106.082C106.082 83.3564 108.047 85.321 110.47 85.321V80.933ZM126.313 80.933H110.47V85.321H126.313V80.933ZM126.313 80.933L126.313 80.933V85.321C128.737 85.321 130.702 83.3564 130.702 80.933H126.313ZM126.313 65.0896V80.933H130.702V65.0896H126.313ZM126.313 65.0896L126.313 65.0896H130.702C130.702 62.6661 128.737 60.7015 126.313 60.7015V65.0896ZM110.47 65.0896H126.313V60.7015H110.47V65.0896Z" fill="#EFE9E9" fill-opacity="0.59" mask="url(#path-1-inside-1_79_38)"/>
<g filter="url(#filter0_b_79_38)">
<circle cx="45.6638" cy="70.3098" r="21.3098" fill="url(#paint1_linear_79_38)"/>
<circle cx="45.6638" cy="70.3098" r="18.2989" stroke="#E9C1C1" stroke-opacity="0.65" stroke-width="6.02162"/>
</g>
<circle cx="46.0443" cy="144.513" r="46.0443" fill="url(#paint2_linear_79_38)" fill-opacity="0.68"/>
<circle cx="46.0443" cy="144.513" r="41.7431" stroke="white" stroke-opacity="0.46" stroke-width="8.60231"/>
<path d="M148 22L173 36.4338V7.56624L148 22ZM204 24.5C205.381 24.5 206.5 23.3807 206.5 22C206.5 20.6193 205.381 19.5 204 19.5V24.5ZM170.5 24.5H204V19.5H170.5V24.5Z" fill="#E9973C" fill-opacity="0.54"/>
<path d="M148 22L173 36.4338V7.56624L148 22ZM204 24.5C205.381 24.5 206.5 23.3807 206.5 22C206.5 20.6193 205.381 19.5 204 19.5V24.5ZM170.5 24.5H204V19.5H170.5V24.5Z" fill="black" fill-opacity="0.1"/>
<path d="M148 57L173 71.4338V42.5662L148 57ZM204 59.5C205.381 59.5 206.5 58.3807 206.5 57C206.5 55.6193 205.381 54.5 204 54.5V59.5ZM170.5 59.5H204V54.5H170.5V59.5Z" fill="#F3B670" fill-opacity="0.7"/>
<path d="M148 57L173 71.4338V42.5662L148 57ZM204 59.5C205.381 59.5 206.5 58.3807 206.5 57C206.5 55.6193 205.381 54.5 204 54.5V59.5ZM170.5 59.5H204V54.5H170.5V59.5Z" fill="black" fill-opacity="0.1"/>
<defs>
<filter id="filter0_b_79_38" x="20.9131" y="45.5591" width="49.5014" height="49.5014" filterUnits="userSpaceOnUse" color-interpolation-filters="sRGB">
<feFlood flood-opacity="0" result="BackgroundImageFix"/>
<feGaussianBlur in="BackgroundImageFix" stdDeviation="1.72046"/>
<feComposite in2="SourceAlpha" operator="in" result="effect1_backgroundBlur_79_38"/>
<feBlend mode="normal" in="SourceGraphic" in2="effect1_backgroundBlur_79_38" result="shape"/>
</filter>
<linearGradient id="paint0_linear_79_38" x1="80.6045" y1="-9.27945e-07" x2="106.201" y2="145.172" gradientUnits="userSpaceOnUse">
<stop stop-color="#F5B468"/>
<stop offset="1" stop-color="#D8761B" stop-opacity="0"/>
</linearGradient>
<linearGradient id="paint1_linear_79_38" x1="45.6638" y1="49" x2="42.6195" y2="113.31" gradientUnits="userSpaceOnUse">
<stop stop-color="#EF0F0F"/>
<stop offset="1" stop-color="#EC6300" stop-opacity="0"/>
</linearGradient>
<linearGradient id="paint2_linear_79_38" x1="49.8496" y1="111.407" x2="45.6638" y2="189.036" gradientUnits="userSpaceOnUse">
<stop stop-color="#D01E00"/>
<stop offset="1" stop-color="#B01D04" stop-opacity="0.31"/>
</linearGradient>
</defs>
</svg>
