<svg width="114" height="89" viewBox="0 0 114 89" fill="none" xmlns="http://www.w3.org/2000/svg">
<rect width="92.1889" height="79.7231" rx="7.82736" transform="matrix(-1 0 0 1 104.655 0)" fill="#F7BA42" fill-opacity="0.14"/>
<rect width="92.1889" height="79.7231" rx="7.82736" transform="matrix(-1 0 0 1 92.1889 9.27686)" fill="#F74242" fill-opacity="0.14"/>
<path d="M24.2072 84.0717L24.2072 63.1987" stroke="url(#paint0_linear_51_270)" stroke-opacity="0.65" stroke-width="6.66775" stroke-linecap="round"/>
<path d="M40.4417 84.0717L40.4417 52.4723" stroke="url(#paint1_linear_51_270)" stroke-opacity="0.65" stroke-width="6.66775" stroke-linecap="round"/>
<path d="M56.3864 84.0717L56.3864 68.4169" stroke="url(#paint2_linear_51_270)" stroke-opacity="0.65" stroke-width="6.66775" stroke-linecap="round"/>
<path d="M72.331 84.0717L72.331 58.5603" stroke="url(#paint3_linear_51_270)" stroke-opacity="0.65" stroke-width="6.66775" stroke-linecap="round"/>
<path d="M87.9857 84.0717L88.2756 49.5733" stroke="url(#paint4_linear_51_270)" stroke-opacity="0.65" stroke-width="6.66775" stroke-linecap="round"/>
<path fill-rule="evenodd" clip-rule="evenodd" d="M113.54 22.6123L81.7514 23.5014L88.6404 34.6984L83.2824 37.995C83.1015 38.0604 82.9247 38.146 82.755 38.2522L57.3413 54.1707L40.3984 37.2278C40.2396 37.0623 40.063 36.9198 39.8735 36.8014C39.1674 36.3588 38.3042 36.267 37.533 36.5262C37.3136 36.5999 37.1018 36.702 36.903 36.8324L10.5694 53.3271C9.28033 54.1346 8.8899 55.8341 9.69732 57.1231C10.5047 58.4121 12.2042 58.8026 13.4933 57.9952L38.0158 42.6349L55.0188 59.6379C56.0898 60.7089 57.8235 60.7134 58.9001 59.6513C59.0359 59.5942 59.1689 59.5254 59.2978 59.4447L82.1477 45.1321C82.2578 45.083 82.3658 45.0261 82.4713 44.9612L91.5268 39.3898L98.4158 50.5868L113.54 22.6123Z" fill="#FD451D" fill-opacity="0.52"/>
<rect width="92.1889" height="79.7231" rx="7.82736" transform="matrix(-1 0 0 1 104.655 0)" fill="#F7BA42" fill-opacity="0.14"/>
<rect width="92.1889" height="79.7231" rx="7.82736" transform="matrix(-1 0 0 1 92.1889 9.27686)" fill="#F74242" fill-opacity="0.14"/>
<path d="M24.2072 84.0717L24.2072 63.1987" stroke="url(#paint5_linear_51_270)" stroke-opacity="0.65" stroke-width="6.66775" stroke-linecap="round"/>
<path d="M40.4417 84.0717L40.4417 52.4723" stroke="url(#paint6_linear_51_270)" stroke-opacity="0.65" stroke-width="6.66775" stroke-linecap="round"/>
<path d="M56.3864 84.0717L56.3864 68.4169" stroke="url(#paint7_linear_51_270)" stroke-opacity="0.65" stroke-width="6.66775" stroke-linecap="round"/>
<path d="M72.331 84.0717L72.331 58.5603" stroke="url(#paint8_linear_51_270)" stroke-opacity="0.65" stroke-width="6.66775" stroke-linecap="round"/>
<path d="M87.9857 84.0717L88.2756 49.5733" stroke="url(#paint9_linear_51_270)" stroke-opacity="0.65" stroke-width="6.66775" stroke-linecap="round"/>
<path fill-rule="evenodd" clip-rule="evenodd" d="M113.54 22.6123L81.7514 23.5014L88.6404 34.6984L83.2824 37.995C83.1015 38.0604 82.9247 38.146 82.755 38.2522L57.3413 54.1707L40.3984 37.2278C40.2396 37.0623 40.063 36.9198 39.8735 36.8014C39.1674 36.3588 38.3042 36.267 37.533 36.5262C37.3136 36.5999 37.1018 36.702 36.903 36.8324L10.5694 53.3271C9.28033 54.1346 8.8899 55.8341 9.69732 57.1231C10.5047 58.4121 12.2042 58.8026 13.4933 57.9952L38.0158 42.6349L55.0188 59.6379C56.0898 60.7089 57.8235 60.7134 58.9001 59.6513C59.0359 59.5942 59.1689 59.5254 59.2978 59.4447L82.1477 45.1321C82.2578 45.083 82.3658 45.0261 82.4713 44.9612L91.5268 39.3898L98.4158 50.5868L113.54 22.6123Z" fill="#FD451D" fill-opacity="0.52"/>
<rect width="92.1889" height="79.7231" rx="7.82736" transform="matrix(-1 0 0 1 104.655 0)" fill="#F7BA42" fill-opacity="0.14"/>
<rect width="92.1889" height="79.7231" rx="7.82736" transform="matrix(-1 0 0 1 92.1889 9.27686)" fill="#F74242" fill-opacity="0.14"/>
<path d="M24.2072 84.0717L24.2072 63.1987" stroke="url(#paint10_linear_51_270)" stroke-opacity="0.65" stroke-width="6.66775" stroke-linecap="round"/>
<path d="M40.4417 84.0717L40.4417 52.4723" stroke="url(#paint11_linear_51_270)" stroke-opacity="0.65" stroke-width="6.66775" stroke-linecap="round"/>
<path d="M56.3864 84.0717L56.3864 68.4169" stroke="url(#paint12_linear_51_270)" stroke-opacity="0.65" stroke-width="6.66775" stroke-linecap="round"/>
<path d="M72.331 84.0717L72.331 58.5603" stroke="url(#paint13_linear_51_270)" stroke-opacity="0.65" stroke-width="6.66775" stroke-linecap="round"/>
<path d="M87.9857 84.0717L88.2756 49.5733" stroke="url(#paint14_linear_51_270)" stroke-opacity="0.65" stroke-width="6.66775" stroke-linecap="round"/>
<path fill-rule="evenodd" clip-rule="evenodd" d="M113.54 22.6123L81.7514 23.5014L88.6404 34.6984L83.2824 37.995C83.1015 38.0604 82.9247 38.146 82.755 38.2522L57.3413 54.1707L40.3984 37.2278C40.2396 37.0623 40.063 36.9198 39.8735 36.8014C39.1674 36.3588 38.3042 36.267 37.533 36.5262C37.3136 36.5999 37.1018 36.702 36.903 36.8324L10.5694 53.3271C9.28033 54.1346 8.8899 55.8341 9.69732 57.1231C10.5047 58.4121 12.2042 58.8026 13.4933 57.9952L38.0158 42.6349L55.0188 59.6379C56.0898 60.7089 57.8235 60.7134 58.9001 59.6513C59.0359 59.5942 59.1689 59.5254 59.2978 59.4447L82.1477 45.1321C82.2578 45.083 82.3658 45.0261 82.4713 44.9612L91.5268 39.3898L98.4158 50.5868L113.54 22.6123Z" fill="#FD451D" fill-opacity="0.52"/>
<defs>
<linearGradient id="paint0_linear_51_270" x1="24.2072" y1="73.6352" x2="25.2072" y2="73.6352" gradientUnits="userSpaceOnUse">
<stop stop-color="#F48218"/>
<stop offset="1" stop-color="#DD841B" stop-opacity="0.88"/>
</linearGradient>
<linearGradient id="paint1_linear_51_270" x1="40.4417" y1="68.272" x2="41.4417" y2="68.272" gradientUnits="userSpaceOnUse">
<stop stop-color="#F48218"/>
<stop offset="1" stop-color="#DD841B" stop-opacity="0.88"/>
</linearGradient>
<linearGradient id="paint2_linear_51_270" x1="56.3864" y1="76.2443" x2="57.3864" y2="76.2443" gradientUnits="userSpaceOnUse">
<stop stop-color="#F48218"/>
<stop offset="1" stop-color="#DD841B" stop-opacity="0.88"/>
</linearGradient>
<linearGradient id="paint3_linear_51_270" x1="72.331" y1="71.316" x2="73.331" y2="71.316" gradientUnits="userSpaceOnUse">
<stop stop-color="#F48218"/>
<stop offset="1" stop-color="#DD841B" stop-opacity="0.88"/>
</linearGradient>
<linearGradient id="paint4_linear_51_270" x1="88.1306" y1="66.8225" x2="89.1306" y2="66.8309" gradientUnits="userSpaceOnUse">
<stop stop-color="#F48218"/>
<stop offset="1" stop-color="#DD841B" stop-opacity="0.88"/>
</linearGradient>
<linearGradient id="paint5_linear_51_270" x1="24.2072" y1="73.6352" x2="25.2072" y2="73.6352" gradientUnits="userSpaceOnUse">
<stop stop-color="#F48218"/>
<stop offset="1" stop-color="#DD841B" stop-opacity="0.88"/>
</linearGradient>
<linearGradient id="paint6_linear_51_270" x1="40.4417" y1="68.272" x2="41.4417" y2="68.272" gradientUnits="userSpaceOnUse">
<stop stop-color="#F48218"/>
<stop offset="1" stop-color="#DD841B" stop-opacity="0.88"/>
</linearGradient>
<linearGradient id="paint7_linear_51_270" x1="56.3864" y1="76.2443" x2="57.3864" y2="76.2443" gradientUnits="userSpaceOnUse">
<stop stop-color="#F48218"/>
<stop offset="1" stop-color="#DD841B" stop-opacity="0.88"/>
</linearGradient>
<linearGradient id="paint8_linear_51_270" x1="72.331" y1="71.316" x2="73.331" y2="71.316" gradientUnits="userSpaceOnUse">
<stop stop-color="#F48218"/>
<stop offset="1" stop-color="#DD841B" stop-opacity="0.88"/>
</linearGradient>
<linearGradient id="paint9_linear_51_270" x1="88.1306" y1="66.8225" x2="89.1306" y2="66.8309" gradientUnits="userSpaceOnUse">
<stop stop-color="#F48218"/>
<stop offset="1" stop-color="#DD841B" stop-opacity="0.88"/>
</linearGradient>
<linearGradient id="paint10_linear_51_270" x1="24.2072" y1="73.6352" x2="25.2072" y2="73.6352" gradientUnits="userSpaceOnUse">
<stop stop-color="#F48218"/>
<stop offset="1" stop-color="#DD841B" stop-opacity="0.88"/>
</linearGradient>
<linearGradient id="paint11_linear_51_270" x1="40.4417" y1="68.272" x2="41.4417" y2="68.272" gradientUnits="userSpaceOnUse">
<stop stop-color="#F48218"/>
<stop offset="1" stop-color="#DD841B" stop-opacity="0.88"/>
</linearGradient>
<linearGradient id="paint12_linear_51_270" x1="56.3864" y1="76.2443" x2="57.3864" y2="76.2443" gradientUnits="userSpaceOnUse">
<stop stop-color="#F48218"/>
<stop offset="1" stop-color="#DD841B" stop-opacity="0.88"/>
</linearGradient>
<linearGradient id="paint13_linear_51_270" x1="72.331" y1="71.316" x2="73.331" y2="71.316" gradientUnits="userSpaceOnUse">
<stop stop-color="#F48218"/>
<stop offset="1" stop-color="#DD841B" stop-opacity="0.88"/>
</linearGradient>
<linearGradient id="paint14_linear_51_270" x1="88.1306" y1="66.8225" x2="89.1306" y2="66.8309" gradientUnits="userSpaceOnUse">
<stop stop-color="#F48218"/>
<stop offset="1" stop-color="#DD841B" stop-opacity="0.88"/>
</linearGradient>
</defs>
</svg>
