<svg width="193" height="196" viewBox="0 0 193 196" fill="none" xmlns="http://www.w3.org/2000/svg">
<path d="M21.5963 162.5V18.5C21.263 13.5 23.0963 3.60002 33.0963 4.00002C43.0159 4.3968 129.849 2.85842 173.054 2.02026C173.763 2.00649 174.45 2.0599 175.137 2.2343C177.574 2.85214 180.468 4.06044 183.134 6C188.994 10.2638 193.753 18.0616 190.128 30.8893L168.096 31L165.596 30.8893V181C165.263 184.5 161.896 192 151.096 194C150.641 194.025 150.202 194.028 149.778 194.01C106.487 194.343 20.307 194.792 11.5964 194C3.53773 193.267 1.85251 188.006 2.00974 184.821C2.03689 184.271 2.09638 183.723 2.09638 183.172V172.5C2.09638 166.977 6.57353 162.5 12.0964 162.5H21.5963Z" fill="url(#paint0_linear_53_28)" fill-opacity="0.56"/>
<path d="M21.5963 162.5V18.5C21.263 13.5 23.0963 3.60002 33.0963 4.00002C43.0159 4.3968 129.849 2.85842 173.054 2.02026C173.763 2.00649 174.45 2.0599 175.137 2.2343C177.574 2.85214 180.468 4.06044 183.134 6M21.5963 162.5H12.0964C6.57353 162.5 2.09638 166.977 2.09638 172.5V183.172C2.09638 183.723 2.03689 184.271 2.00974 184.821C1.85251 188.006 3.53773 193.267 11.5964 194C20.3964 194.8 108.263 194.333 151.096 194M21.5963 162.5H127.713C134.084 162.5 138.78 168.416 138.713 174.786C138.61 184.588 141.203 194.55 151.096 194M190.096 31C190.107 30.9631 190.117 30.9261 190.128 30.8893M190.128 30.8893L168.096 31L165.596 30.8893M190.128 30.8893C193.753 18.0616 188.994 10.2638 183.134 6M165.596 30.8893V16.6817C165.596 15.8966 165.678 15.1114 165.909 14.3611C167.672 8.63476 173.056 0.385618 183.134 6M165.596 30.8893V181C165.263 184.5 161.896 192 151.096 194" stroke="#292626" stroke-opacity="0.12"/>
<g filter="url(#filter0_b_53_28)">
<path d="M21.5963 162.5V18.5C21.263 13.5 23.0963 3.60002 33.0963 4.00002C43.0159 4.3968 129.849 2.85842 173.054 2.02026C173.763 2.00649 174.45 2.0599 175.137 2.2343C177.574 2.85214 180.468 4.06044 183.134 6C188.994 10.2638 193.753 18.0616 190.128 30.8893L168.096 31L165.596 30.8893V181C165.263 184.5 161.896 192 151.096 194C150.641 194.025 150.202 194.028 149.778 194.01C106.487 194.343 20.307 194.792 11.5964 194C3.53773 193.267 1.85251 188.006 2.00974 184.821C2.03689 184.271 2.09638 183.723 2.09638 183.172V172.5C2.09638 166.977 6.57353 162.5 12.0964 162.5H21.5963Z" fill="url(#paint1_linear_53_28)" fill-opacity="0.56"/>
<path d="M21.5963 162.5V18.5C21.263 13.5 23.0963 3.60002 33.0963 4.00002C43.0159 4.3968 129.849 2.85842 173.054 2.02026C173.763 2.00649 174.45 2.0599 175.137 2.2343C177.574 2.85214 180.468 4.06044 183.134 6M21.5963 162.5H12.0964C6.57353 162.5 2.09638 166.977 2.09638 172.5V183.172C2.09638 183.723 2.03689 184.271 2.00974 184.821C1.85251 188.006 3.53773 193.267 11.5964 194C20.3964 194.8 108.263 194.333 151.096 194M21.5963 162.5H127.713C134.084 162.5 138.78 168.416 138.713 174.786C138.61 184.588 141.203 194.55 151.096 194M190.096 31C190.107 30.9631 190.117 30.9261 190.128 30.8893M190.128 30.8893L168.096 31L165.596 30.8893M190.128 30.8893C193.753 18.0616 188.994 10.2638 183.134 6M165.596 30.8893V16.6817C165.596 15.8966 165.678 15.1114 165.909 14.3611C167.672 8.63476 173.056 0.385618 183.134 6M165.596 30.8893V181C165.263 184.5 161.896 192 151.096 194" stroke="#947A7A" stroke-opacity="0.31" stroke-width="3"/>
</g>
<path d="M52.875 54V24.9091H65.4886C67.7045 24.9091 69.5653 25.2074 71.071 25.804C72.5862 26.4006 73.7273 27.2434 74.4943 28.3324C75.2708 29.4214 75.6591 30.7045 75.6591 32.1818C75.6591 33.2519 75.4223 34.2273 74.9489 35.108C74.4848 35.9886 73.8314 36.7273 72.9886 37.3239C72.1458 37.911 71.161 38.3182 70.0341 38.5455V38.8295C71.2841 38.8769 72.4205 39.1941 73.4432 39.7812C74.4659 40.3589 75.2803 41.1591 75.8864 42.1818C76.4924 43.1951 76.7955 44.3883 76.7955 45.7614C76.7955 47.3523 76.3788 48.768 75.5455 50.0085C74.7216 51.2491 73.5473 52.2244 72.0227 52.9347C70.4981 53.6449 68.6799 54 66.5682 54H52.875ZM60.7727 47.6932H64.4659C65.7917 47.6932 66.786 47.447 67.4489 46.9545C68.1117 46.4527 68.4432 45.714 68.4432 44.7386C68.4432 44.0568 68.2869 43.4792 67.9744 43.0057C67.6619 42.5322 67.2169 42.1723 66.6392 41.9261C66.071 41.6799 65.3845 41.5568 64.5795 41.5568H60.7727V47.6932ZM60.7727 36.6705H64.0114C64.7027 36.6705 65.3134 36.5616 65.8438 36.3438C66.3741 36.1259 66.786 35.8134 67.0795 35.4062C67.3826 34.9896 67.5341 34.483 67.5341 33.8864C67.5341 32.9867 67.2121 32.3002 66.5682 31.8267C65.9242 31.3438 65.1098 31.1023 64.125 31.1023H60.7727V36.6705ZM87.4915 24.9091V54H79.5938V24.9091H87.4915ZM91.2344 54V24.9091H99.1321V47.6364H110.893V54H91.2344ZM114.086 54V24.9091H121.984V47.6364H133.745V54H114.086Z" fill="white"/>
<path d="M36 79H85" stroke="white" stroke-width="5" stroke-linecap="round"/>
<path d="M104 79H153" stroke="white" stroke-width="5" stroke-linecap="round"/>
<path d="M36 98H85" stroke="white" stroke-width="5" stroke-linecap="round"/>
<path d="M104 98H153" stroke="white" stroke-width="5" stroke-linecap="round"/>
<path d="M36 116H85" stroke="white" stroke-width="5" stroke-linecap="round"/>
<path d="M104 116H153" stroke="white" stroke-width="5" stroke-linecap="round"/>
<path d="M36 134H85" stroke="white" stroke-width="5" stroke-linecap="round"/>
<path d="M104 134H153" stroke="white" stroke-width="5" stroke-linecap="round"/>
<defs>
<filter id="filter0_b_53_28" x="-3.49988" y="-3.48181" width="200.39" height="203.424" filterUnits="userSpaceOnUse" color-interpolation-filters="sRGB">
<feFlood flood-opacity="0" result="BackgroundImageFix"/>
<feGaussianBlur in="BackgroundImageFix" stdDeviation="2"/>
<feComposite in2="SourceAlpha" operator="in" result="effect1_backgroundBlur_53_28"/>
<feBlend mode="normal" in="SourceGraphic" in2="effect1_backgroundBlur_53_28" result="shape"/>
</filter>
<linearGradient id="paint0_linear_53_28" x1="96.6949" y1="2" x2="-12" y2="206.5" gradientUnits="userSpaceOnUse">
<stop stop-color="#EF8E1D" stop-opacity="0.63"/>
<stop offset="1" stop-color="#D01717" stop-opacity="0.38"/>
</linearGradient>
<linearGradient id="paint1_linear_53_28" x1="96.6949" y1="2" x2="-12" y2="206.5" gradientUnits="userSpaceOnUse">
<stop stop-color="#EF8E1D" stop-opacity="0.63"/>
<stop offset="1" stop-color="#D01717" stop-opacity="0.38"/>
</linearGradient>
</defs>
</svg>
