<svg width="212" height="301" viewBox="0 0 212 301" fill="none" xmlns="http://www.w3.org/2000/svg">
<path d="M127.425 301H75.5882H62L81.6275 171.415L62 133.476L89.1765 157.126L103.268 98V157.126L139 133.476L112.327 171.415L127.425 301Z" fill="#737373"/>
<path d="M84.292 170.037L71.8859 146.056L87.207 159.389L90.9457 162.643L92.0947 157.822L100.268 123.528V157.126V162.709L104.924 159.628L127.41 144.744L109.873 169.69L109.215 170.626L109.347 171.762L124.055 298H75.5882H65.4886L84.5936 171.864L84.7395 170.901L84.292 170.037Z" stroke="white" stroke-opacity="0.2" stroke-width="6"/>
<circle cx="33" cy="72" r="23" fill="#F58471"/>
<circle cx="33" cy="72" r="20.5" stroke="#E7D7CB" stroke-opacity="0.55" stroke-width="5"/>
<circle cx="108.5" cy="41.5" r="41.5" fill="#F58471"/>
<circle cx="108.5" cy="41.5" r="39" stroke="#E7D7CB" stroke-opacity="0.55" stroke-width="5"/>
<circle cx="187" cy="80" r="25" fill="#F58471"/>
<circle cx="187" cy="80" r="22.5" stroke="#E7D7CB" stroke-opacity="0.55" stroke-width="5"/>
<circle cx="16.5" cy="144.5" r="16.5" fill="#F58471"/>
<circle cx="16.5" cy="144.5" r="14" stroke="#E7D7CB" stroke-opacity="0.55" stroke-width="5"/>
<circle cx="52" cy="185" r="11" fill="#F58471"/>
<circle cx="52" cy="185" r="8.5" stroke="#E7D7CB" stroke-opacity="0.55" stroke-width="5"/>
<circle cx="137" cy="179" r="11" fill="#F58471"/>
<circle cx="137" cy="179" r="8.5" stroke="#E7D7CB" stroke-opacity="0.55" stroke-width="5"/>
<circle cx="180" cy="147" r="22" fill="#F58471"/>
<circle cx="180" cy="147" r="19.5" stroke="#E7D7CB" stroke-opacity="0.55" stroke-width="5"/>
<circle cx="137" cy="110" r="18" fill="#F58471"/>
<circle cx="137" cy="110" r="15.5" stroke="#E7D7CB" stroke-opacity="0.55" stroke-width="5"/>
<circle cx="67" cy="113" r="15" fill="#F58471"/>
<circle cx="67" cy="113" r="12.5" stroke="#E7D7CB" stroke-opacity="0.55" stroke-width="5"/>
</svg>
