<svg width="204" height="241" viewBox="0 0 204 241" fill="none" xmlns="http://www.w3.org/2000/svg">
<circle cx="33.9593" cy="56.2479" r="17.1376" fill="url(#paint0_linear_32_3)" stroke="#D5AFAF" stroke-width="3.70543"/>
<circle cx="71.9399" cy="222.01" r="18.9903" fill="url(#paint1_linear_32_3)" fill-opacity="0.9"/>
<circle cx="71.9399" cy="222.01" r="17.1376" stroke="#D5AFAF" stroke-opacity="0.97" stroke-width="3.70543"/>
<circle cx="149.754" cy="222.01" r="18.9903" fill="url(#paint2_linear_32_3)" fill-opacity="0.9"/>
<circle cx="149.754" cy="222.01" r="17.1376" stroke="#D5AFAF" stroke-opacity="0.97" stroke-width="3.70543"/>
<path d="M16.2506 79.8701H50.0626C55.2502 79.8701 66.4282 94.6918 71.3688 102.103C78.3165 102.257 92.4897 102.473 93.6013 102.103C94.713 101.732 96.8436 103.183 97.7699 103.955L112.326 93.0252C113.031 92.4342 113.552 92.0383 113.807 91.9127L112.326 93.0252C108.344 96.3612 98.5074 105.912 97.7699 108.124C97.0289 110.347 94.6821 112.138 93.6013 112.756H64.4211C62.7228 110.44 58.863 104.882 57.0103 101.176C55.1575 97.4708 52.8416 99.6323 51.9153 101.176V197.517C47.0982 206.04 41.571 201.068 39.4095 197.517V147.957C36.0746 142.77 32.153 145.796 30.6091 147.957V197.517C23.9393 206.781 18.2577 201.377 16.2506 197.517V101.176C16.2506 98.5825 13.4715 99.4779 12.082 100.25V140.083C8.00599 145.641 4.20792 142.399 2.81838 140.083C2.20081 127.423 1.33621 100.25 2.81838 92.839C4.30055 85.4282 12.3907 81.1052 16.2506 79.8701Z" fill="url(#paint3_linear_32_3)" fill-opacity="0.63"/>
<path d="M113.981 91.9127C113.981 91.8544 113.921 91.8566 113.807 91.9127M113.807 91.9127C112.114 92.7475 98.638 105.52 97.7699 108.124C97.0289 110.347 94.6821 112.138 93.6013 112.756H64.4211C62.7228 110.44 58.863 104.882 57.0103 101.176C55.1575 97.4708 52.8417 99.6323 51.9153 101.176V197.517C47.0982 206.04 41.571 201.068 39.4095 197.517V147.957C36.0746 142.77 32.153 145.796 30.6091 147.957V197.517C23.9393 206.781 18.2577 201.377 16.2506 197.517C16.2506 166.484 16.2506 103.77 16.2506 101.176C16.2506 98.5825 13.4715 99.4779 12.082 100.25V140.083C8.00599 145.641 4.20792 142.399 2.81838 140.083C2.20081 127.423 1.33621 100.25 2.81838 92.839C4.30055 85.4282 12.3907 81.1052 16.2506 79.8701H50.0626C55.2502 79.8701 66.4282 94.6918 71.3688 102.103C78.3165 102.257 92.4897 102.473 93.6013 102.103C94.713 101.732 96.8436 103.183 97.7699 103.955L113.807 91.9127Z" stroke="#D5B7B7" stroke-opacity="0.75" stroke-width="2.77907"/>
<path d="M69.1609 131.746H189.124C193.293 132.672 201.63 131.468 201.63 119.24C201.63 103.955 201.63 31.6995 201.63 15.025C201.63 1.68551 193.293 1.1297 189.124 2.51924H60.8236C55.1111 2.67364 43.6861 6.31733 43.6861 19.6569" stroke="#DD4444" stroke-opacity="0.4" stroke-width="2.77907"/>
<defs>
<linearGradient id="paint0_linear_32_3" x1="30.2539" y1="37.2576" x2="42.2965" y2="86.8177" gradientUnits="userSpaceOnUse">
<stop stop-color="#DF2323"/>
<stop offset="1" stop-color="#DB7D27" stop-opacity="0"/>
</linearGradient>
<linearGradient id="paint1_linear_32_3" x1="68.2345" y1="203.019" x2="80.2771" y2="252.579" gradientUnits="userSpaceOnUse">
<stop stop-color="#DF2323"/>
<stop offset="1" stop-color="#DB7D27" stop-opacity="0"/>
</linearGradient>
<linearGradient id="paint2_linear_32_3" x1="146.048" y1="203.019" x2="158.091" y2="252.579" gradientUnits="userSpaceOnUse">
<stop stop-color="#DF2323"/>
<stop offset="1" stop-color="#DB7D27" stop-opacity="0"/>
</linearGradient>
<linearGradient id="paint3_linear_32_3" x1="50.1705" y1="67.8274" x2="128.911" y2="258.657" gradientUnits="userSpaceOnUse">
<stop stop-color="#E63B3B"/>
<stop offset="1" stop-color="#E08E12" stop-opacity="0"/>
</linearGradient>
</defs>
</svg>
