<svg width="428" height="290" viewBox="0 0 428 290" fill="none" xmlns="http://www.w3.org/2000/svg">
<rect width="428" height="290" rx="29" fill="url(#paint0_linear_26_35)" fill-opacity="0.55"/>
<rect x="22" y="21" width="384" height="222" rx="29" fill="white" fill-opacity="0.7"/>
<mask id="path-3-inside-1_26_35" fill="white">
<path d="M221 139.5C221 123.631 216.251 108.125 207.364 94.9776C198.476 81.8305 185.858 71.6438 171.132 65.7289C156.407 59.8139 140.248 58.4414 124.735 61.7878C109.223 65.1342 95.0671 73.0466 84.0897 84.5064C73.1123 95.9662 65.8157 110.449 63.139 126.091C60.4624 141.733 62.5282 157.818 69.0706 172.275C75.613 186.733 86.3325 198.902 99.8495 207.216C113.366 215.53 129.062 219.609 144.917 218.927L143.309 181.543C134.916 181.904 126.608 179.745 119.453 175.344C112.298 170.943 106.624 164.502 103.161 156.849C99.698 149.196 98.6045 140.682 100.021 132.402C101.438 124.123 105.3 116.456 111.111 110.39C116.922 104.324 124.415 100.136 132.626 98.3647C140.837 96.5934 149.39 97.3199 157.185 100.451C164.98 103.582 171.659 108.974 176.363 115.933C181.068 122.892 183.582 131.1 183.582 139.5H221Z"/>
</mask>
<path d="M221 139.5C221 123.631 216.251 108.125 207.364 94.9776C198.476 81.8305 185.858 71.6438 171.132 65.7289C156.407 59.8139 140.248 58.4414 124.735 61.7878C109.223 65.1342 95.0671 73.0466 84.0897 84.5064C73.1123 95.9662 65.8157 110.449 63.139 126.091C60.4624 141.733 62.5282 157.818 69.0706 172.275C75.613 186.733 86.3325 198.902 99.8495 207.216C113.366 215.53 129.062 219.609 144.917 218.927L143.309 181.543C134.916 181.904 126.608 179.745 119.453 175.344C112.298 170.943 106.624 164.502 103.161 156.849C99.698 149.196 98.6045 140.682 100.021 132.402C101.438 124.123 105.3 116.456 111.111 110.39C116.922 104.324 124.415 100.136 132.626 98.3647C140.837 96.5934 149.39 97.3199 157.185 100.451C164.98 103.582 171.659 108.974 176.363 115.933C181.068 122.892 183.582 131.1 183.582 139.5H221Z" fill="url(#paint1_linear_26_35)" fill-opacity="0.54" stroke="#968C8C" stroke-opacity="0.22" stroke-width="12" mask="url(#path-3-inside-1_26_35)"/>
<mask id="path-4-inside-2_26_35" fill="white">
<path d="M156.882 218.53C169.056 216.679 180.634 212.025 190.702 204.936L168.961 174.059C163.675 177.781 157.597 180.224 151.206 181.196L156.882 218.53Z"/>
</mask>
<path d="M156.882 218.53C169.056 216.679 180.634 212.025 190.702 204.936L168.961 174.059C163.675 177.781 157.597 180.224 151.206 181.196L156.882 218.53Z" fill="url(#paint2_linear_26_35)" fill-opacity="0.89" stroke="#968C8C" stroke-opacity="0.22" stroke-width="12" mask="url(#path-4-inside-2_26_35)"/>
<mask id="path-5-inside-3_26_35" fill="white">
<path d="M201.121 192.197C209.593 182.437 215.557 170.759 218.498 158.174L181.726 149.581C180.182 156.188 177.051 162.319 172.603 167.443L201.121 192.197Z"/>
</mask>
<path d="M201.121 192.197C209.593 182.437 215.557 170.759 218.498 158.174L181.726 149.581C180.182 156.188 177.051 162.319 172.603 167.443L201.121 192.197Z" fill="url(#paint3_linear_26_35)" fill-opacity="0.8" stroke="#968C8C" stroke-opacity="0.22" stroke-width="12" mask="url(#path-5-inside-3_26_35)"/>
<circle cx="141" cy="140" r="23" fill="url(#paint4_linear_26_35)"/>
<circle cx="141" cy="140" r="20" stroke="#D5C3C3" stroke-opacity="0.55" stroke-width="6"/>
<path d="M243 141H316" stroke="#D5B1B1" stroke-width="14" stroke-linecap="round"/>
<path d="M280 86.0001H318" stroke="#D5B1B1" stroke-width="14" stroke-linecap="round"/>
<path d="M277 196H313" stroke="#D5B1B1" stroke-width="14" stroke-linecap="round"/>
<line x1="273" y1="70.5001" x2="274" y2="70.5001" stroke="black" stroke-opacity="0.23"/>
<path d="M277 86.0001L277 124" stroke="url(#paint5_linear_26_35)" stroke-width="14" stroke-linecap="round"/>
<path d="M276 158L276 196" stroke="#D5B1B1" stroke-width="14" stroke-linecap="round"/>
<rect x="334" y="72.0001" width="27" height="27" rx="4" fill="url(#paint6_linear_26_35)"/>
<rect x="335.5" y="73.5001" width="24" height="24" rx="2.5" stroke="#7D7373" stroke-opacity="0.19" stroke-width="3"/>
<rect x="334" y="127" width="27" height="27" rx="4" fill="url(#paint7_linear_26_35)"/>
<rect x="335.5" y="128.5" width="24" height="24" rx="2.5" stroke="#7D7373" stroke-opacity="0.19" stroke-width="3"/>
<rect x="334" y="182" width="27" height="27" rx="4" fill="url(#paint8_linear_26_35)"/>
<rect x="335.5" y="183.5" width="24" height="24" rx="2.5" stroke="#7D7373" stroke-opacity="0.19" stroke-width="3"/>
<defs>
<linearGradient id="paint0_linear_26_35" x1="29" y1="46" x2="489.5" y2="416.5" gradientUnits="userSpaceOnUse">
<stop offset="0.17873" stop-color="#F3D6D6"/>
<stop offset="1" stop-color="#422929" stop-opacity="0"/>
</linearGradient>
<linearGradient id="paint1_linear_26_35" x1="106.5" y1="81.0001" x2="163" y2="259" gradientUnits="userSpaceOnUse">
<stop stop-color="#C03434"/>
<stop offset="1" stop-color="#EAB018" stop-opacity="0"/>
</linearGradient>
<linearGradient id="paint2_linear_26_35" x1="153.5" y1="202.5" x2="147.5" y2="319.5" gradientUnits="userSpaceOnUse">
<stop stop-color="#F7E3D0"/>
<stop offset="1" stop-color="#D9D9D9" stop-opacity="0"/>
</linearGradient>
<linearGradient id="paint3_linear_26_35" x1="146.5" y1="108.5" x2="285" y2="222" gradientUnits="userSpaceOnUse">
<stop stop-color="#E6A6A6"/>
<stop offset="1" stop-color="#FFD159" stop-opacity="0"/>
</linearGradient>
<linearGradient id="paint4_linear_26_35" x1="116.5" y1="82.0001" x2="168.5" y2="174" gradientUnits="userSpaceOnUse">
<stop stop-color="#C84C4C" stop-opacity="0.79"/>
<stop offset="1" stop-color="#EEB729" stop-opacity="0"/>
</linearGradient>
<linearGradient id="paint5_linear_26_35" x1="277" y1="105" x2="276" y2="105" gradientUnits="userSpaceOnUse">
<stop stop-color="#D5B1B1"/>
<stop offset="1" stop-color="#D8AAAA"/>
</linearGradient>
<linearGradient id="paint6_linear_26_35" x1="315" y1="47.5001" x2="365" y2="106.5" gradientUnits="userSpaceOnUse">
<stop stop-color="#D21717"/>
<stop offset="1" stop-color="#DB7124" stop-opacity="0"/>
</linearGradient>
<linearGradient id="paint7_linear_26_35" x1="315" y1="102.5" x2="365" y2="161.5" gradientUnits="userSpaceOnUse">
<stop stop-color="#D21717"/>
<stop offset="1" stop-color="#DB7124" stop-opacity="0"/>
</linearGradient>
<linearGradient id="paint8_linear_26_35" x1="315" y1="157.5" x2="365" y2="216.5" gradientUnits="userSpaceOnUse">
<stop stop-color="#D21717"/>
<stop offset="1" stop-color="#DB7124" stop-opacity="0"/>
</linearGradient>
</defs>
</svg>
