<svg width="369" height="204" viewBox="0 0 369 204" fill="none" xmlns="http://www.w3.org/2000/svg">
<circle cx="184.103" cy="44.7485" r="44.7485" fill="url(#paint0_linear_33_37)"/>
<circle cx="184.103" cy="44.7485" r="41.2155" stroke="#D9C2C2" stroke-opacity="0.94" stroke-width="7.06596"/>
<path d="M107.56 147.987C107.56 119.586 130.583 96.5625 158.984 96.5625H213.147C240.031 96.5625 261.824 118.356 261.824 145.239V203.723H107.56V147.987Z" fill="url(#paint1_linear_33_37)"/>
<path d="M111.093 147.987C111.093 121.537 132.534 100.095 158.984 100.095H213.147C238.08 100.095 258.291 120.307 258.291 145.239V200.19H111.093V147.987Z" stroke="#E3CACA" stroke-opacity="0.82" stroke-width="7.06596"/>
<path d="M171.345 159.032L182.032 106.892C182.549 104.371 186.156 104.387 186.651 106.912L196.877 159.069C196.992 159.657 196.879 160.267 196.561 160.774L186.342 177.062C185.43 178.516 183.319 178.537 182.377 177.102L171.683 160.797C171.341 160.276 171.22 159.642 171.345 159.032Z" fill="white" fill-opacity="0.97" stroke="white" stroke-opacity="0.59" stroke-width="3.14043"/>
<circle cx="51.0319" cy="97.3532" r="29.834" fill="url(#paint2_linear_33_37)"/>
<circle cx="51.0319" cy="97.3532" r="26.3011" stroke="#D9C2C2" stroke-opacity="0.94" stroke-width="7.06596"/>
<path d="M0 183.322C0 154.921 23.0235 131.898 51.4245 131.898H54.1723C81.0557 131.898 102.849 153.691 102.849 180.574V203.343H0V183.322Z" fill="url(#paint3_linear_33_37)"/>
<path d="M3.53298 183.322C3.53298 156.873 24.9747 135.431 51.4245 135.431H54.1723C79.1044 135.431 99.316 155.642 99.316 180.574V199.81H3.53298V183.322Z" stroke="#E3CACA" stroke-opacity="0.82" stroke-width="7.06596"/>
<path d="M42.5909 173.229L48.8652 142.62C49.3819 140.099 52.9887 140.114 53.4838 142.64L59.4887 173.266C59.6039 173.854 59.4909 174.464 59.1725 174.971L53.1749 184.531C52.2627 185.985 50.1517 186.006 49.2103 184.571L42.9288 174.994C42.5874 174.474 42.4659 173.839 42.5909 173.229Z" fill="white" fill-opacity="0.97" stroke="white" stroke-opacity="0.59" stroke-width="3.14043"/>
<circle cx="317.183" cy="97.3532" r="29.834" fill="url(#paint4_linear_33_37)"/>
<circle cx="317.183" cy="97.3532" r="26.3011" stroke="#D9C2C2" stroke-opacity="0.94" stroke-width="7.06596"/>
<path d="M266.151 183.322C266.151 154.921 289.175 131.898 317.576 131.898H320.323C347.207 131.898 369 153.691 369 180.574V203.343H266.151V183.322Z" fill="url(#paint5_linear_33_37)"/>
<path d="M269.684 183.322C269.684 156.873 291.126 135.431 317.576 135.431H320.323C345.256 135.431 365.467 155.642 365.467 180.574V199.81H269.684V183.322Z" stroke="#E3CACA" stroke-opacity="0.82" stroke-width="7.06596"/>
<path d="M308.742 173.229L315.016 142.62C315.533 140.099 319.14 140.114 319.635 142.64L325.64 173.266C325.755 173.854 325.642 174.464 325.324 174.971L319.326 184.531C318.414 185.985 316.303 186.006 315.361 184.571L309.08 174.994C308.738 174.474 308.617 173.839 308.742 173.229Z" fill="white" fill-opacity="0.97" stroke="white" stroke-opacity="0.59" stroke-width="3.14043"/>
<defs>
<linearGradient id="paint0_linear_33_37" x1="183.564" y1="-5.93052" x2="220.225" y2="100.819" gradientUnits="userSpaceOnUse">
<stop stop-color="#DF3232"/>
<stop offset="1" stop-color="#F6B40A" stop-opacity="0"/>
</linearGradient>
<linearGradient id="paint1_linear_33_37" x1="175.86" y1="84.1978" x2="238.272" y2="226.686" gradientUnits="userSpaceOnUse">
<stop stop-color="#F52323"/>
<stop offset="1" stop-color="#D48032" stop-opacity="0"/>
</linearGradient>
<linearGradient id="paint2_linear_33_37" x1="50.6725" y1="63.5653" x2="75.1148" y2="134.736" gradientUnits="userSpaceOnUse">
<stop stop-color="#DF3232"/>
<stop offset="1" stop-color="#F6B40A" stop-opacity="0"/>
</linearGradient>
<linearGradient id="paint3_linear_33_37" x1="45.5362" y1="123.654" x2="87.1468" y2="218.652" gradientUnits="userSpaceOnUse">
<stop stop-color="#F52323"/>
<stop offset="1" stop-color="#D48032" stop-opacity="0"/>
</linearGradient>
<linearGradient id="paint4_linear_33_37" x1="316.824" y1="63.5653" x2="341.266" y2="134.736" gradientUnits="userSpaceOnUse">
<stop stop-color="#DF3232"/>
<stop offset="1" stop-color="#F6B40A" stop-opacity="0"/>
</linearGradient>
<linearGradient id="paint5_linear_33_37" x1="311.687" y1="123.654" x2="353.298" y2="218.652" gradientUnits="userSpaceOnUse">
<stop stop-color="#F52323"/>
<stop offset="1" stop-color="#D48032" stop-opacity="0"/>
</linearGradient>
</defs>
</svg>
