<svg width="344" height="262" viewBox="0 0 344 262" fill="none" xmlns="http://www.w3.org/2000/svg">
<circle cx="142.608" cy="55.519" r="55.519" fill="url(#paint0_linear_26_47)"/>
<circle cx="142.608" cy="55.519" r="51.7089" stroke="#EED0D0" stroke-opacity="0.67" stroke-width="7.62025"/>
<circle cx="281.405" cy="93.076" r="62.5949" fill="url(#paint1_linear_26_47)"/>
<circle cx="281.405" cy="93.076" r="58.3004" stroke="#EED0D0" stroke-opacity="0.67" stroke-width="8.58911"/>
<path d="M11.9747 155.127C12.3572 158.952 6.04788 207.295 1.67953 239.654C0.796689 246.194 5.87883 252.013 12.478 252.013H76.2721C84.2998 252.013 89.5662 243.62 86.0745 236.392L66.8679 196.631C64.6438 192.026 67.1357 186.532 72.065 185.172C75.757 184.154 79.662 185.83 81.467 189.208L115.019 251.998C115.975 253.787 117.411 255.273 119.166 256.289L124.292 259.257C125.95 260.216 127.831 260.722 129.747 260.722H176.834C177.601 260.722 178.362 260.811 179.12 260.923C185.165 261.82 200.369 261.653 221.532 254.734C241.496 248.207 237.257 233.302 231.124 224.27C229.625 222.064 227.146 220.797 224.501 220.452L160.256 212.072C156.12 211.532 152.656 208.677 151.337 204.72L127.291 132.581C126.98 131.649 126.557 130.764 125.973 129.974C118.062 119.268 95.9706 101.732 63.6835 108.861C21.7722 118.114 11.4304 149.684 11.9747 155.127Z" fill="url(#paint2_linear_26_47)"/>
<path d="M6.53423 240.31C8.71934 224.123 11.3912 203.93 13.4696 187.298C14.5084 178.985 15.4016 171.541 16.0118 165.927C16.3165 163.123 16.5539 160.746 16.7035 158.932C16.8341 157.348 16.9515 155.663 16.8491 154.639C16.8511 154.659 16.8514 154.653 16.8531 154.621C16.8596 154.498 16.8866 153.991 17.1026 153.021C17.3506 151.909 17.7897 150.446 18.4791 148.722C19.8565 145.278 22.1707 140.952 25.7387 136.476C32.8284 127.583 44.9299 118.018 64.7396 113.644C94.6281 107.046 114.926 123.267 122.033 132.885C122.249 133.177 122.459 133.577 122.643 134.13L146.69 206.269C148.602 212.007 153.625 216.147 159.623 216.93L223.868 225.309C225.44 225.514 226.522 226.213 227.071 227.022C229.871 231.146 231.716 235.915 231.249 239.867C231.032 241.708 230.31 243.475 228.75 245.131C227.142 246.838 224.449 248.626 220.009 250.078C199.397 256.817 184.972 256.839 179.839 256.078C179.003 255.954 177.962 255.823 176.834 255.823H129.747C128.693 255.823 127.658 255.545 126.747 255.017L124.292 259.257L126.747 255.017L121.62 252.049C120.655 251.49 119.865 250.673 119.339 249.689L85.7876 186.899C82.903 181.501 76.6625 178.822 70.7623 180.45C62.8848 182.623 58.9025 191.403 62.4568 198.761L81.6634 238.522C83.5839 242.498 80.6873 247.114 76.2721 247.114H12.478C8.84696 247.114 6.04788 243.913 6.53423 240.31Z" stroke="#E7DADA" stroke-opacity="0.51" stroke-width="9.79747"/>
<path d="M279.772 64.2278V91.443" stroke="white" stroke-opacity="0.75" stroke-width="7.62025" stroke-linecap="round"/>
<path d="M305.899 114.304L279.772 91.443" stroke="white" stroke-opacity="0.75" stroke-width="7.62025" stroke-linecap="round"/>
<defs>
<linearGradient id="paint0_linear_26_47" x1="101.785" y1="12.519" x2="252.557" y2="148.595" gradientUnits="userSpaceOnUse">
<stop stop-color="#F93207"/>
<stop offset="0.72373" stop-color="#E89B04" stop-opacity="0.54"/>
</linearGradient>
<linearGradient id="paint1_linear_26_47" x1="195.405" y1="20.6836" x2="378.291" y2="168.19" gradientUnits="userSpaceOnUse">
<stop stop-color="#EC5939"/>
<stop offset="0.88373" stop-color="#E89B04" stop-opacity="0.29"/>
</linearGradient>
<linearGradient id="paint2_linear_26_47" x1="118.11" y1="107.204" x2="205.747" y2="266.165" gradientUnits="userSpaceOnUse">
<stop stop-color="#F23A3A"/>
<stop offset="1" stop-color="#D09235" stop-opacity="0.74"/>
</linearGradient>
</defs>
</svg>
