<svg width="294" height="293" viewBox="0 0 294 293" fill="none" xmlns="http://www.w3.org/2000/svg">
<g filter="url(#filter0_d_26_3)">
<mask id="path-1-inside-1_26_3" fill="white">
<path d="M287 140C287 167.689 278.789 194.757 263.406 217.78C248.022 240.803 226.157 258.747 200.576 269.343C174.994 279.939 146.845 282.712 119.687 277.31C92.53 271.908 67.5844 258.574 48.005 238.995C28.4257 219.416 15.092 194.47 9.69005 167.313C4.28813 140.155 7.06061 112.006 17.6569 86.4243C28.2532 60.8426 46.1973 38.9776 69.2202 23.5942C92.2431 8.21083 119.311 -1.35335e-05 147 0L147 31.6633C125.573 31.6633 104.627 38.0171 86.8114 49.9213C68.9955 61.8255 55.1097 78.7454 46.91 98.5413C38.7102 118.337 36.5648 140.12 40.745 161.135C44.9252 182.151 55.2432 201.454 70.3944 216.606C85.5455 231.757 104.849 242.075 125.865 246.255C146.88 250.435 168.663 248.29 188.459 240.09C208.255 231.89 225.174 218.005 237.079 200.189C248.983 182.373 255.337 161.427 255.337 140H287Z"/>
</mask>
<path d="M287 140C287 167.689 278.789 194.757 263.406 217.78C248.022 240.803 226.157 258.747 200.576 269.343C174.994 279.939 146.845 282.712 119.687 277.31C92.53 271.908 67.5844 258.574 48.005 238.995C28.4257 219.416 15.092 194.47 9.69005 167.313C4.28813 140.155 7.06061 112.006 17.6569 86.4243C28.2532 60.8426 46.1973 38.9776 69.2202 23.5942C92.2431 8.21083 119.311 -1.35335e-05 147 0L147 31.6633C125.573 31.6633 104.627 38.0171 86.8114 49.9213C68.9955 61.8255 55.1097 78.7454 46.91 98.5413C38.7102 118.337 36.5648 140.12 40.745 161.135C44.9252 182.151 55.2432 201.454 70.3944 216.606C85.5455 231.757 104.849 242.075 125.865 246.255C146.88 250.435 168.663 248.29 188.459 240.09C208.255 231.89 225.174 218.005 237.079 200.189C248.983 182.373 255.337 161.427 255.337 140H287Z" fill="url(#paint0_linear_26_3)" fill-opacity="0.39" shape-rendering="crispEdges"/>
<path d="M287 140C287 167.689 278.789 194.757 263.406 217.78C248.022 240.803 226.157 258.747 200.576 269.343C174.994 279.939 146.845 282.712 119.687 277.31C92.53 271.908 67.5844 258.574 48.005 238.995C28.4257 219.416 15.092 194.47 9.69005 167.313C4.28813 140.155 7.06061 112.006 17.6569 86.4243C28.2532 60.8426 46.1973 38.9776 69.2202 23.5942C92.2431 8.21083 119.311 -1.35335e-05 147 0L147 31.6633C125.573 31.6633 104.627 38.0171 86.8114 49.9213C68.9955 61.8255 55.1097 78.7454 46.91 98.5413C38.7102 118.337 36.5648 140.12 40.745 161.135C44.9252 182.151 55.2432 201.454 70.3944 216.606C85.5455 231.757 104.849 242.075 125.865 246.255C146.88 250.435 168.663 248.29 188.459 240.09C208.255 231.89 225.174 218.005 237.079 200.189C248.983 182.373 255.337 161.427 255.337 140H287Z" stroke="#D9C2C2" stroke-opacity="0.9" stroke-width="12.5843" shape-rendering="crispEdges" mask="url(#path-1-inside-1_26_3)"/>
</g>
<path d="M207.303 74.3694C204.589 77.7609 205.138 82.7105 208.53 85.4246C211.921 88.1388 216.871 87.5897 219.585 84.1982L207.303 74.3694ZM265.509 23.1263C265.03 18.809 261.142 15.6974 256.824 16.1764L186.469 23.9815C182.152 24.4604 179.041 28.3486 179.519 32.6659C179.998 36.9832 183.887 40.0948 188.204 39.6159L250.742 32.678L257.679 95.2157C258.158 99.533 262.047 102.645 266.364 102.166C270.681 101.687 273.793 97.7985 273.314 93.4812L265.509 23.1263ZM219.585 84.1982L263.832 28.9079L251.551 19.0792L207.303 74.3694L219.585 84.1982Z" fill="url(#paint1_linear_26_3)"/>
<path d="M203.807 77.2453C200.814 80.9702 201.407 86.4159 205.132 89.4087C208.857 92.4015 214.303 91.808 217.296 88.0832L203.807 77.2453ZM266.292 23.0564C265.775 18.3063 261.504 14.8752 256.754 15.3928L179.347 23.828C174.597 24.3456 171.166 28.6159 171.684 33.366C172.201 38.116 176.472 41.5471 181.222 41.0295L250.028 33.5316L257.526 102.338C258.044 107.088 262.314 110.519 267.064 110.001C271.814 109.484 275.245 105.213 274.727 100.463L266.292 23.0564ZM217.296 88.0832L264.436 29.4125L250.947 18.5747L203.807 77.2453L217.296 88.0832Z" fill="url(#paint2_linear_26_3)"/>
<g filter="url(#filter1_b_26_3)">
<path d="M132.49 135.443V128.054C132.49 121.104 126.856 115.47 119.906 115.47H99.6061C94.9412 115.47 91.1595 111.688 91.1595 107.023V107.023C91.1595 102.358 94.9412 98.5768 99.6061 98.5768H197.804C202.469 98.5768 206.251 102.358 206.251 107.023V107.023C206.251 111.688 202.469 115.47 197.804 115.47H164.574C159.655 115.47 155.667 119.458 155.667 124.377V124.377C155.667 130.119 161.056 134.277 166.798 134.214C166.965 134.212 167.133 134.211 167.3 134.211C176.288 134.211 183.515 136.704 188.978 141.69C194.501 146.675 197.262 153.362 197.262 161.75C197.262 165.915 196.469 170.255 194.883 174.772C194.002 177.281 192.984 179.573 191.831 181.647C190.182 184.615 186.736 185.914 183.375 185.433V185.433C176.307 184.42 172.917 176.177 174.812 169.294C175.561 166.57 175.936 163.88 175.936 161.222C175.936 157.996 175.055 155.562 173.292 153.92C171.588 152.218 169.268 151.368 166.33 151.368C161.234 151.368 156.137 153.767 151.04 158.565C150.417 159.152 149.895 159.822 149.398 160.519V160.519C144.474 167.421 141.179 177.66 146.616 184.167L155.343 194.611C159.138 199.154 158.285 205.962 153.487 209.427V209.427C149.152 212.558 143.136 211.812 139.697 207.718L98.0611 158.141C94.1477 153.481 94.8873 146.503 99.6906 142.767V142.767C103.822 139.554 109.67 139.79 113.529 143.326L117.616 147.069C120.292 149.521 124.135 151.119 127.231 149.224C128.312 148.563 129.213 147.724 129.935 146.705C131.638 144.3 132.49 140.546 132.49 135.443Z" fill="#CD6B6B" fill-opacity="0.49"/>
<path d="M185.797 145.175L185.807 145.184L185.816 145.192C190.216 149.164 192.543 154.509 192.543 161.75C192.543 165.309 191.866 169.12 190.43 173.208C189.627 175.495 188.716 177.539 187.707 179.355C187.21 180.249 185.916 181.029 184.044 180.761C182.357 180.52 180.923 179.431 179.97 177.488C178.988 175.485 178.717 172.888 179.361 170.546C180.216 167.44 180.655 164.329 180.655 161.222C180.655 157.177 179.538 153.327 176.569 150.523C173.801 147.792 170.199 146.649 166.33 146.649C159.643 146.649 153.446 149.819 147.805 155.129C146.847 156.032 146.115 156.995 145.557 157.778C142.788 161.659 140.386 166.585 139.476 171.658C138.563 176.75 139.09 182.521 142.994 187.193L151.721 197.637C153.762 200.079 153.303 203.739 150.724 205.602C148.393 207.285 145.159 206.884 143.311 204.683L101.675 155.106C99.4822 152.495 99.8966 148.586 102.588 146.492C104.903 144.692 108.179 144.824 110.341 146.805L114.428 150.549C116.172 152.147 118.437 153.608 120.999 154.323C123.628 155.055 126.777 155.034 129.694 153.25C131.312 152.26 132.688 150.981 133.785 149.433C136.335 145.834 137.209 140.887 137.209 135.443V128.054C137.209 118.498 129.462 110.751 119.906 110.751H99.6061C97.5475 110.751 95.8786 109.082 95.8786 107.023C95.8786 104.965 97.5475 103.296 99.6061 103.296H197.804C199.863 103.296 201.532 104.965 201.532 107.023C201.532 109.082 199.863 110.751 197.804 110.751H164.574C157.049 110.751 150.948 116.851 150.948 124.377C150.948 133.408 159.197 139.017 166.85 138.932C167 138.931 167.15 138.93 167.3 138.93C175.378 138.93 181.382 141.146 185.797 145.175Z" stroke="url(#paint3_linear_26_3)" stroke-opacity="0.34" stroke-width="9.4382"/>
</g>
<defs>
<filter id="filter0_d_26_3" x="0.707804" y="0" width="292.584" height="292.584" filterUnits="userSpaceOnUse" color-interpolation-filters="sRGB">
<feFlood flood-opacity="0" result="BackgroundImageFix"/>
<feColorMatrix in="SourceAlpha" type="matrix" values="0 0 0 0 0 0 0 0 0 0 0 0 0 0 0 0 0 0 127 0" result="hardAlpha"/>
<feOffset dy="6.29213"/>
<feGaussianBlur stdDeviation="3.14607"/>
<feComposite in2="hardAlpha" operator="out"/>
<feColorMatrix type="matrix" values="0 0 0 0 0 0 0 0 0 0 0 0 0 0 0 0 0 0 0.25 0"/>
<feBlend mode="normal" in2="BackgroundImageFix" result="effect1_dropShadow_26_3"/>
<feBlend mode="normal" in="SourceGraphic" in2="effect1_dropShadow_26_3" result="shape"/>
</filter>
<filter id="filter1_b_26_3" x="84.8674" y="92.2846" width="127.676" height="125.367" filterUnits="userSpaceOnUse" color-interpolation-filters="sRGB">
<feFlood flood-opacity="0" result="BackgroundImageFix"/>
<feGaussianBlur in="BackgroundImageFix" stdDeviation="3.14607"/>
<feComposite in2="SourceAlpha" operator="in" result="effect1_backgroundBlur_26_3"/>
<feBlend mode="normal" in="SourceGraphic" in2="effect1_backgroundBlur_26_3" result="shape"/>
</filter>
<linearGradient id="paint0_linear_26_3" x1="164.294" y1="17.2941" x2="147" y2="377.176" gradientUnits="userSpaceOnUse">
<stop offset="0.425" stop-color="#FD0F0F" stop-opacity="0.9"/>
<stop offset="0.99" stop-color="#DEA615" stop-opacity="0.92"/>
</linearGradient>
<linearGradient id="paint1_linear_26_3" x1="239.411" y1="-137.312" x2="153.881" y2="158.018" gradientUnits="userSpaceOnUse">
<stop offset="0.242665" stop-color="#DC6D6D" stop-opacity="0.65"/>
<stop offset="0.765" stop-color="#FAC0AB"/>
</linearGradient>
<linearGradient id="paint2_linear_26_3" x1="244.229" y1="-142.953" x2="160.436" y2="169.726" gradientUnits="userSpaceOnUse">
<stop offset="0.242665" stop-color="#E25959" stop-opacity="0.19"/>
<stop offset="0.765" stop-color="#FAC0AB"/>
</linearGradient>
<linearGradient id="paint3_linear_26_3" x1="79.3596" y1="39.8502" x2="184.753" y2="235.955" gradientUnits="userSpaceOnUse">
<stop offset="0.104818" stop-color="#F1B166"/>
<stop offset="0.73373" stop-color="#625E5D" stop-opacity="0.19"/>
</linearGradient>
</defs>
</svg>
