<svg width="251" height="203" viewBox="0 0 251 203" fill="none" xmlns="http://www.w3.org/2000/svg">
<circle cx="23.0529" cy="23.0529" r="21.2002" transform="matrix(-1 0 0 1 233.257 0)" fill="url(#paint0_linear_35_69)" stroke="#D5AFAF" stroke-width="3.70543"/>
<path d="M231.701 51.7285H190.655C184.358 51.7285 170.789 69.721 164.791 78.7173C156.357 78.9047 139.152 79.1671 137.802 78.7173C136.453 78.2675 133.866 80.0293 132.742 80.9664C132.604 80.8983 131.289 87.8217 132.526 84.9751C132.548 85.2952 132.614 85.6443 132.742 86.0268C133.642 88.7256 136.49 90.8997 137.802 91.6494H173.225C175.287 88.8381 179.972 82.0909 182.221 77.5928C184.47 73.0946 187.282 75.7185 188.406 77.5928V194.544C194.254 204.89 200.964 198.855 203.587 194.544V134.382C207.636 128.084 212.396 131.758 214.271 134.382V194.544C222.367 205.79 229.264 199.23 231.701 194.544V77.5928C231.701 74.4441 235.074 75.5311 236.761 76.4682V124.823C241.709 131.57 246.32 127.634 248.007 124.823C248.756 109.455 249.806 76.4682 248.007 67.472C246.207 58.4757 236.386 53.2279 231.701 51.7285Z" fill="url(#paint1_linear_35_69)" fill-opacity="0.63"/>
<path d="M132.526 84.9751C131.289 87.8217 132.604 80.8983 132.742 80.9664M132.742 80.9664C134.797 81.9798 131.688 82.8655 132.742 86.0268C133.642 88.7256 136.49 90.8997 137.802 91.6494H173.225C175.287 88.8381 179.972 82.0909 182.221 77.5928C184.47 73.0946 187.282 75.7185 188.406 77.5928V194.544C194.254 204.89 200.964 198.855 203.587 194.544V134.382C207.636 128.084 212.396 131.758 214.271 134.382V194.544C222.367 205.79 229.264 199.23 231.701 194.544C231.701 156.872 231.701 80.7415 231.701 77.5928C231.701 74.4441 235.074 75.5311 236.761 76.4682V124.823C241.709 131.57 246.32 127.634 248.007 124.823C248.756 109.455 249.806 76.4682 248.007 67.472C246.207 58.4757 236.386 53.2279 231.701 51.7285H190.655C184.358 51.7285 170.789 69.721 164.791 78.7173C156.357 78.9047 139.152 79.1671 137.802 78.7173C136.453 78.2675 133.866 80.0293 132.742 80.9664Z" stroke="#D5B7B7" stroke-opacity="0.75" stroke-width="2.77907"/>
<path d="M0 101C0 98.2386 2.23858 96 5 96H132C134.761 96 137 98.2386 137 101V196C137 198.761 134.761 201 132 201H5C2.23857 201 0 198.761 0 196V101Z" fill="url(#paint2_linear_35_69)"/>
<path d="M4 101C4 100.448 4.44772 100 5 100H132C132.552 100 133 100.448 133 101V196C133 196.552 132.552 197 132 197H5C4.44771 197 4 196.552 4 196V101Z" stroke="#E5D8D8" stroke-opacity="0.72" stroke-width="8"/>
<circle cx="46.646" cy="32.8041" r="16.9514" fill="url(#paint3_linear_35_69)" stroke="#D5AFAF" stroke-width="3.70543"/>
<path fill-rule="evenodd" clip-rule="evenodd" d="M62.5914 56.1947H29.1108C25.2889 57.4177 17.278 61.6984 15.8104 69.0366C14.9573 73.3017 14.8893 84.1775 15.102 95H24.9831V76.3748C26.359 75.6104 29.1108 74.7237 29.1108 77.292V95H64.4259V77.292C65.3432 75.7632 67.6364 73.6229 69.471 77.292C71.3055 80.9611 75.1275 86.4648 76.8092 88.758H105.703C106.773 88.1464 109.097 86.373 109.831 84.1716C109.935 83.8596 109.989 83.5749 110.007 83.3138C111.016 85.6357 109.944 79.9883 109.831 80.0438C108.914 79.2795 106.804 77.8424 105.703 78.2093C104.603 78.5762 90.5683 78.3622 83.6887 78.2093C78.7966 70.8711 67.7281 56.1947 62.5914 56.1947Z" fill="url(#paint4_linear_35_69)" fill-opacity="0.63"/>
<path d="M29.1108 56.1947V54.8052H28.8939L28.6874 54.8713L29.1108 56.1947ZM15.8104 69.0366L14.4478 68.764L15.8104 69.0366ZM15.102 95L13.7128 95.0273L13.7395 96.3895H15.102V95ZM24.9831 95V96.3895H26.3727V95H24.9831ZM24.9831 76.3748L24.3083 75.1601L23.5936 75.5571V76.3748H24.9831ZM29.1108 95H27.7213V96.3895H29.1108V95ZM64.4259 95V96.3895H65.8155V95H64.4259ZM64.4259 77.292L63.2344 76.5771L63.0364 76.9071V77.292H64.4259ZM69.471 77.292L70.7138 76.6706H70.7138L69.471 77.292ZM76.8092 88.758L75.6886 89.5797L76.105 90.1475H76.8092V88.758ZM105.703 88.758V90.1475H106.072L106.393 89.9644L105.703 88.758ZM109.831 84.1716L111.149 84.611V84.611L109.831 84.1716ZM110.007 83.3138L111.282 82.7601L108.621 83.2178L110.007 83.3138ZM109.831 80.0438L108.942 81.1113L109.636 81.6897L110.446 81.29L109.831 80.0438ZM105.703 78.2093L105.264 76.8911V76.8911L105.703 78.2093ZM83.6887 78.2093L82.5326 78.9801L82.9341 79.5824L83.6579 79.5985L83.6887 78.2093ZM109.514 81.4298L110.745 80.7858V80.7858L109.514 81.4298ZM29.1108 57.5842H62.5914V54.8052H29.1108V57.5842ZM17.1729 69.3091C17.8199 66.0743 19.929 63.4296 22.448 61.4057C24.9645 59.3838 27.7671 58.0837 29.5343 57.5181L28.6874 54.8713C26.6327 55.5288 23.5188 56.9805 20.7074 59.2392C17.8986 61.4959 15.2685 64.6606 14.4478 68.764L17.1729 69.3091ZM16.4913 94.9727C16.3851 89.5708 16.3493 84.167 16.4458 79.5885C16.543 74.9726 16.7738 71.3045 17.1729 69.3091L14.4478 68.764C13.9939 71.0337 13.7641 74.9361 13.6673 79.53C13.5697 84.1613 13.6062 89.6067 13.7128 95.0273L16.4913 94.9727ZM15.102 96.3895H24.9831V93.6105H15.102V96.3895ZM23.5936 76.3748V95H26.3727V76.3748H23.5936ZM30.5004 77.292C30.5004 76.4095 30.2596 75.5627 29.6175 74.9513C28.9896 74.3534 28.2028 74.1969 27.5691 74.1941C26.3544 74.1887 25.0709 74.7364 24.3083 75.1601L25.6579 77.5894C25.936 77.4349 26.2874 77.2728 26.648 77.1526C27.0187 77.0291 27.3328 76.9721 27.5568 76.9731C27.783 76.9741 27.7702 77.0297 27.7012 76.964C27.6181 76.8849 27.7213 76.8903 27.7213 77.292H30.5004ZM30.5004 95V77.292H27.7213V95H30.5004ZM29.1108 96.3895H64.4259V93.6105H29.1108V96.3895ZM63.0364 77.292V95H65.8155V77.292H63.0364ZM70.7138 76.6706C70.1892 75.6215 69.5489 74.8138 68.7509 74.3366C67.9044 73.8304 67.0133 73.7761 66.2154 74.0089C65.466 74.2274 64.8463 74.6812 64.3801 75.1295C63.9053 75.5861 63.5163 76.1074 63.2344 76.5771L65.6175 78.0069C65.7943 77.7123 66.0359 77.3928 66.3063 77.1327C66.5854 76.8643 66.8257 76.7257 66.9935 76.6768C67.1129 76.6419 67.1964 76.6451 67.3245 76.7217C67.5011 76.8273 67.8354 77.128 68.2281 77.9134L70.7138 76.6706ZM77.9297 87.9362C76.2502 85.646 72.4909 80.2249 70.7138 76.6706L68.2281 77.9134C70.1201 81.6974 74.0048 87.2835 75.6886 89.5797L77.9297 87.9362ZM105.703 87.3684H76.8092V90.1475H105.703V87.3684ZM108.513 83.7322C108.243 84.543 107.644 85.3552 106.918 86.0714C106.2 86.7792 105.448 87.3033 105.014 87.5515L106.393 89.9644C107.029 89.6011 107.974 88.9327 108.869 88.0506C109.755 87.1769 110.686 86.0016 111.149 84.611L108.513 83.7322ZM108.621 83.2178C108.612 83.3551 108.582 83.5247 108.513 83.7322L111.149 84.611C111.288 84.1946 111.367 83.7946 111.394 83.4098L108.621 83.2178ZM110.446 81.29C110.13 81.4456 109.788 81.4666 109.488 81.3893C109.22 81.3205 109.038 81.1888 108.942 81.1084C108.763 80.9573 108.67 80.7984 108.647 80.7608C108.611 80.6994 108.589 80.6498 108.579 80.6277C108.568 80.602 108.561 80.5828 108.558 80.5738C108.549 80.5495 108.552 80.556 108.569 80.618C108.598 80.728 108.639 80.9076 108.687 81.14C108.783 81.6005 108.89 82.1986 108.964 82.7215C109 82.984 109.026 83.2111 109.039 83.3845C109.045 83.4714 109.047 83.5314 109.047 83.5679C109.047 83.6173 109.043 83.5842 109.058 83.5077C109.065 83.4706 109.087 83.3667 109.149 83.2379C109.203 83.1235 109.357 82.8454 109.702 82.6543C110.11 82.4277 110.535 82.458 110.835 82.5727C111.085 82.6679 111.233 82.8113 111.283 82.8617C111.387 82.9674 111.421 83.0453 111.39 82.9881C111.371 82.9539 111.335 82.8829 111.282 82.7601L108.733 83.8675C108.806 84.0349 108.88 84.1919 108.956 84.3301C109.02 84.4452 109.134 84.64 109.305 84.8136C109.388 84.898 109.567 85.0631 109.843 85.1686C110.17 85.2936 110.62 85.3229 111.049 85.0847C111.415 84.8819 111.587 84.5817 111.656 84.4354C111.733 84.2746 111.768 84.1291 111.785 84.0415C111.844 83.7377 111.826 83.3955 111.811 83.1853C111.792 82.9256 111.757 82.6308 111.716 82.336C111.633 81.7442 111.514 81.086 111.409 80.5758C111.356 80.3228 111.303 80.0884 111.256 79.9093C111.234 79.8267 111.204 79.7199 111.168 79.6201C111.154 79.5834 111.113 79.4715 111.041 79.3491C111.014 79.3025 110.916 79.1372 110.732 78.9823C110.551 78.8301 109.946 78.4376 109.216 78.7977L110.446 81.29ZM106.143 79.5275C106.052 79.5576 106.085 79.514 106.335 79.5788C106.562 79.6376 106.854 79.7564 107.191 79.9329C107.863 80.2854 108.538 80.775 108.942 81.1113L110.721 78.9764C110.207 78.5483 109.369 77.9372 108.481 77.4718C108.038 77.2393 107.539 77.0198 107.032 76.8886C106.548 76.7632 105.905 76.6775 105.264 76.8911L106.143 79.5275ZM83.6579 79.5985C87.1021 79.675 92.3387 79.7669 96.8548 79.7937C99.1116 79.8071 101.197 79.8043 102.792 79.7749C103.588 79.7602 104.274 79.7386 104.803 79.7081C105.067 79.693 105.305 79.6748 105.506 79.6523C105.67 79.6337 105.921 79.6015 106.143 79.5275L105.264 76.8911C105.348 76.863 105.36 76.8721 105.195 76.8906C105.065 76.9052 104.883 76.9199 104.644 76.9337C104.168 76.9611 103.523 76.9818 102.741 76.9963C101.18 77.0251 99.1207 77.0281 96.8713 77.0147C92.3753 76.988 87.1549 76.8964 83.7196 76.8201L83.6579 79.5985ZM62.5914 57.5842C62.9218 57.5842 63.4283 57.7092 64.1338 58.0739C64.8249 58.4313 65.6167 58.9716 66.4913 59.6814C68.2405 61.1012 70.1996 63.0993 72.1869 65.3662C76.1557 69.8933 80.1088 75.3445 82.5326 78.9801L84.8449 77.4385C82.3765 73.7359 78.3493 68.1798 74.2766 63.5342C72.2432 61.2147 70.1663 59.085 68.2426 57.5237C67.2808 56.743 66.3269 56.0793 65.4103 55.6054C64.5082 55.1389 63.5452 54.8052 62.5914 54.8052V57.5842ZM111.394 83.4098C111.48 82.1565 110.993 81.259 110.745 80.7858L108.283 82.0737C108.519 82.526 108.649 82.81 108.621 83.2178L111.394 83.4098ZM110.745 80.7858C110.658 80.6187 110.626 80.5537 110.609 80.511C110.593 80.471 110.644 80.576 110.632 80.7587C110.625 80.8578 110.601 80.963 110.557 81.0646C110.513 81.1643 110.46 81.236 110.419 81.2812C110.348 81.3595 110.32 81.3522 110.446 81.29L109.216 78.7977C108.672 79.0663 107.924 79.5883 107.859 80.5756C107.832 80.9795 107.94 81.3171 108.023 81.5289C108.105 81.7379 108.215 81.9437 108.283 82.0737L110.745 80.7858Z" fill="#D5B7B7" fill-opacity="0.75"/>
<defs>
<linearGradient id="paint0_linear_35_69" x1="18.5548" y1="9.53301e-08" x2="33.1737" y2="60.1625" gradientUnits="userSpaceOnUse">
<stop stop-color="#DF2323"/>
<stop offset="1" stop-color="#DB7D27" stop-opacity="0"/>
</linearGradient>
<linearGradient id="paint1_linear_35_69" x1="190.524" y1="37.1096" x2="94.939" y2="268.763" gradientUnits="userSpaceOnUse">
<stop stop-color="#E63B3B"/>
<stop offset="1" stop-color="#E08E12" stop-opacity="0"/>
</linearGradient>
<linearGradient id="paint2_linear_35_69" x1="68.5" y1="96" x2="55.9621" y2="228.26" gradientUnits="userSpaceOnUse">
<stop stop-color="#D86161"/>
<stop offset="1" stop-color="#F7B712" stop-opacity="0"/>
</linearGradient>
<linearGradient id="paint3_linear_35_69" x1="42.9769" y1="14" x2="54.9015" y2="63.0742" gradientUnits="userSpaceOnUse">
<stop stop-color="#DF2323"/>
<stop offset="1" stop-color="#DB7D27" stop-opacity="0"/>
</linearGradient>
<linearGradient id="paint4_linear_35_69" x1="62.6983" y1="44.2701" x2="140.667" y2="233.229" gradientUnits="userSpaceOnUse">
<stop stop-color="#E63B3B"/>
<stop offset="1" stop-color="#E08E12" stop-opacity="0"/>
</linearGradient>
</defs>
</svg>
