<svg width="193" height="171" viewBox="0 0 193 171" fill="none" xmlns="http://www.w3.org/2000/svg">
<circle cx="58.35" cy="58.35" r="58.35" fill="url(#paint0_linear_38_21)"/>
<circle cx="58.35" cy="58.35" r="56.5421" stroke="#EED0D0" stroke-opacity="0.67" stroke-width="3.61567"/>
<path d="M56.8278 31.4582V56.8277" stroke="white" stroke-opacity="0.75" stroke-width="3.20782" stroke-linecap="round"/>
<path d="M81.1826 78.1381L56.8278 56.8277" stroke="white" stroke-opacity="0.75" stroke-width="3.20782" stroke-linecap="round"/>
<mask id="path-5-inside-1_38_21" fill="white">
<path fill-rule="evenodd" clip-rule="evenodd" d="M86.1642 79.5821C88.5877 79.5821 90.5523 77.6175 90.5523 75.194C90.5523 74.3948 90.3386 73.6454 89.9652 73H100.647C100.273 73.6454 100.06 74.3948 100.06 75.194C100.06 77.6175 102.024 79.5821 104.448 79.5821C106.871 79.5821 108.836 77.6175 108.836 75.194C108.836 74.3948 108.622 73.6454 108.249 73H120.393C120.02 73.6454 119.806 74.3948 119.806 75.194C119.806 77.6175 121.771 79.5821 124.194 79.5821C126.618 79.5821 128.582 77.6175 128.582 75.194C128.582 74.3948 128.368 73.6454 127.995 73H138.677C138.303 73.6454 138.09 74.3948 138.09 75.194C138.09 77.6175 140.054 79.5821 142.478 79.5821C144.901 79.5821 146.866 77.6175 146.866 75.194C146.866 74.3948 146.652 73.6454 146.279 73H156.96C156.587 73.6454 156.373 74.3948 156.373 75.194C156.373 77.6175 158.338 79.5821 160.761 79.5821C163.185 79.5821 165.149 77.6175 165.149 75.194C165.149 74.3948 164.936 73.6454 164.562 73H175.244C174.87 73.6454 174.657 74.3948 174.657 75.194C174.657 77.6175 176.621 79.5821 179.045 79.5821C181.468 79.5821 183.433 77.6175 183.433 75.194C183.433 74.3948 183.219 73.6454 182.846 73H187.821C190.244 73 192.209 74.9646 192.209 77.3881V166.612C192.209 169.035 190.244 171 187.821 171H77.3881C74.9646 171 73 169.035 73 166.612V77.3881C73 74.9646 74.9646 73 77.3881 73H82.3632C81.9898 73.6454 81.7761 74.3948 81.7761 75.194C81.7761 77.6175 83.7408 79.5821 86.1642 79.5821ZM105.664 109.567L89.8209 109.567L89.8209 125.411L105.664 125.411L105.664 109.567ZM89.8209 107.373C88.6092 107.373 87.6269 108.355 87.6269 109.567V125.411C87.6269 126.622 88.6092 127.605 89.8209 127.605H105.664C106.876 127.605 107.858 126.622 107.858 125.411V109.567C107.858 108.355 106.876 107.373 105.664 107.373H89.8209ZM142.449 109.567L126.605 109.567L126.605 125.411L142.449 125.411L142.449 109.567ZM126.605 107.373C125.394 107.373 124.411 108.355 124.411 109.567V125.411C124.411 126.622 125.394 127.605 126.605 127.605H142.449C143.66 127.605 144.643 126.622 144.643 125.411V109.567C144.643 108.355 143.66 107.373 142.449 107.373H126.605ZM178.313 109.567L162.47 109.567V125.411L178.313 125.411V109.567ZM162.47 107.373C161.258 107.373 160.276 108.355 160.276 109.567V125.411C160.276 126.622 161.258 127.605 162.47 127.605H178.313C179.525 127.605 180.507 126.622 180.507 125.411V109.567C180.507 108.355 179.525 107.373 178.313 107.373H162.47ZM105.664 138.09H89.8209L89.8209 153.933H105.664L105.664 138.09ZM89.8209 135.896C88.6092 135.896 87.6269 136.878 87.6269 138.09V153.933C87.6269 155.145 88.6092 156.127 89.8209 156.127H105.664C106.876 156.127 107.858 155.145 107.858 153.933V138.09C107.858 136.878 106.876 135.896 105.664 135.896H89.8209ZM142.449 138.09H126.605V153.933H142.449V138.09ZM126.605 135.896C125.394 135.896 124.411 136.878 124.411 138.09V153.933C124.411 155.145 125.394 156.127 126.605 156.127H142.449C143.66 156.127 144.643 155.145 144.643 153.933V138.09C144.643 136.878 143.66 135.896 142.449 135.896H126.605ZM178.313 138.09H162.47L162.47 153.933H178.313L178.313 138.09ZM162.47 135.896C161.258 135.896 160.276 136.878 160.276 138.09V153.933C160.276 155.145 161.258 156.127 162.47 156.127H178.313C179.525 156.127 180.507 155.145 180.507 153.933V138.09C180.507 136.878 179.525 135.896 178.313 135.896H162.47Z"/>
</mask>
<path fill-rule="evenodd" clip-rule="evenodd" d="M86.1642 79.5821C88.5877 79.5821 90.5523 77.6175 90.5523 75.194C90.5523 74.3948 90.3386 73.6454 89.9652 73H100.647C100.273 73.6454 100.06 74.3948 100.06 75.194C100.06 77.6175 102.024 79.5821 104.448 79.5821C106.871 79.5821 108.836 77.6175 108.836 75.194C108.836 74.3948 108.622 73.6454 108.249 73H120.393C120.02 73.6454 119.806 74.3948 119.806 75.194C119.806 77.6175 121.771 79.5821 124.194 79.5821C126.618 79.5821 128.582 77.6175 128.582 75.194C128.582 74.3948 128.368 73.6454 127.995 73H138.677C138.303 73.6454 138.09 74.3948 138.09 75.194C138.09 77.6175 140.054 79.5821 142.478 79.5821C144.901 79.5821 146.866 77.6175 146.866 75.194C146.866 74.3948 146.652 73.6454 146.279 73H156.96C156.587 73.6454 156.373 74.3948 156.373 75.194C156.373 77.6175 158.338 79.5821 160.761 79.5821C163.185 79.5821 165.149 77.6175 165.149 75.194C165.149 74.3948 164.936 73.6454 164.562 73H175.244C174.87 73.6454 174.657 74.3948 174.657 75.194C174.657 77.6175 176.621 79.5821 179.045 79.5821C181.468 79.5821 183.433 77.6175 183.433 75.194C183.433 74.3948 183.219 73.6454 182.846 73H187.821C190.244 73 192.209 74.9646 192.209 77.3881V166.612C192.209 169.035 190.244 171 187.821 171H77.3881C74.9646 171 73 169.035 73 166.612V77.3881C73 74.9646 74.9646 73 77.3881 73H82.3632C81.9898 73.6454 81.7761 74.3948 81.7761 75.194C81.7761 77.6175 83.7408 79.5821 86.1642 79.5821ZM105.664 109.567L89.8209 109.567L89.8209 125.411L105.664 125.411L105.664 109.567ZM89.8209 107.373C88.6092 107.373 87.6269 108.355 87.6269 109.567V125.411C87.6269 126.622 88.6092 127.605 89.8209 127.605H105.664C106.876 127.605 107.858 126.622 107.858 125.411V109.567C107.858 108.355 106.876 107.373 105.664 107.373H89.8209ZM142.449 109.567L126.605 109.567L126.605 125.411L142.449 125.411L142.449 109.567ZM126.605 107.373C125.394 107.373 124.411 108.355 124.411 109.567V125.411C124.411 126.622 125.394 127.605 126.605 127.605H142.449C143.66 127.605 144.643 126.622 144.643 125.411V109.567C144.643 108.355 143.66 107.373 142.449 107.373H126.605ZM178.313 109.567L162.47 109.567V125.411L178.313 125.411V109.567ZM162.47 107.373C161.258 107.373 160.276 108.355 160.276 109.567V125.411C160.276 126.622 161.258 127.605 162.47 127.605H178.313C179.525 127.605 180.507 126.622 180.507 125.411V109.567C180.507 108.355 179.525 107.373 178.313 107.373H162.47ZM105.664 138.09H89.8209L89.8209 153.933H105.664L105.664 138.09ZM89.8209 135.896C88.6092 135.896 87.6269 136.878 87.6269 138.09V153.933C87.6269 155.145 88.6092 156.127 89.8209 156.127H105.664C106.876 156.127 107.858 155.145 107.858 153.933V138.09C107.858 136.878 106.876 135.896 105.664 135.896H89.8209ZM142.449 138.09H126.605V153.933H142.449V138.09ZM126.605 135.896C125.394 135.896 124.411 136.878 124.411 138.09V153.933C124.411 155.145 125.394 156.127 126.605 156.127H142.449C143.66 156.127 144.643 155.145 144.643 153.933V138.09C144.643 136.878 143.66 135.896 142.449 135.896H126.605ZM178.313 138.09H162.47L162.47 153.933H178.313L178.313 138.09ZM162.47 135.896C161.258 135.896 160.276 136.878 160.276 138.09V153.933C160.276 155.145 161.258 156.127 162.47 156.127H178.313C179.525 156.127 180.507 155.145 180.507 153.933V138.09C180.507 136.878 179.525 135.896 178.313 135.896H162.47Z" fill="url(#paint1_linear_38_21)"/>
<path d="M89.9652 73V70.806H86.1614L88.0661 74.0986L89.9652 73ZM100.647 73L102.546 74.0986L104.451 70.806H100.647V73ZM108.249 73V70.806H104.445L106.35 74.0986L108.249 73ZM120.393 73L122.292 74.0986L124.197 70.806H120.393V73ZM127.995 73V70.806H124.191L126.096 74.0986L127.995 73ZM138.677 73L140.576 74.0986L142.48 70.806H138.677V73ZM146.279 73V70.806H142.475L144.379 74.0986L146.279 73ZM156.96 73L158.859 74.0986L160.764 70.806H156.96V73ZM164.562 73V70.806H160.758L162.663 74.0986L164.562 73ZM175.244 73L177.143 74.0986L179.048 70.806H175.244V73ZM182.846 73V70.806H179.042L180.947 74.0986L182.846 73ZM82.3632 73L84.2624 74.0986L86.167 70.806H82.3632V73ZM89.8209 109.567V107.373H87.6269V109.567H89.8209ZM105.664 109.567H107.858V107.373H105.664V109.567ZM89.8209 125.411H87.6269V127.605H89.8209V125.411ZM105.664 125.411V127.605H107.858V125.411H105.664ZM126.605 109.567V107.373H124.411V109.567H126.605ZM142.449 109.567H144.643V107.373H142.449V109.567ZM126.605 125.411H124.411V127.605H126.605V125.411ZM142.449 125.411V127.605H144.643V125.411H142.449ZM162.47 109.567V107.373H160.276V109.567H162.47ZM178.313 109.567H180.507V107.373H178.313V109.567ZM162.47 125.411H160.276V127.605H162.47V125.411ZM178.313 125.411V127.605H180.507V125.411H178.313ZM89.8209 138.09V135.896H87.6269V138.09H89.8209ZM105.664 138.09H107.858V135.896H105.664V138.09ZM89.8209 153.933H87.6269V156.127H89.8209V153.933ZM105.664 153.933V156.127H107.858V153.933H105.664ZM126.605 138.09V135.896H124.411V138.09H126.605ZM142.449 138.09H144.643V135.896H142.449V138.09ZM126.605 153.933H124.411V156.127H126.605V153.933ZM142.449 153.933V156.127H144.643V153.933H142.449ZM162.47 138.09V135.896H160.276V138.09H162.47ZM178.313 138.09H180.507V135.896H178.313V138.09ZM162.47 153.933H160.276V156.127H162.47V153.933ZM178.313 153.933V156.127H180.507V153.933H178.313ZM88.3582 75.194C88.3582 76.4058 87.3759 77.3881 86.1642 77.3881V81.7761C89.7994 81.7761 92.7463 78.8292 92.7463 75.194H88.3582ZM88.0661 74.0986C88.2514 74.4191 88.3582 74.7908 88.3582 75.194H92.7463C92.7463 73.9988 92.4257 72.8718 91.8644 71.9014L88.0661 74.0986ZM100.647 70.806H89.9652V75.194H100.647V70.806ZM98.7476 71.9014C98.1863 72.8718 97.8657 73.9988 97.8657 75.194H102.254C102.254 74.7908 102.361 74.4191 102.546 74.0986L98.7476 71.9014ZM97.8657 75.194C97.8657 78.8292 100.813 81.7761 104.448 81.7761V77.3881C103.236 77.3881 102.254 76.4058 102.254 75.194H97.8657ZM104.448 81.7761C108.083 81.7761 111.03 78.8292 111.03 75.194H106.642C106.642 76.4058 105.66 77.3881 104.448 77.3881V81.7761ZM111.03 75.194C111.03 73.9988 110.709 72.8718 110.148 71.9014L106.35 74.0986C106.535 74.4191 106.642 74.7908 106.642 75.194H111.03ZM120.393 70.806H108.249V75.194H120.393V70.806ZM118.494 71.9014C117.933 72.8718 117.612 73.9988 117.612 75.194H122C122 74.7908 122.107 74.4191 122.292 74.0986L118.494 71.9014ZM117.612 75.194C117.612 78.8292 120.559 81.7761 124.194 81.7761V77.3881C122.982 77.3881 122 76.4058 122 75.194H117.612ZM124.194 81.7761C127.829 81.7761 130.776 78.8292 130.776 75.194H126.388C126.388 76.4058 125.406 77.3881 124.194 77.3881V81.7761ZM130.776 75.194C130.776 73.9988 130.456 72.8718 129.894 71.9014L126.096 74.0986C126.281 74.4191 126.388 74.7908 126.388 75.194H130.776ZM138.677 70.806H127.995V75.194H138.677V70.806ZM140.284 75.194C140.284 74.7908 140.39 74.4191 140.576 74.0986L136.777 71.9014C136.216 72.8718 135.896 73.9988 135.896 75.194H140.284ZM142.478 77.3881C141.266 77.3881 140.284 76.4058 140.284 75.194H135.896C135.896 78.8292 138.842 81.7761 142.478 81.7761V77.3881ZM144.672 75.194C144.672 76.4058 143.689 77.3881 142.478 77.3881V81.7761C146.113 81.7761 149.06 78.8292 149.06 75.194H144.672ZM144.379 74.0986C144.565 74.4191 144.672 74.7908 144.672 75.194H149.06C149.06 73.9988 148.739 72.8718 148.178 71.9014L144.379 74.0986ZM156.96 70.806H146.279V75.194H156.96V70.806ZM155.061 71.9014C154.5 72.8718 154.179 73.9988 154.179 75.194H158.567C158.567 74.7908 158.674 74.4191 158.859 74.0986L155.061 71.9014ZM154.179 75.194C154.179 78.8292 157.126 81.7761 160.761 81.7761V77.3881C159.549 77.3881 158.567 76.4058 158.567 75.194H154.179ZM160.761 81.7761C164.396 81.7761 167.343 78.8292 167.343 75.194H162.955C162.955 76.4058 161.973 77.3881 160.761 77.3881V81.7761ZM167.343 75.194C167.343 73.9988 167.023 72.8718 166.461 71.9014L162.663 74.0986C162.848 74.4191 162.955 74.7908 162.955 75.194H167.343ZM175.244 70.806H164.562V75.194H175.244V70.806ZM173.345 71.9014C172.783 72.8718 172.463 73.9988 172.463 75.194H176.851C176.851 74.7908 176.958 74.4191 177.143 74.0986L173.345 71.9014ZM172.463 75.194C172.463 78.8292 175.41 81.7761 179.045 81.7761V77.3881C177.833 77.3881 176.851 76.4058 176.851 75.194H172.463ZM179.045 81.7761C182.68 81.7761 185.627 78.8292 185.627 75.194H181.239C181.239 76.4058 180.257 77.3881 179.045 77.3881V81.7761ZM185.627 75.194C185.627 73.9988 185.306 72.8718 184.745 71.9014L180.947 74.0986C181.132 74.4191 181.239 74.7908 181.239 75.194H185.627ZM187.821 70.806H182.846V75.194H187.821V70.806ZM194.403 77.3881C194.403 73.7529 191.456 70.806 187.821 70.806V75.194C189.033 75.194 190.015 76.1763 190.015 77.3881H194.403ZM194.403 166.612V77.3881H190.015V166.612H194.403ZM187.821 173.194C191.456 173.194 194.403 170.247 194.403 166.612H190.015C190.015 167.824 189.033 168.806 187.821 168.806V173.194ZM77.3881 173.194H187.821V168.806H77.3881V173.194ZM70.806 166.612C70.806 170.247 73.7529 173.194 77.3881 173.194V168.806C76.1763 168.806 75.194 167.824 75.194 166.612H70.806ZM70.806 77.3881V166.612H75.194V77.3881H70.806ZM77.3881 70.806C73.7529 70.806 70.806 73.7529 70.806 77.3881H75.194C75.194 76.1763 76.1763 75.194 77.3881 75.194V70.806ZM82.3632 70.806H77.3881V75.194H82.3632V70.806ZM83.9702 75.194C83.9702 74.7908 84.077 74.4191 84.2624 74.0986L80.464 71.9014C79.9027 72.8718 79.5821 73.9988 79.5821 75.194H83.9702ZM86.1642 77.3881C84.9525 77.3881 83.9702 76.4058 83.9702 75.194H79.5821C79.5821 78.8292 82.529 81.7761 86.1642 81.7761V77.3881ZM89.8209 111.761L105.664 111.761V107.373L89.8209 107.373V111.761ZM92.015 125.411L92.015 109.567H87.6269L87.6269 125.411H92.015ZM105.664 123.216L89.8209 123.216V127.605L105.664 127.605V123.216ZM103.47 109.567L103.47 125.411H107.858L107.858 109.567H103.47ZM89.8209 109.567V109.567V105.179C87.3975 105.179 85.4329 107.144 85.4329 109.567H89.8209ZM89.8209 125.411V109.567H85.4329V125.411H89.8209ZM89.8209 125.411H89.8209H85.4329C85.4329 127.834 87.3975 129.799 89.8209 129.799V125.411ZM105.664 125.411H89.8209V129.799H105.664V125.411ZM105.664 125.411V125.411V129.799C108.088 129.799 110.052 127.834 110.052 125.411H105.664ZM105.664 109.567V125.411H110.052V109.567H105.664ZM105.664 109.567H105.664H110.052C110.052 107.144 108.088 105.179 105.664 105.179V109.567ZM89.8209 109.567H105.664V105.179H89.8209V109.567ZM126.605 111.761L142.449 111.761V107.373L126.605 107.373V111.761ZM128.799 125.411L128.799 109.567H124.411L124.411 125.411H128.799ZM142.449 123.217L126.605 123.217V127.605L142.449 127.605V123.217ZM140.255 109.567L140.255 125.411H144.643L144.643 109.567H140.255ZM126.605 109.567V109.567V105.179C124.182 105.179 122.217 107.144 122.217 109.567H126.605ZM126.605 125.411V109.567H122.217V125.411H126.605ZM126.605 125.411H126.605H122.217C122.217 127.834 124.182 129.799 126.605 129.799V125.411ZM142.449 125.411H126.605V129.799H142.449V125.411ZM142.449 125.411L142.449 125.411V129.799C144.872 129.799 146.837 127.834 146.837 125.411H142.449ZM142.449 109.567V125.411H146.837V109.567H142.449ZM142.449 109.567H142.449H146.837C146.837 107.144 144.872 105.179 142.449 105.179V109.567ZM126.605 109.567H142.449V105.179H126.605V109.567ZM162.47 111.761L178.313 111.761V107.373L162.47 107.373V111.761ZM164.664 125.411V109.567H160.276V125.411H164.664ZM178.313 123.217L162.47 123.217V127.605L178.313 127.605V123.217ZM176.119 109.567V125.411H180.507V109.567H176.119ZM162.47 109.567V109.567V105.179C160.047 105.179 158.082 107.144 158.082 109.567H162.47ZM162.47 125.411V109.567H158.082V125.411H162.47ZM162.47 125.411H158.082C158.082 127.834 160.047 129.799 162.47 129.799V125.411ZM178.313 125.411H162.47V129.799H178.313V125.411ZM178.313 125.411V125.411V129.799C180.737 129.799 182.702 127.834 182.702 125.411H178.313ZM178.313 109.567V125.411H182.702V109.567H178.313ZM178.313 109.567H182.702C182.702 107.144 180.737 105.179 178.313 105.179V109.567ZM162.47 109.567H178.313V105.179H162.47V109.567ZM89.8209 140.284H105.664V135.896H89.8209V140.284ZM92.015 153.933L92.015 138.09H87.6269L87.6269 153.933H92.015ZM105.664 151.739H89.8209V156.127H105.664V151.739ZM103.47 138.09L103.47 153.933H107.858L107.858 138.09H103.47ZM89.8209 138.09V133.702C87.3975 133.702 85.4329 135.666 85.4329 138.09H89.8209ZM89.8209 153.933V138.09H85.4329V153.933H89.8209ZM89.8209 153.933H89.8209H85.4329C85.4329 156.356 87.3975 158.321 89.8209 158.321V153.933ZM105.664 153.933H89.8209V158.321H105.664V153.933ZM105.664 153.933H105.664V158.321C108.088 158.321 110.052 156.356 110.052 153.933H105.664ZM105.664 138.09V153.933H110.052V138.09H105.664ZM105.664 138.09H105.664H110.052C110.052 135.666 108.088 133.702 105.664 133.702V138.09ZM89.8209 138.09H105.664V133.702H89.8209V138.09ZM126.605 140.284H142.449V135.896H126.605V140.284ZM128.799 153.933V138.09H124.411V153.933H128.799ZM142.449 151.739H126.605V156.127H142.449V151.739ZM140.255 138.09V153.933H144.643V138.09H140.255ZM126.605 138.09V133.702C124.182 133.702 122.217 135.666 122.217 138.09H126.605ZM126.605 153.933V138.09H122.217V153.933H126.605ZM126.605 153.933H122.217C122.217 156.356 124.182 158.321 126.605 158.321V153.933ZM142.449 153.933H126.605V158.321H142.449V153.933ZM142.449 153.933V158.321C144.872 158.321 146.837 156.356 146.837 153.933H142.449ZM142.449 138.09V153.933H146.837V138.09H142.449ZM142.449 138.09H146.837C146.837 135.666 144.872 133.702 142.449 133.702V138.09ZM126.605 138.09H142.449V133.702H126.605V138.09ZM162.47 140.284H178.313V135.896H162.47V140.284ZM164.664 153.933L164.664 138.09H160.276L160.276 153.933H164.664ZM178.313 151.739H162.47V156.127H178.313V151.739ZM176.119 138.09L176.119 153.933H180.507L180.507 138.09H176.119ZM162.47 138.09V133.702C160.047 133.702 158.082 135.666 158.082 138.09H162.47ZM162.47 153.933V138.09H158.082V153.933H162.47ZM162.47 153.933H162.47H158.082C158.082 156.356 160.047 158.321 162.47 158.321V153.933ZM178.313 153.933H162.47V158.321H178.313V153.933ZM178.313 153.933V158.321C180.737 158.321 182.702 156.356 182.702 153.933H178.313ZM178.313 138.09V153.933H182.702V138.09H178.313ZM178.313 138.09H178.313H182.702C182.702 135.666 180.737 133.702 178.313 133.702V138.09ZM162.47 138.09H178.313V133.702H162.47V138.09Z" fill="#EFE9E9" fill-opacity="0.59" mask="url(#path-5-inside-1_38_21)"/>
<defs>
<linearGradient id="paint0_linear_38_21" x1="-21.8178" y1="-9.13304" x2="148.666" y2="128.37" gradientUnits="userSpaceOnUse">
<stop stop-color="#EC5939"/>
<stop offset="0.88373" stop-color="#E89B04" stop-opacity="0.29"/>
</linearGradient>
<linearGradient id="paint1_linear_38_21" x1="132.604" y1="73" x2="158.201" y2="218.172" gradientUnits="userSpaceOnUse">
<stop stop-color="#DA2828"/>
<stop offset="1" stop-color="#D8761B" stop-opacity="0"/>
</linearGradient>
</defs>
</svg>
