<svg width="159" height="158" viewBox="0 0 159 158" fill="none" xmlns="http://www.w3.org/2000/svg">
<g filter="url(#filter0_b_41_20)">
<path fill-rule="evenodd" clip-rule="evenodd" d="M46.4403 96.3494C70.603 100.841 93.8322 84.895 98.3241 60.7324C102.816 36.5697 86.8698 13.3405 62.7071 8.84859C38.5444 4.35665 15.3152 20.3029 10.8233 44.4656C9.23183 53.0263 10.2059 61.4699 13.2019 69.0045L2.53592 100.138L36.8257 93.4172C39.8479 94.7281 43.0639 95.7217 46.4403 96.3494Z" fill="url(#paint0_linear_41_20)" fill-opacity="0.46"/>
<g filter="url(#filter1_d_41_20)">
<mask id="path-2-inside-1_41_20" fill="white">
<path fill-rule="evenodd" clip-rule="evenodd" d="M137.357 81.0317C134.866 53.1895 110.276 32.6385 82.4336 35.1298C54.5913 37.6211 34.0404 62.2113 36.5317 90.0535C39.023 117.896 63.6131 138.447 91.4553 135.955C101.32 135.073 110.269 131.416 117.602 125.824L154.973 127.956L137.095 92.4616C137.604 88.7495 137.705 84.9223 137.357 81.0317Z"/>
</mask>
<path fill-rule="evenodd" clip-rule="evenodd" d="M137.357 81.0317C134.866 53.1895 110.276 32.6385 82.4336 35.1298C54.5913 37.6211 34.0404 62.2113 36.5317 90.0535C39.023 117.896 63.6131 138.447 91.4553 135.955C101.32 135.073 110.269 131.416 117.602 125.824L154.973 127.956L137.095 92.4616C137.604 88.7495 137.705 84.9223 137.357 81.0317Z" fill="url(#paint1_linear_41_20)" fill-opacity="0.46" shape-rendering="crispEdges"/>
<path d="M117.602 125.824L117.773 122.829L116.665 122.765L115.783 123.438L117.602 125.824ZM154.973 127.956L154.802 130.952L159.99 131.248L157.652 126.607L154.973 127.956ZM137.095 92.4616L134.123 92.0543L133.996 92.9783L134.415 93.8112L137.095 92.4616ZM82.7009 38.1179C108.893 35.7743 132.026 55.1071 134.369 81.2991L140.345 80.7644C137.706 51.2719 111.659 29.5028 82.1662 32.1418L82.7009 38.1179ZM39.5197 89.7861C37.1761 63.5942 56.509 40.4615 82.7009 38.1179L82.1662 32.1418C52.6737 34.7807 30.9046 60.8284 33.5436 90.3209L39.5197 89.7861ZM91.188 132.967C64.996 135.311 41.8634 115.978 39.5197 89.7861L33.5436 90.3209C36.1826 119.813 62.2302 141.582 91.7227 138.943L91.188 132.967ZM115.783 123.438C108.887 128.698 100.472 132.137 91.188 132.967L91.7227 138.943C102.167 138.009 111.651 134.135 119.421 128.209L115.783 123.438ZM155.144 124.961L117.773 122.829L117.431 128.819L154.802 130.952L155.144 124.961ZM134.415 93.8112L152.294 129.306L157.652 126.607L139.774 91.1121L134.415 93.8112ZM134.369 81.2991C134.697 84.9634 134.601 88.5641 134.123 92.0543L140.067 92.869C140.606 88.9348 140.714 84.8813 140.345 80.7644L134.369 81.2991Z" fill="#DED4D4" fill-opacity="0.53" mask="url(#path-2-inside-1_41_20)"/>
</g>
<mask id="path-4-outside-2_41_20" maskUnits="userSpaceOnUse" x="69.2755" y="62.2348" width="36.8473" height="55.7771" fill="black">
<rect fill="white" x="69.2755" y="62.2348" width="36.8473" height="55.7771"/>
<path d="M84.6063 100.871L84.5806 100.6C84.3384 97.7158 84.4233 95.3945 84.8353 93.6358C85.2473 91.8771 85.9313 90.4198 86.8874 89.2641C87.8434 88.1084 89.0185 87.0156 90.4126 85.9859C91.2512 85.3587 91.9901 84.642 92.6291 83.8358C93.2668 83.0146 93.7429 82.0945 94.0574 81.0755C94.3871 80.0551 94.4956 78.949 94.3829 77.7574C94.2431 76.2791 93.7749 75.0298 92.9784 74.0093C92.1818 72.9889 91.1749 72.2394 89.9578 71.761C88.7407 71.2825 87.4232 71.1103 86.0053 71.2444C84.7684 71.3614 83.601 71.7305 82.5031 72.3517C81.4052 72.973 80.5236 73.8706 79.8584 75.0445C79.1933 76.2184 78.8845 77.701 78.9321 79.4923L73.2303 80.0315C73.1085 77.4558 73.5647 75.1983 74.5988 73.259C75.648 71.3182 77.1226 69.771 79.0224 68.6174C80.9373 67.4623 83.1166 66.7692 85.5603 66.5381C88.2151 66.2871 90.5729 66.5968 92.6337 67.4673C94.7096 68.3363 96.37 69.6403 97.615 71.3793C98.8751 73.1169 99.6164 75.1623 99.8389 77.5154C99.9958 79.1747 99.8813 80.6998 99.4954 82.0908C99.1245 83.4804 98.5139 84.748 97.6634 85.8938C96.828 87.0381 95.7852 88.0803 94.5348 89.0204C93.2858 89.9755 92.3051 90.951 91.5926 91.9467C90.8788 92.9274 90.4 94.0608 90.1564 95.347C89.9127 96.6332 89.8643 98.213 90.011 100.086L90.0366 100.358L84.6063 100.871ZM88.7691 113.992C87.6529 114.098 86.6572 113.789 85.7822 113.065C84.9071 112.341 84.4168 111.421 84.3112 110.305C84.2057 109.188 84.5148 108.193 85.2387 107.318C85.9626 106.443 86.8826 105.952 87.9989 105.847C89.1151 105.741 90.1107 106.05 90.9858 106.774C91.8609 107.498 92.3512 108.418 92.4567 109.534C92.5266 110.274 92.4022 110.97 92.0836 111.624C91.7801 112.277 91.3369 112.821 90.7541 113.257C90.185 113.676 89.5233 113.921 88.7691 113.992Z"/>
</mask>
<path d="M84.6063 100.871L84.5806 100.6C84.3384 97.7158 84.4233 95.3945 84.8353 93.6358C85.2473 91.8771 85.9313 90.4198 86.8874 89.2641C87.8434 88.1084 89.0185 87.0156 90.4126 85.9859C91.2512 85.3587 91.9901 84.642 92.6291 83.8358C93.2668 83.0146 93.7429 82.0945 94.0574 81.0755C94.3871 80.0551 94.4956 78.949 94.3829 77.7574C94.2431 76.2791 93.7749 75.0298 92.9784 74.0093C92.1818 72.9889 91.1749 72.2394 89.9578 71.761C88.7407 71.2825 87.4232 71.1103 86.0053 71.2444C84.7684 71.3614 83.601 71.7305 82.5031 72.3517C81.4052 72.973 80.5236 73.8706 79.8584 75.0445C79.1933 76.2184 78.8845 77.701 78.9321 79.4923L73.2303 80.0315C73.1085 77.4558 73.5647 75.1983 74.5988 73.259C75.648 71.3182 77.1226 69.771 79.0224 68.6174C80.9373 67.4623 83.1166 66.7692 85.5603 66.5381C88.2151 66.2871 90.5729 66.5968 92.6337 67.4673C94.7096 68.3363 96.37 69.6403 97.615 71.3793C98.8751 73.1169 99.6164 75.1623 99.8389 77.5154C99.9958 79.1747 99.8813 80.6998 99.4954 82.0908C99.1245 83.4804 98.5139 84.748 97.6634 85.8938C96.828 87.0381 95.7852 88.0803 94.5348 89.0204C93.2858 89.9755 92.3051 90.951 91.5926 91.9467C90.8788 92.9274 90.4 94.0608 90.1564 95.347C89.9127 96.6332 89.8643 98.213 90.011 100.086L90.0366 100.358L84.6063 100.871ZM88.7691 113.992C87.6529 114.098 86.6572 113.789 85.7822 113.065C84.9071 112.341 84.4168 111.421 84.3112 110.305C84.2057 109.188 84.5148 108.193 85.2387 107.318C85.9626 106.443 86.8826 105.952 87.9989 105.847C89.1151 105.741 90.1107 106.05 90.9858 106.774C91.8609 107.498 92.3512 108.418 92.4567 109.534C92.5266 110.274 92.4022 110.97 92.0836 111.624C91.7801 112.277 91.3369 112.821 90.7541 113.257C90.185 113.676 89.5233 113.921 88.7691 113.992Z" fill="white"/>
<path d="M84.6063 100.871L82.6152 101.06L82.8035 103.051L84.7946 102.862L84.6063 100.871ZM84.5806 100.6L82.5877 100.767L82.5885 100.778L82.5895 100.788L84.5806 100.6ZM84.8353 93.6358L82.888 93.1796L84.8353 93.6358ZM86.8874 89.2641L88.4285 90.5389L88.4285 90.5389L86.8874 89.2641ZM90.4126 85.9859L91.6009 87.5946L91.6104 87.5875L90.4126 85.9859ZM92.6291 83.8358L94.1964 85.0783L94.2027 85.0704L94.2089 85.0624L92.6291 83.8358ZM94.0574 81.0755L92.1543 80.4607L92.1503 80.4731L92.1464 80.4855L94.0574 81.0755ZM82.5031 72.3517L81.5181 70.6111L81.5181 70.6111L82.5031 72.3517ZM79.8584 75.0445L81.5985 76.0305L81.5985 76.0305L79.8584 75.0445ZM78.9321 79.4923L79.1204 81.4835L80.9811 81.3075L80.9314 79.4392L78.9321 79.4923ZM73.2303 80.0315L71.2325 80.126L71.3316 82.22L73.4186 82.0226L73.2303 80.0315ZM74.5988 73.259L72.8394 72.3078L72.8341 72.3179L74.5988 73.259ZM79.0224 68.6174L77.9894 66.9048L77.9843 66.9079L79.0224 68.6174ZM92.6337 67.4673L91.8555 69.3097L91.8613 69.3121L92.6337 67.4673ZM97.615 71.3793L95.9888 72.5436L95.9959 72.5535L97.615 71.3793ZM99.4954 82.0908L97.5682 81.5561L97.5655 81.5656L97.563 81.5751L99.4954 82.0908ZM97.6634 85.8938L96.0575 84.7017L96.0527 84.7081L96.048 84.7145L97.6634 85.8938ZM94.5348 89.0204L93.3329 87.4218L93.3263 87.4267L93.3198 87.4317L94.5348 89.0204ZM91.5926 91.9467L93.2096 93.1238L93.2144 93.1172L93.2192 93.1105L91.5926 91.9467ZM90.011 100.086L88.0171 100.242L88.0183 100.259L88.0198 100.275L90.011 100.086ZM90.0366 100.358L90.2249 102.349L92.216 102.161L92.0278 100.17L90.0366 100.358ZM85.7822 113.065L87.057 111.524L87.057 111.524L85.7822 113.065ZM85.2387 107.318L86.7798 108.592L86.7798 108.592L85.2387 107.318ZM92.0836 111.624L90.2856 110.748L90.2777 110.765L90.2701 110.781L92.0836 111.624ZM90.7541 113.257L91.94 114.867L91.9457 114.863L91.9515 114.859L90.7541 113.257ZM86.5974 100.683L86.5718 100.412L82.5895 100.788L82.6152 101.06L86.5974 100.683ZM86.5736 100.432C86.3397 97.6475 86.4383 95.5614 86.7826 94.092L82.888 93.1796C82.4082 95.2276 82.3371 97.7841 82.5877 100.767L86.5736 100.432ZM86.7826 94.092C87.1384 92.5732 87.7054 91.413 88.4285 90.5389L85.3463 87.9893C84.1573 89.4267 83.3562 91.181 82.888 93.1796L86.7826 94.092ZM88.4285 90.5389C89.2663 89.526 90.3178 88.5424 91.6009 87.5946L89.2243 84.3771C87.7193 85.4889 86.4205 86.6907 85.3463 87.9893L88.4285 90.5389ZM91.6104 87.5875C92.5847 86.8589 93.4483 86.022 94.1964 85.0783L91.0619 82.5934C90.5319 83.262 89.9178 83.8585 89.2148 84.3842L91.6104 87.5875ZM94.2089 85.0624C94.9982 84.0457 95.5846 82.9088 95.9685 81.6654L92.1464 80.4855C91.9011 81.2801 91.5353 81.9834 91.0494 82.6093L94.2089 85.0624ZM95.9606 81.6903C96.3831 80.3824 96.5093 79.0001 96.374 77.5691L92.3918 77.9457C92.4818 78.898 92.3911 79.7277 92.1543 80.4607L95.9606 81.6903ZM96.374 77.5691C96.2037 75.7682 95.6193 74.1422 94.5549 72.7787L91.4018 75.24C91.9306 75.9173 92.2825 76.7901 92.3918 77.9457L96.374 77.5691ZM94.5549 72.7787C93.5358 71.4732 92.236 70.5075 90.6895 69.8996L89.2261 73.6223C90.1139 73.9713 90.8277 74.5045 91.4018 75.24L94.5549 72.7787ZM90.6895 69.8996C89.1548 69.2963 87.5191 69.0923 85.817 69.2533L86.1936 73.2355C87.3273 73.1283 88.3266 73.2687 89.2261 73.6223L90.6895 69.8996ZM85.817 69.2533C84.2955 69.3971 82.8571 69.8534 81.5181 70.6111L83.488 74.0924C84.3448 73.6075 85.2413 73.3256 86.1936 73.2355L85.817 69.2533ZM81.5181 70.6111C80.0827 71.4233 78.9493 72.5921 78.1184 74.0585L81.5985 76.0305C82.0979 75.1491 82.7276 74.5227 83.488 74.0924L81.5181 70.6111ZM78.1184 74.0585C77.2243 75.6364 76.8786 77.5066 76.9328 79.5455L80.9314 79.4392C80.8904 77.8954 81.1623 76.8004 81.5985 76.0305L78.1184 74.0585ZM78.7439 77.5012L73.042 78.0404L73.4186 82.0226L79.1204 81.4835L78.7439 77.5012ZM75.2281 79.937C75.1203 77.6581 75.5264 75.77 76.3636 74.2L72.8341 72.3179C71.603 74.6265 71.0967 77.2534 71.2325 80.126L75.2281 79.937ZM76.3582 74.2101C77.2372 72.5842 78.4617 71.2977 80.0605 70.3269L77.9843 66.9079C75.7834 68.2444 74.0589 70.0523 72.8395 72.3078L76.3582 74.2101ZM80.0554 70.3299C81.689 69.3446 83.5742 68.7348 85.7485 68.5292L85.372 64.547C82.659 64.8035 80.1857 65.58 77.9894 66.9048L80.0554 70.3299ZM85.7485 68.5292C88.1369 68.3034 90.1531 68.5906 91.8555 69.3096L93.4119 65.6249C90.9927 64.603 88.2932 64.2708 85.372 64.547L85.7485 68.5292ZM91.8613 69.3121C93.6137 70.0457 94.9713 71.1223 95.9888 72.5436L99.2412 70.2151C97.7687 68.1583 95.8054 66.6269 93.406 65.6224L91.8613 69.3121ZM95.9959 72.5535C97.0253 73.9729 97.6554 75.6694 97.8478 77.7037L101.83 77.3271C101.577 74.6551 100.725 72.2609 99.2341 70.2052L95.9959 72.5535ZM97.8478 77.7037C97.9852 79.1571 97.8796 80.4335 97.5682 81.5561L101.423 82.6255C101.883 80.9661 102.006 79.1922 101.83 77.3271L97.8478 77.7037ZM97.563 81.5751C97.2567 82.7226 96.7562 83.7604 96.0575 84.7017L99.2694 87.0858C100.272 85.7356 100.992 84.2381 101.428 82.6065L97.563 81.5751ZM96.048 84.7145C95.3405 85.6838 94.4418 86.5881 93.3329 87.4218L95.7366 90.619C97.1285 89.5725 98.3156 88.3924 99.2788 87.073L96.048 84.7145ZM93.3198 87.4317C91.9557 88.4749 90.8213 89.5877 89.9661 90.7829L93.2192 93.1105C93.7889 92.3143 94.6159 91.4761 95.7497 90.609L93.3198 87.4317ZM89.9757 90.7696C89.0742 92.0081 88.4856 93.4213 88.1913 94.9748L92.1214 95.7192C92.3144 94.7003 92.6834 93.8466 93.2096 93.1238L89.9757 90.7696ZM88.1913 94.9748C87.9038 96.4925 87.862 98.2622 88.0171 100.242L92.0049 99.9302C91.8665 98.1638 91.9216 96.774 92.1214 95.7192L88.1913 94.9748ZM88.0198 100.275L88.0455 100.546L92.0278 100.17L92.0021 99.898L88.0198 100.275ZM89.8484 98.3667L84.418 98.8802L84.7946 102.862L90.2249 102.349L89.8484 98.3667ZM88.5808 112.001C88.0003 112.056 87.5292 111.914 87.057 111.524L84.5074 114.606C85.7852 115.663 87.3055 116.14 88.9574 115.983L88.5808 112.001ZM87.057 111.524C86.5847 111.133 86.3573 110.697 86.3024 110.116L82.3201 110.493C82.4763 112.145 83.2295 113.549 84.5074 114.606L87.057 111.524ZM86.3024 110.116C86.2475 109.536 86.3891 109.065 86.7798 108.592L83.6976 106.043C82.6406 107.321 82.1639 108.841 82.3201 110.493L86.3024 110.116ZM86.7798 108.592C87.1704 108.12 87.6066 107.893 88.1871 107.838L87.8106 103.856C86.1587 104.012 84.7547 104.765 83.6976 106.043L86.7798 108.592ZM88.1871 107.838C88.7677 107.783 89.2387 107.925 89.711 108.315L92.2606 105.233C90.9827 104.176 89.4625 103.699 87.8106 103.856L88.1871 107.838ZM89.711 108.315C90.1833 108.706 90.4107 109.142 90.4656 109.723L94.4478 109.346C94.2916 107.694 93.5385 106.29 92.2606 105.233L89.711 108.315ZM90.4656 109.723C90.5017 110.104 90.4399 110.432 90.2856 110.748L93.8817 112.5C94.3646 111.509 94.5516 110.443 94.4478 109.346L90.4656 109.723ZM90.2701 110.781C90.1077 111.13 89.8776 111.415 89.5568 111.655L91.9515 114.859C92.7962 114.227 93.4525 113.424 93.8971 112.468L90.2701 110.781ZM89.5682 111.646C89.312 111.835 89.0011 111.961 88.5808 112.001L88.9574 115.983C90.0455 115.88 91.0579 115.517 91.94 114.867L89.5682 111.646Z" fill="#8D8D8D" fill-opacity="0.28" mask="url(#path-4-outside-2_41_20)"/>
</g>
<defs>
<filter id="filter0_b_41_20" x="-1.46408" y="4.09106" width="160.437" height="136.069" filterUnits="userSpaceOnUse" color-interpolation-filters="sRGB">
<feFlood flood-opacity="0" result="BackgroundImageFix"/>
<feGaussianBlur in="BackgroundImageFix" stdDeviation="2"/>
<feComposite in2="SourceAlpha" operator="in" result="effect1_backgroundBlur_41_20"/>
<feBlend mode="normal" in="SourceGraphic" in2="effect1_backgroundBlur_41_20" result="shape"/>
</filter>
<filter id="filter1_d_41_20" x="32.3271" y="34.9252" width="126.646" height="109.235" filterUnits="userSpaceOnUse" color-interpolation-filters="sRGB">
<feFlood flood-opacity="0" result="BackgroundImageFix"/>
<feColorMatrix in="SourceAlpha" type="matrix" values="0 0 0 0 0 0 0 0 0 0 0 0 0 0 0 0 0 0 127 0" result="hardAlpha"/>
<feOffset dy="4"/>
<feGaussianBlur stdDeviation="2"/>
<feComposite in2="hardAlpha" operator="out"/>
<feColorMatrix type="matrix" values="0 0 0 0 0 0 0 0 0 0 0 0 0 0 0 0 0 0 0.25 0"/>
<feBlend mode="normal" in2="BackgroundImageFix" result="effect1_dropShadow_41_20"/>
<feBlend mode="normal" in="SourceGraphic" in2="effect1_dropShadow_41_20" result="shape"/>
</filter>
<linearGradient id="paint0_linear_41_20" x1="62.7071" y1="8.84858" x2="7.1548" y2="135.326" gradientUnits="userSpaceOnUse">
<stop stop-color="#E00505"/>
<stop offset="1" stop-color="#C79B9B" stop-opacity="0.86"/>
</linearGradient>
<linearGradient id="paint1_linear_41_20" x1="60.5" y1="45.5" x2="208.5" y2="198" gradientUnits="userSpaceOnUse">
<stop stop-color="#F97C08"/>
<stop offset="0.74873" stop-color="#D4CCC5" stop-opacity="0.9"/>
</linearGradient>
</defs>
</svg>
