<svg width="124" height="98" viewBox="0 0 124 98" fill="none" xmlns="http://www.w3.org/2000/svg">
<mask id="path-1-inside-1_44_22" fill="white">
<path fill-rule="evenodd" clip-rule="evenodd" d="M123.833 36.4412L61.9163 0L-1.52588e-05 36.4412H9.71041V98H114.122V36.4412H123.833Z"/>
</mask>
<path fill-rule="evenodd" clip-rule="evenodd" d="M123.833 36.4412L61.9163 0L-1.52588e-05 36.4412H9.71041V98H114.122V36.4412H123.833Z" fill="url(#paint0_linear_44_22)"/>
<path d="M61.9163 0L63.3722 -2.47366L61.9163 -3.33053L60.4604 -2.47366L61.9163 0ZM123.833 36.4412V39.3115H134.368L125.288 33.9675L123.833 36.4412ZM-1.52588e-05 36.4412L-1.4559 33.9675L-10.5357 39.3115H-1.52588e-05V36.4412ZM9.71041 36.4412H12.5807V33.5709H9.71041V36.4412ZM9.71041 98H6.84012V100.87H9.71041V98ZM114.122 98V100.87H116.992V98H114.122ZM114.122 36.4412V33.5709H111.252V36.4412H114.122ZM60.4604 2.47366L122.377 38.9148L125.288 33.9675L63.3722 -2.47366L60.4604 2.47366ZM1.45587 38.9148L63.3722 2.47366L60.4604 -2.47366L-1.4559 33.9675L1.45587 38.9148ZM9.71041 33.5709H-1.52588e-05V39.3115H9.71041V33.5709ZM12.5807 98V36.4412H6.84012V98H12.5807ZM114.122 95.1297H9.71041V100.87H114.122V95.1297ZM111.252 36.4412V98H116.992V36.4412H111.252ZM123.833 33.5709H114.122V39.3115H123.833V33.5709Z" fill="#DAD4D4" fill-opacity="0.75" mask="url(#path-1-inside-1_44_22)"/>
<mask id="path-3-inside-2_44_22" fill="white">
<path fill-rule="evenodd" clip-rule="evenodd" d="M24.3208 44.462C24.3208 43.3297 25.2387 42.4117 26.371 42.4117H28.3964C29.5287 42.4117 30.4466 43.3297 30.4466 44.462V74.2071H100.731C102.995 74.2071 104.831 76.0429 104.831 78.3075V94.4015H98.7053V83.4635C98.7053 81.1989 96.8695 79.3631 94.6049 79.3631H30.4466L30.4466 94.4015H24.3208V44.462Z"/>
</mask>
<path fill-rule="evenodd" clip-rule="evenodd" d="M24.3208 44.462C24.3208 43.3297 25.2387 42.4117 26.371 42.4117H28.3964C29.5287 42.4117 30.4466 43.3297 30.4466 44.462V74.2071H100.731C102.995 74.2071 104.831 76.0429 104.831 78.3075V94.4015H98.7053V83.4635C98.7053 81.1989 96.8695 79.3631 94.6049 79.3631H30.4466L30.4466 94.4015H24.3208V44.462Z" fill="#F99116" fill-opacity="0.45"/>
<path d="M30.4466 74.2071H29.2165V75.4372H30.4466V74.2071ZM104.831 94.4015V95.6316H106.061V94.4015H104.831ZM98.7053 94.4015H97.4752V95.6316H98.7053V94.4015ZM30.4466 79.3631V78.133H29.2165V79.3631H30.4466ZM30.4466 94.4015V95.6316H31.6767V94.4015H30.4466ZM24.3208 94.4015H23.0907V95.6316H24.3208V94.4015ZM26.371 41.1816C24.5593 41.1816 23.0907 42.6503 23.0907 44.462H25.5509C25.5509 44.009 25.9181 43.6419 26.371 43.6419V41.1816ZM28.3964 41.1816H26.371V43.6419H28.3964V41.1816ZM31.6767 44.462C31.6767 42.6503 30.208 41.1816 28.3964 41.1816V43.6419C28.8493 43.6419 29.2165 44.009 29.2165 44.462H31.6767ZM31.6767 74.2071V44.462H29.2165V74.2071H31.6767ZM100.731 72.977H30.4466V75.4372H100.731V72.977ZM106.061 78.3075C106.061 75.3636 103.675 72.977 100.731 72.977V75.4372C102.316 75.4372 103.601 76.7223 103.601 78.3075H106.061ZM106.061 94.4015V78.3075H103.601V94.4015H106.061ZM98.7053 95.6316H104.831V93.1714H98.7053V95.6316ZM97.4752 83.4635V94.4015H99.9354V83.4635H97.4752ZM94.6049 80.5932C96.1901 80.5932 97.4752 81.8783 97.4752 83.4635H99.9354C99.9354 80.5196 97.5489 78.133 94.6049 78.133V80.5932ZM30.4466 80.5932H94.6049V78.133H30.4466V80.5932ZM31.6767 94.4015L31.6767 79.3631H29.2165L29.2165 94.4015H31.6767ZM24.3208 95.6316H30.4466V93.1714H24.3208V95.6316ZM23.0907 44.462V94.4015H25.5509V44.462H23.0907Z" fill="#F8D49F" fill-opacity="0.88" mask="url(#path-3-inside-2_44_22)"/>
<path d="M32.6344 61.3171H96.8202C99.3112 61.3171 101.331 63.3365 101.331 65.8276V70.7698H32.6344V61.3171Z" fill="#F99116" fill-opacity="0.45"/>
<path d="M33.2494 61.9322H96.8202C98.9715 61.9322 100.716 63.6762 100.716 65.8276V70.1548H33.2494V61.9322Z" stroke="#F8D49F" stroke-opacity="0.88" stroke-width="1.23013"/>
<path d="M32.7073 51.8824H39.9379C42.429 51.8824 44.4484 53.9018 44.4484 56.3928V59.2941H32.7073V51.8824Z" fill="#F99116" fill-opacity="0.45"/>
<path d="M33.3224 52.4974H39.9379C42.0893 52.4974 43.8333 54.2415 43.8333 56.3928V58.6791H33.3224V52.4974Z" stroke="#F8D49F" stroke-opacity="0.88" stroke-width="1.23013"/>
<defs>
<linearGradient id="paint0_linear_44_22" x1="51.5769" y1="-10.5" x2="107.421" y2="94.9373" gradientUnits="userSpaceOnUse">
<stop stop-color="#D85E5D"/>
<stop offset="0.68373" stop-color="#EDB2AF" stop-opacity="0.31"/>
</linearGradient>
</defs>
</svg>
