<svg width="171" height="263" viewBox="0 0 171 263" fill="none" xmlns="http://www.w3.org/2000/svg">
<path fill-rule="evenodd" clip-rule="evenodd" d="M111.282 43L133.771 0H93.4885L70.9999 43H111.282Z" fill="url(#paint0_linear_50_50)" fill-opacity="0.47"/>
<path fill-rule="evenodd" clip-rule="evenodd" d="M7 43C3.13401 43 0 46.134 0 50V256C0 259.866 3.13401 263 7 263H164C167.866 263 171 259.866 171 256V50C171 46.134 167.866 43 164 43H7ZM52 66C49.7909 66 48 67.7909 48 70V82C48 84.2091 49.7909 86 52 86H120C122.209 86 124 84.2091 124 82V70C124 67.7909 122.209 66 120 66H52Z" fill="url(#paint1_linear_50_50)"/>
<circle cx="85.5" cy="183.5" r="53.5" fill="url(#paint2_linear_50_50)" fill-opacity="0.92"/>
<circle cx="85.5" cy="183.5" r="51.5" stroke="white" stroke-opacity="0.42" stroke-width="4"/>
<g filter="url(#filter0_b_50_50)">
<circle cx="85.7297" cy="155.052" r="19.0517" fill="url(#paint3_linear_50_50)"/>
<circle cx="85.7297" cy="155.052" r="15.5517" stroke="#FAA707" stroke-opacity="0.21" stroke-width="7"/>
</g>
<path fill-rule="evenodd" clip-rule="evenodd" d="M45 218.569C46.451 197.151 64.2841 180.227 86.0699 180.227C107.365 180.227 124.883 196.397 127.017 217.128C117.209 229.25 102.212 237 85.4047 237C69.273 237 54.809 229.86 45 218.569Z" fill="#FFFEFC" fill-opacity="0.87"/>
<path fill-rule="evenodd" clip-rule="evenodd" d="M70.4886 43L48 0H88.2824L110.771 43H70.4886Z" fill="url(#paint4_linear_50_50)" fill-opacity="0.84"/>
<path fill-rule="evenodd" clip-rule="evenodd" d="M100.064 22H109C112.866 22 116 25.134 116 29V43H120V29C120 22.9249 115.075 18 109 18H97.9722L100.064 22ZM58.0681 18.7235C53.9349 20.3059 51 24.3102 51 29V43H55V29C55 25.8501 57.0806 23.1861 59.9424 22.3073L58.0681 18.7235Z" fill="#E28585"/>
<defs>
<filter id="filter0_b_50_50" x="62.678" y="132" width="46.1034" height="46.1034" filterUnits="userSpaceOnUse" color-interpolation-filters="sRGB">
<feFlood flood-opacity="0" result="BackgroundImageFix"/>
<feGaussianBlur in="BackgroundImageFix" stdDeviation="2"/>
<feComposite in2="SourceAlpha" operator="in" result="effect1_backgroundBlur_50_50"/>
<feBlend mode="normal" in="SourceGraphic" in2="effect1_backgroundBlur_50_50" result="shape"/>
</filter>
<linearGradient id="paint0_linear_50_50" x1="116.271" y1="-29.5" x2="67.271" y2="82" gradientUnits="userSpaceOnUse">
<stop stop-color="#F9C8B8"/>
<stop offset="1" stop-color="#B16A4C"/>
</linearGradient>
<linearGradient id="paint1_linear_50_50" x1="50.5" y1="17" x2="191.5" y2="304.5" gradientUnits="userSpaceOnUse">
<stop stop-color="#E25959"/>
<stop offset="1" stop-color="#D49C9C" stop-opacity="0"/>
</linearGradient>
<linearGradient id="paint2_linear_50_50" x1="85.5" y1="130" x2="85.5" y2="237" gradientUnits="userSpaceOnUse">
<stop stop-color="#F99760"/>
<stop offset="1" stop-color="#E1A17C" stop-opacity="0"/>
</linearGradient>
<linearGradient id="paint3_linear_50_50" x1="85.7297" y1="136" x2="83.008" y2="193.495" gradientUnits="userSpaceOnUse">
<stop stop-color="#FFF3DB"/>
<stop offset="1" stop-color="white" stop-opacity="0"/>
</linearGradient>
<linearGradient id="paint4_linear_50_50" x1="65.5" y1="-29.5" x2="114.5" y2="82" gradientUnits="userSpaceOnUse">
<stop stop-color="#FF7449" stop-opacity="0.39"/>
<stop offset="1" stop-color="#B16A4C"/>
</linearGradient>
</defs>
</svg>
