<svg width="157" height="137" viewBox="0 0 157 137" fill="none" xmlns="http://www.w3.org/2000/svg">
<g filter="url(#filter0_d_50_63)">
<rect x="16.7021" y="5.01062" width="128.606" height="111.904" rx="6" fill="url(#paint0_linear_50_63)" fill-opacity="0.78" shape-rendering="crispEdges"/>
</g>
<g filter="url(#filter1_b_50_63)">
<path fill-rule="evenodd" clip-rule="evenodd" d="M11 0C4.92487 0 0 4.92488 0 11V25.0426V36.7447V131.957C0 134.719 2.23857 136.957 5 136.957H152C154.761 136.957 157 134.719 157 131.957V25.0426C157 22.2811 154.761 20.0426 152 20.0426H95.2021V11C95.2021 4.92487 90.2773 0 84.2021 0H11Z" fill="#EDCBCB" fill-opacity="0.74"/>
</g>
<rect x="60.1277" y="95.2021" width="41.7553" height="15.0319" rx="6" fill="#FFF7F7"/>
<defs>
<filter id="filter0_d_50_63" x="12.7021" y="5.01062" width="136.606" height="119.904" filterUnits="userSpaceOnUse" color-interpolation-filters="sRGB">
<feFlood flood-opacity="0" result="BackgroundImageFix"/>
<feColorMatrix in="SourceAlpha" type="matrix" values="0 0 0 0 0 0 0 0 0 0 0 0 0 0 0 0 0 0 127 0" result="hardAlpha"/>
<feOffset dy="4"/>
<feGaussianBlur stdDeviation="2"/>
<feComposite in2="hardAlpha" operator="out"/>
<feColorMatrix type="matrix" values="0 0 0 0 0 0 0 0 0 0 0 0 0 0 0 0 0 0 0.25 0"/>
<feBlend mode="normal" in2="BackgroundImageFix" result="effect1_dropShadow_50_63"/>
<feBlend mode="normal" in="SourceGraphic" in2="effect1_dropShadow_50_63" result="shape"/>
</filter>
<filter id="filter1_b_50_63" x="-19" y="-19" width="195" height="174.957" filterUnits="userSpaceOnUse" color-interpolation-filters="sRGB">
<feFlood flood-opacity="0" result="BackgroundImageFix"/>
<feGaussianBlur in="BackgroundImageFix" stdDeviation="9.5"/>
<feComposite in2="SourceAlpha" operator="in" result="effect1_backgroundBlur_50_63"/>
<feBlend mode="normal" in="SourceGraphic" in2="effect1_backgroundBlur_50_63" result="shape"/>
</filter>
<linearGradient id="paint0_linear_50_63" x1="97.7075" y1="-2.50534" x2="-43.4255" y2="253.037" gradientUnits="userSpaceOnUse">
<stop stop-color="#FF6D1B"/>
<stop offset="1" stop-color="#FF7223" stop-opacity="0"/>
</linearGradient>
</defs>
</svg>
