<svg width="197" height="155" viewBox="0 0 197 155" fill="none" xmlns="http://www.w3.org/2000/svg">
<path d="M88.8657 114.212L90.3897 114.801C94.458 116.373 96.4815 120.945 94.9093 125.014V125.014C94.5841 125.855 93.638 126.274 92.7963 125.949V125.949C88.728 124.377 86.7046 119.804 88.2767 115.736L88.8657 114.212Z" fill="url(#paint0_linear_36_190)" fill-opacity="0.66"/>
<path d="M83.303 134.709L83.56 133.096C84.2458 128.789 88.2935 125.853 92.6007 126.539V126.539C93.4918 126.681 94.0992 127.518 93.9573 128.409V128.409C93.2715 132.716 89.2238 135.652 84.9166 134.966L83.303 134.709Z" fill="url(#paint1_linear_36_190)" fill-opacity="0.66"/>
<path d="M60.5472 111.204L62.0713 111.793C66.1396 113.365 68.1631 117.937 66.5909 122.006V122.006C66.2656 122.847 65.3196 123.266 64.4779 122.941V122.941C60.4096 121.368 58.3861 116.796 59.9583 112.728L60.5472 111.204Z" fill="url(#paint2_linear_36_190)" fill-opacity="0.66"/>
<path d="M54.9846 131.701L55.2415 130.088C55.9273 125.78 59.975 122.845 64.2822 123.53V123.53C65.1734 123.672 65.7808 124.51 65.6389 125.401V125.401C64.953 129.708 60.9054 132.644 56.5981 131.958L54.9846 131.701Z" fill="url(#paint3_linear_36_190)" fill-opacity="0.66"/>
<path d="M49.4707 107.274L50.9948 107.863C55.063 109.435 57.0865 114.008 55.5144 118.076V118.076C55.1891 118.918 54.243 119.337 53.4013 119.011V119.011C49.3331 117.439 47.3096 112.867 48.8818 108.798L49.4707 107.274Z" fill="url(#paint4_linear_36_190)" fill-opacity="0.66"/>
<path d="M43.9081 127.772L44.165 126.158C44.8508 121.851 48.8985 118.915 53.2057 119.601V119.601C54.0969 119.743 54.7043 120.58 54.5624 121.472V121.472C53.8765 125.779 49.8289 128.715 45.5216 128.029L43.9081 127.772Z" fill="url(#paint5_linear_36_190)" fill-opacity="0.66"/>
<path d="M49.4707 107.274L50.9948 107.863C55.063 109.435 57.0865 114.008 55.5144 118.076V118.076C55.1891 118.918 54.243 119.337 53.4013 119.011V119.011C49.3331 117.439 47.3096 112.867 48.8818 108.798L49.4707 107.274Z" fill="url(#paint6_linear_36_190)" fill-opacity="0.66"/>
<path d="M43.9081 127.772L44.165 126.158C44.8508 121.851 48.8985 118.915 53.2057 119.601V119.601C54.0969 119.743 54.7043 120.58 54.5624 121.472V121.472C53.8765 125.779 49.8289 128.715 45.5216 128.029L43.9081 127.772Z" fill="url(#paint7_linear_36_190)" fill-opacity="0.66"/>
<path d="M41.7721 105.634L43.0128 106.113C46.3248 107.393 47.9721 111.115 46.6922 114.427V114.427C46.4274 115.113 45.6572 115.453 44.972 115.189V115.189C41.66 113.909 40.0128 110.186 41.2926 106.874L41.7721 105.634Z" fill="url(#paint8_linear_36_190)" fill-opacity="0.66"/>
<path d="M37.2436 122.32L37.4528 121.007C38.0111 117.5 41.3063 115.11 44.8127 115.669V115.669C45.5382 115.784 46.0327 116.466 45.9171 117.192V117.192C45.3588 120.698 42.0637 123.088 38.5572 122.53L37.2436 122.32Z" fill="url(#paint9_linear_36_190)" fill-opacity="0.66"/>
<path d="M73.9584 114.294L75.4825 114.883C79.5507 116.455 81.5742 121.028 80.002 125.096V125.096C79.6768 125.938 78.7307 126.357 77.889 126.031V126.031C73.8208 124.459 71.7973 119.887 73.3694 115.818L73.9584 114.294Z" fill="url(#paint10_linear_36_190)" fill-opacity="0.66"/>
<path d="M68.3958 134.792L68.6527 133.178C69.3385 128.871 73.3862 125.935 77.6934 126.621V126.621C78.5846 126.763 79.1919 127.601 79.0501 128.492V128.492C78.3642 132.799 74.3166 135.735 70.0093 135.049L68.3958 134.792Z" fill="url(#paint11_linear_36_190)" fill-opacity="0.66"/>
<path d="M98.2852 140.275L97.3132 139.367C94.7185 136.944 94.5799 132.875 97.0036 130.281V130.281C97.5051 129.744 98.3468 129.715 98.8836 130.217V130.217C101.478 132.64 101.617 136.709 99.1932 139.303L98.2852 140.275Z" fill="url(#paint12_linear_36_190)" fill-opacity="0.66"/>
<path d="M93.9644 106.083L52.69 34.8605C40.7938 15.8277 22.9346 14.3761 1.20873 12.8006C0.628578 12.7585 0.184593 13.3126 0.355743 13.8685L22.7658 86.6602C22.8828 87.0401 23.2476 87.2829 23.6432 87.2442C45.7854 85.0811 77.535 97.6858 92.6953 107.284C93.4503 107.762 94.4124 106.857 93.9644 106.083Z" fill="#F7A80D" fill-opacity="0.49"/>
<path d="M93.7185 103.814L55.8171 28.0111C44.9066 7.77942 28.5329 6.21676 8.61462 4.54233C8.04462 4.49442 7.59674 5.02565 7.74359 5.57849L28.3424 83.1267C28.449 83.528 28.8312 83.7877 29.2439 83.7421C49.4786 81.5026 78.392 94.7614 92.361 104.941C93.0868 105.47 94.1202 104.617 93.7185 103.814Z" fill="url(#paint13_linear_36_190)" fill-opacity="0.37"/>
<path d="M95.9227 106.044V31.4608C95.9227 31.3225 95.889 31.1876 95.8217 31.0667C84.5975 10.9002 41.8578 2.30001 20.8544 0.396854C20.3281 0.349166 19.913 0.805335 19.9836 1.32904L30.4862 79.2267C30.547 79.6774 30.9564 79.9938 31.4088 79.9473C52.7284 77.7543 81.4452 96.1327 94.561 106.694C95.1069 107.134 95.9227 106.745 95.9227 106.044Z" fill="url(#paint14_linear_36_190)"/>
<path d="M103.036 106.083L144.31 34.8605C156.206 15.8277 174.065 14.3761 195.791 12.8006C196.371 12.7585 196.815 13.3126 196.644 13.8685L174.234 86.6602C174.117 87.0401 173.752 87.2829 173.357 87.2442C151.215 85.0811 119.465 97.6858 104.305 107.284C103.55 107.762 102.588 106.857 103.036 106.083Z" fill="#F7A80D" fill-opacity="0.49"/>
<path d="M103.282 103.814L141.183 28.0111C152.093 7.77942 168.467 6.21676 188.385 4.54233C188.955 4.49442 189.403 5.02565 189.256 5.57849L168.658 83.1267C168.551 83.528 168.169 83.7877 167.756 83.7421C147.521 81.5026 118.608 94.7614 104.639 104.941C103.913 105.47 102.88 104.617 103.282 103.814Z" fill="url(#paint15_linear_36_190)" fill-opacity="0.37"/>
<path d="M101.077 106.044V31.4608C101.077 31.3225 101.111 31.1876 101.178 31.0667C112.403 10.9002 155.142 2.30001 176.146 0.396854C176.672 0.349166 177.087 0.805335 177.016 1.32904L166.514 79.2267C166.453 79.6774 166.044 79.9938 165.591 79.9473C144.272 77.7543 115.555 96.1327 102.439 106.694C101.893 107.134 101.077 106.745 101.077 106.044Z" fill="url(#paint16_linear_36_190)"/>
<path d="M107.286 113.512L105.754 114.08C101.664 115.593 99.575 120.137 101.089 124.227V124.227C101.402 125.073 102.342 125.505 103.188 125.192V125.192C107.279 123.678 109.367 119.135 107.853 115.045L107.286 113.512Z" fill="url(#paint17_linear_36_190)" fill-opacity="0.66"/>
<path d="M112.555 134.088L112.322 132.47C111.697 128.154 107.692 125.161 103.376 125.785V125.785C102.482 125.914 101.863 126.743 101.992 127.636V127.636C102.616 131.952 106.622 134.946 110.938 134.321L112.555 134.088Z" fill="url(#paint18_linear_36_190)" fill-opacity="0.66"/>
<path d="M135.645 110.909L134.113 111.477C130.022 112.99 127.934 117.534 129.447 121.624V121.624C129.761 122.47 130.701 122.902 131.547 122.589V122.589C135.637 121.075 137.726 116.532 136.212 112.442L135.645 110.909Z" fill="url(#paint19_linear_36_190)" fill-opacity="0.66"/>
<path d="M140.914 131.484L140.68 129.867C140.056 125.551 136.051 122.558 131.734 123.182V123.182C130.841 123.311 130.222 124.14 130.351 125.033V125.033C130.975 129.349 134.98 132.343 139.297 131.718L140.914 131.484Z" fill="url(#paint20_linear_36_190)" fill-opacity="0.66"/>
<path d="M146.776 107.139L145.244 107.706C141.154 109.22 139.065 113.763 140.579 117.853V117.853C140.892 118.699 141.832 119.132 142.678 118.818V118.818C146.769 117.304 148.857 112.761 147.344 108.671L146.776 107.139Z" fill="url(#paint21_linear_36_190)" fill-opacity="0.66"/>
<path d="M152.046 127.714L151.812 126.097C151.187 121.78 147.182 118.787 142.866 119.411V119.411C141.973 119.54 141.353 120.369 141.482 121.262V121.262C142.107 125.578 146.112 128.572 150.428 127.947L152.046 127.714Z" fill="url(#paint22_linear_36_190)" fill-opacity="0.66"/>
<path d="M146.776 107.139L145.244 107.706C141.154 109.22 139.065 113.763 140.579 117.853V117.853C140.892 118.699 141.832 119.132 142.678 118.818V118.818C146.769 117.304 148.857 112.761 147.344 108.671L146.776 107.139Z" fill="url(#paint23_linear_36_190)" fill-opacity="0.66"/>
<path d="M152.046 127.714L151.812 126.097C151.187 121.78 147.182 118.787 142.866 119.411V119.411C141.973 119.54 141.353 120.369 141.482 121.262V121.262C142.107 125.578 146.112 128.572 150.428 127.947L152.046 127.714Z" fill="url(#paint24_linear_36_190)" fill-opacity="0.66"/>
<path d="M154.498 105.608L153.25 106.07C149.92 107.303 148.22 111.001 149.452 114.331V114.331C149.707 115.02 150.473 115.372 151.162 115.117V115.117C154.491 113.884 156.192 110.186 154.959 106.856L154.498 105.608Z" fill="url(#paint25_linear_36_190)" fill-opacity="0.66"/>
<path d="M158.787 122.358L158.597 121.042C158.089 117.528 154.828 115.091 151.314 115.599V115.599C150.587 115.704 150.083 116.379 150.188 117.106V117.106C150.696 120.62 153.957 123.057 157.471 122.549L158.787 122.358Z" fill="url(#paint26_linear_36_190)" fill-opacity="0.66"/>
<path d="M122.191 113.808L120.659 114.375C116.568 115.889 114.48 120.432 115.993 124.523V124.523C116.307 125.369 117.247 125.801 118.093 125.488V125.488C122.183 123.974 124.272 119.431 122.758 115.34L122.191 113.808Z" fill="url(#paint27_linear_36_190)" fill-opacity="0.66"/>
<path d="M127.46 134.383L127.226 132.766C126.602 128.45 122.597 125.456 118.28 126.08V126.08C117.387 126.21 116.768 127.038 116.897 127.931V127.931C117.521 132.248 121.526 135.241 125.843 134.617L127.46 134.383Z" fill="url(#paint28_linear_36_190)" fill-opacity="0.66"/>
<defs>
<linearGradient id="paint0_linear_36_190" x1="93.3108" y1="115.93" x2="88.4743" y2="127.952" gradientUnits="userSpaceOnUse">
<stop stop-color="#D34646"/>
<stop offset="1" stop-color="#FFB800" stop-opacity="0"/>
</linearGradient>
<linearGradient id="paint1_linear_36_190" x1="84.0524" y1="130.003" x2="96.8207" y2="132.216" gradientUnits="userSpaceOnUse">
<stop stop-color="#D34646"/>
<stop offset="1" stop-color="#FFB800" stop-opacity="0"/>
</linearGradient>
<linearGradient id="paint2_linear_36_190" x1="64.9924" y1="112.921" x2="60.1558" y2="124.944" gradientUnits="userSpaceOnUse">
<stop stop-color="#D34646"/>
<stop offset="1" stop-color="#FFB800" stop-opacity="0"/>
</linearGradient>
<linearGradient id="paint3_linear_36_190" x1="55.7339" y1="126.995" x2="68.5022" y2="129.208" gradientUnits="userSpaceOnUse">
<stop stop-color="#D34646"/>
<stop offset="1" stop-color="#FFB800" stop-opacity="0"/>
</linearGradient>
<linearGradient id="paint4_linear_36_190" x1="53.9159" y1="108.992" x2="49.0793" y2="121.014" gradientUnits="userSpaceOnUse">
<stop stop-color="#D34646"/>
<stop offset="1" stop-color="#FFB800" stop-opacity="0"/>
</linearGradient>
<linearGradient id="paint5_linear_36_190" x1="44.6574" y1="123.066" x2="57.4257" y2="125.279" gradientUnits="userSpaceOnUse">
<stop stop-color="#D34646"/>
<stop offset="1" stop-color="#FFB800" stop-opacity="0"/>
</linearGradient>
<linearGradient id="paint6_linear_36_190" x1="53.9159" y1="108.992" x2="49.0793" y2="121.014" gradientUnits="userSpaceOnUse">
<stop stop-color="#D34646"/>
<stop offset="1" stop-color="#FFB800" stop-opacity="0"/>
</linearGradient>
<linearGradient id="paint7_linear_36_190" x1="44.6574" y1="123.066" x2="57.4257" y2="125.279" gradientUnits="userSpaceOnUse">
<stop stop-color="#D34646"/>
<stop offset="1" stop-color="#FFB800" stop-opacity="0"/>
</linearGradient>
<linearGradient id="paint8_linear_36_190" x1="45.3909" y1="107.032" x2="41.4534" y2="116.819" gradientUnits="userSpaceOnUse">
<stop stop-color="#D34646"/>
<stop offset="1" stop-color="#FFB800" stop-opacity="0"/>
</linearGradient>
<linearGradient id="paint9_linear_36_190" x1="37.8537" y1="118.489" x2="48.2482" y2="120.291" gradientUnits="userSpaceOnUse">
<stop stop-color="#D34646"/>
<stop offset="1" stop-color="#FFB800" stop-opacity="0"/>
</linearGradient>
<linearGradient id="paint10_linear_36_190" x1="78.4036" y1="116.012" x2="73.567" y2="128.034" gradientUnits="userSpaceOnUse">
<stop stop-color="#D34646"/>
<stop offset="1" stop-color="#FFB800" stop-opacity="0"/>
</linearGradient>
<linearGradient id="paint11_linear_36_190" x1="69.1451" y1="130.086" x2="81.9134" y2="132.299" gradientUnits="userSpaceOnUse">
<stop stop-color="#D34646"/>
<stop offset="1" stop-color="#FFB800" stop-opacity="0"/>
</linearGradient>
<linearGradient id="paint12_linear_36_190" x1="95.4501" y1="137.627" x2="102.757" y2="130.017" gradientUnits="userSpaceOnUse">
<stop stop-color="#D34646"/>
<stop offset="1" stop-color="#FFB800" stop-opacity="0"/>
</linearGradient>
<linearGradient id="paint13_linear_36_190" x1="51.4757" y1="4.44385" x2="121.971" y2="124.761" gradientUnits="userSpaceOnUse">
<stop stop-color="#EC422B"/>
<stop offset="1" stop-color="#E0861B" stop-opacity="0"/>
</linearGradient>
<linearGradient id="paint14_linear_36_190" x1="57.8844" y1="0.309204" x2="57.8844" y2="107.809" gradientUnits="userSpaceOnUse">
<stop stop-color="#CF0000"/>
<stop offset="0.96373" stop-color="#F9B914" stop-opacity="0.91"/>
</linearGradient>
<linearGradient id="paint15_linear_36_190" x1="145.524" y1="4.44385" x2="75.0293" y2="124.761" gradientUnits="userSpaceOnUse">
<stop stop-color="#EC422B"/>
<stop offset="1" stop-color="#E0861B" stop-opacity="0"/>
</linearGradient>
<linearGradient id="paint16_linear_36_190" x1="139.116" y1="0.309204" x2="139.116" y2="107.809" gradientUnits="userSpaceOnUse">
<stop stop-color="#CF0000"/>
<stop offset="0.96373" stop-color="#F9B914" stop-opacity="0.91"/>
</linearGradient>
<linearGradient id="paint17_linear_36_190" x1="102.817" y1="115.167" x2="107.481" y2="127.257" gradientUnits="userSpaceOnUse">
<stop stop-color="#D34646"/>
<stop offset="1" stop-color="#FFB800" stop-opacity="0"/>
</linearGradient>
<linearGradient id="paint18_linear_36_190" x1="111.873" y1="129.371" x2="99.0748" y2="131.401" gradientUnits="userSpaceOnUse">
<stop stop-color="#D34646"/>
<stop offset="1" stop-color="#FFB800" stop-opacity="0"/>
</linearGradient>
<linearGradient id="paint19_linear_36_190" x1="131.176" y1="112.564" x2="135.84" y2="124.654" gradientUnits="userSpaceOnUse">
<stop stop-color="#D34646"/>
<stop offset="1" stop-color="#FFB800" stop-opacity="0"/>
</linearGradient>
<linearGradient id="paint20_linear_36_190" x1="140.232" y1="126.768" x2="127.433" y2="128.798" gradientUnits="userSpaceOnUse">
<stop stop-color="#D34646"/>
<stop offset="1" stop-color="#FFB800" stop-opacity="0"/>
</linearGradient>
<linearGradient id="paint21_linear_36_190" x1="142.307" y1="108.793" x2="146.971" y2="120.883" gradientUnits="userSpaceOnUse">
<stop stop-color="#D34646"/>
<stop offset="1" stop-color="#FFB800" stop-opacity="0"/>
</linearGradient>
<linearGradient id="paint22_linear_36_190" x1="151.364" y1="122.997" x2="138.565" y2="125.028" gradientUnits="userSpaceOnUse">
<stop stop-color="#D34646"/>
<stop offset="1" stop-color="#FFB800" stop-opacity="0"/>
</linearGradient>
<linearGradient id="paint23_linear_36_190" x1="142.307" y1="108.793" x2="146.971" y2="120.883" gradientUnits="userSpaceOnUse">
<stop stop-color="#D34646"/>
<stop offset="1" stop-color="#FFB800" stop-opacity="0"/>
</linearGradient>
<linearGradient id="paint24_linear_36_190" x1="151.364" y1="122.997" x2="138.565" y2="125.028" gradientUnits="userSpaceOnUse">
<stop stop-color="#D34646"/>
<stop offset="1" stop-color="#FFB800" stop-opacity="0"/>
</linearGradient>
<linearGradient id="paint25_linear_36_190" x1="150.859" y1="106.955" x2="154.656" y2="116.797" gradientUnits="userSpaceOnUse">
<stop stop-color="#D34646"/>
<stop offset="1" stop-color="#FFB800" stop-opacity="0"/>
</linearGradient>
<linearGradient id="paint26_linear_36_190" x1="158.232" y1="118.519" x2="147.813" y2="120.171" gradientUnits="userSpaceOnUse">
<stop stop-color="#D34646"/>
<stop offset="1" stop-color="#FFB800" stop-opacity="0"/>
</linearGradient>
<linearGradient id="paint27_linear_36_190" x1="117.722" y1="115.462" x2="122.386" y2="127.552" gradientUnits="userSpaceOnUse">
<stop stop-color="#D34646"/>
<stop offset="1" stop-color="#FFB800" stop-opacity="0"/>
</linearGradient>
<linearGradient id="paint28_linear_36_190" x1="126.778" y1="129.667" x2="113.979" y2="131.697" gradientUnits="userSpaceOnUse">
<stop stop-color="#D34646"/>
<stop offset="1" stop-color="#FFB800" stop-opacity="0"/>
</linearGradient>
</defs>
</svg>
