<svg width="271" height="233" viewBox="0 0 271 233" fill="none" xmlns="http://www.w3.org/2000/svg">
<circle cx="40.2091" cy="159.76" r="7.76013" fill="url(#paint0_linear_33_31)"/>
<circle cx="40.2091" cy="159.76" r="7.24279" stroke="#E2D4D4" stroke-opacity="0.89" stroke-width="1.03468"/>
<path d="M29 178.673C29 173.149 33.478 168.671 39.0019 168.671H41.4162C46.9401 168.671 51.4182 173.149 51.4182 178.673V186.433C51.4182 187.672 50.4145 188.675 49.1763 188.675H31.2418C30.0037 188.675 29 187.672 29 186.433V178.673Z" fill="url(#paint1_linear_33_31)"/>
<path d="M39.0019 169.361H41.4162C46.5592 169.361 50.7284 173.53 50.7284 178.673V186.433C50.7284 187.291 50.0335 187.985 49.1763 187.985H31.2418C30.3847 187.985 29.6898 187.291 29.6898 186.433V178.673C29.6898 173.53 33.859 169.361 39.0019 169.361Z" stroke="#E7D8D8" stroke-opacity="0.75" stroke-width="1.37958"/>
<path d="M144.005 108.314C137.221 108.37 130.692 105.729 125.855 100.972C121.018 96.2142 118.269 89.7301 118.212 82.9457C118.156 76.1614 120.797 69.6326 125.554 64.7955C130.312 59.9585 136.796 57.2094 143.58 57.1531L143.793 82.7335L144.005 108.314Z" fill="#F9773F"/>
<circle cx="194.744" cy="79.4846" r="41.1127" fill="url(#paint2_linear_33_31)"/>
<circle cx="194.744" cy="79.4846" r="38.3718" stroke="#E2D4D4" stroke-opacity="0.89" stroke-width="5.48169"/>
<mask id="path-8-inside-1_33_31" fill="white">
<path d="M126.387 84.7517C125.175 74.9278 126.107 64.9578 129.118 55.5285C132.129 46.0992 137.148 37.4346 143.83 30.1315C150.511 22.8283 158.696 17.0601 167.821 13.224C176.946 9.38803 186.794 7.57538 196.687 7.91094C206.58 8.24649 216.282 10.7223 225.126 15.1678C233.97 19.6133 241.745 25.9229 247.917 33.662C254.088 41.4012 258.508 50.386 260.874 59.9976C263.239 69.6093 263.493 79.6194 261.618 89.3386L247.654 86.6448C249.14 78.9436 248.938 71.0119 247.064 63.396C245.19 55.78 241.687 48.6608 236.797 42.5286C231.907 36.3964 225.747 31.3969 218.739 27.8744C211.731 24.3519 204.043 22.3902 196.205 22.1243C188.366 21.8584 180.563 23.2947 173.333 26.3342C166.102 29.3738 159.617 33.9443 154.323 39.7311C149.028 45.5179 145.051 52.3834 142.665 59.8548C140.28 67.3263 139.541 75.2261 140.502 83.0103L126.387 84.7517Z"/>
</mask>
<path d="M126.387 84.7517C125.175 74.9278 126.107 64.9578 129.118 55.5285C132.129 46.0992 137.148 37.4346 143.83 30.1315C150.511 22.8283 158.696 17.0601 167.821 13.224C176.946 9.38803 186.794 7.57538 196.687 7.91094C206.58 8.24649 216.282 10.7223 225.126 15.1678C233.97 19.6133 241.745 25.9229 247.917 33.662C254.088 41.4012 258.508 50.386 260.874 59.9976C263.239 69.6093 263.493 79.6194 261.618 89.3386L247.654 86.6448C249.14 78.9436 248.938 71.0119 247.064 63.396C245.19 55.78 241.687 48.6608 236.797 42.5286C231.907 36.3964 225.747 31.3969 218.739 27.8744C211.731 24.3519 204.043 22.3902 196.205 22.1243C188.366 21.8584 180.563 23.2947 173.333 26.3342C166.102 29.3738 159.617 33.9443 154.323 39.7311C149.028 45.5179 145.051 52.3834 142.665 59.8548C140.28 67.3263 139.541 75.2261 140.502 83.0103L126.387 84.7517Z" fill="#F7A300" fill-opacity="0.86" stroke="url(#paint3_linear_33_31)" stroke-opacity="0.53" stroke-width="23.754" mask="url(#path-8-inside-1_33_31)"/>
<path d="M245.004 56.9464C251.788 56.9479 258.294 59.6445 263.091 64.4429C267.887 69.2414 270.581 75.7486 270.579 82.5332C270.578 89.3178 267.881 95.8239 263.083 100.62C258.284 105.417 251.777 108.11 244.993 108.109L244.998 82.5276L245.004 56.9464Z" fill="#F9773F"/>
<path d="M135.359 179.686C135.359 150.42 159.083 126.696 188.348 126.696H201.139C230.404 126.696 254.129 150.42 254.129 179.686V220.798C254.129 227.358 248.811 232.675 242.252 232.675H147.236C140.676 232.675 135.359 227.358 135.359 220.798V179.686Z" fill="url(#paint4_linear_33_31)"/>
<path d="M188.348 130.35H201.139C228.386 130.35 250.474 152.438 250.474 179.686V220.798C250.474 225.339 246.793 229.021 242.252 229.021H147.236C142.695 229.021 139.013 225.339 139.013 220.798V179.686C139.013 152.438 161.101 130.35 188.348 130.35Z" stroke="#E7D8D8" stroke-opacity="0.75" stroke-width="7.30892"/>
<mask id="path-12-inside-2_33_31" fill="white">
<path fill-rule="evenodd" clip-rule="evenodd" d="M17 121C7.61116 121 0 128.611 0 138V183C0 192.389 7.61116 200 17 200H110C119.389 200 127 192.389 127 183V138C127 128.611 119.389 121 110 121H17ZM27 128C17.6112 128 10 135.611 10 145V176C10 185.389 17.6112 193 27 193H101C110.389 193 118 185.389 118 176V145C118 135.611 110.389 128 101 128H27Z"/>
</mask>
<path fill-rule="evenodd" clip-rule="evenodd" d="M17 121C7.61116 121 0 128.611 0 138V183C0 192.389 7.61116 200 17 200H110C119.389 200 127 192.389 127 183V138C127 128.611 119.389 121 110 121H17ZM27 128C17.6112 128 10 135.611 10 145V176C10 185.389 17.6112 193 27 193H101C110.389 193 118 185.389 118 176V145C118 135.611 110.389 128 101 128H27Z" fill="url(#paint5_linear_33_31)"/>
<path d="M2 138C2 129.716 8.71573 123 17 123V119C6.50659 119 -2 127.507 -2 138H2ZM2 183V138H-2V183H2ZM17 198C8.71573 198 2 191.284 2 183H-2C-2 193.493 6.50659 202 17 202V198ZM110 198H17V202H110V198ZM125 183C125 191.284 118.284 198 110 198V202C120.493 202 129 193.493 129 183H125ZM125 138V183H129V138H125ZM110 123C118.284 123 125 129.716 125 138H129C129 127.507 120.493 119 110 119V123ZM17 123H110V119H17V123ZM12 145C12 136.716 18.7157 130 27 130V126C16.5066 126 8 134.507 8 145H12ZM12 176V145H8V176H12ZM27 191C18.7157 191 12 184.284 12 176H8C8 186.493 16.5066 195 27 195V191ZM101 191H27V195H101V191ZM116 176C116 184.284 109.284 191 101 191V195C111.493 195 120 186.493 120 176H116ZM116 145V176H120V145H116ZM101 130C109.284 130 116 136.716 116 145H120C120 134.507 111.493 126 101 126V130ZM27 130H101V126H27V130Z" fill="#E3D8D8" fill-opacity="0.97" mask="url(#path-12-inside-2_33_31)"/>
<path d="M36 215.5C36 208.044 42.0442 202 49.5 202H78.5C85.9558 202 92 208.044 92 215.5V229H36V215.5Z" fill="#F5761B" fill-opacity="0.54"/>
<path d="M49.5 204H78.5C84.8513 204 90 209.149 90 215.5V227H38V215.5C38 209.149 43.1487 204 49.5 204Z" stroke="#EADDDD" stroke-opacity="0.67" stroke-width="4"/>
<defs>
<linearGradient id="paint0_linear_33_31" x1="40.2091" y1="152" x2="44.4341" y2="169.59" gradientUnits="userSpaceOnUse">
<stop stop-color="#E72D2D"/>
<stop offset="1" stop-color="#EC9646" stop-opacity="0"/>
</linearGradient>
<linearGradient id="paint1_linear_33_31" x1="36.1566" y1="166.688" x2="51.4182" y2="192.728" gradientUnits="userSpaceOnUse">
<stop stop-color="#EE4545"/>
<stop offset="1" stop-color="#EEA71E" stop-opacity="0"/>
</linearGradient>
<linearGradient id="paint2_linear_33_31" x1="194.744" y1="38.3719" x2="217.127" y2="131.561" gradientUnits="userSpaceOnUse">
<stop stop-color="#E72D2D"/>
<stop offset="1" stop-color="#EC9646" stop-opacity="0"/>
</linearGradient>
<linearGradient id="paint3_linear_33_31" x1="270.574" y1="152.87" x2="185.978" y2="8.387" gradientUnits="userSpaceOnUse">
<stop stop-color="#EE1414"/>
<stop offset="1" stop-color="#E53030" stop-opacity="0.69"/>
</linearGradient>
<linearGradient id="paint4_linear_33_31" x1="173.274" y1="116.189" x2="254.129" y2="254.145" gradientUnits="userSpaceOnUse">
<stop stop-color="#EE4545"/>
<stop offset="1" stop-color="#EEA71E" stop-opacity="0"/>
</linearGradient>
<linearGradient id="paint5_linear_33_31" x1="63.5" y1="121" x2="116.5" y2="220.5" gradientUnits="userSpaceOnUse">
<stop stop-color="#E62C2C"/>
<stop offset="0.9999" stop-color="#F8A90E" stop-opacity="0.015"/>
<stop offset="1" stop-color="#D9D9D9" stop-opacity="0"/>
</linearGradient>
</defs>
</svg>
