<svg width="176" height="215" viewBox="0 0 176 215" fill="none" xmlns="http://www.w3.org/2000/svg">
<circle cx="43.2377" cy="25.7295" r="25.7295" fill="url(#paint0_linear_33_43)"/>
<circle cx="43.2377" cy="25.7295" r="23.239" stroke="#D9C2C2" stroke-opacity="0.94" stroke-width="4.98092"/>
<circle cx="141.926" cy="56.0409" r="19.3852" fill="url(#paint1_linear_33_43)"/>
<circle cx="141.926" cy="56.0409" r="16.8948" stroke="#D9C2C2" stroke-opacity="0.94" stroke-width="4.98092"/>
<path d="M2 126.651V77.9816C2 77.8984 2.01488 77.8153 2.04386 77.7374C6.99897 64.4126 17.9012 56.0003 31.6066 54.946C45.3525 53.8887 48.877 54.2411 58.041 54.946C65.3721 55.51 73.3142 64.8149 76.3689 69.3968L97.3923 105.837C97.4726 105.977 97.5023 106.145 97.4761 106.304C95.4555 118.569 87.2419 117.464 83.216 115.299C83.1154 115.245 83.033 115.167 82.9706 115.071L63.9184 85.8356C63.5356 85.2481 62.623 85.5192 62.623 86.2205V203.882C62.623 203.984 62.5989 204.089 62.5558 204.181C56.0668 218.078 45.8074 209.89 41.4754 204.036C32.8096 219.411 22.7351 210.652 18.6701 204.204C18.6002 204.093 18.5656 203.967 18.5656 203.836V126.644C18.5656 126.777 18.5248 126.913 18.4528 127.025C11.8029 137.364 4.86106 131.438 2.10168 127.013C2.03358 126.904 2 126.78 2 126.651Z" fill="url(#paint2_linear_33_43)"/>
<path d="M41.4754 204.036C32.8096 219.411 22.7351 210.652 18.6701 204.204C18.6002 204.093 18.5656 203.967 18.5656 203.836V82.4378V126.644C18.5656 126.777 18.5248 126.913 18.4528 127.025C11.8029 137.364 4.86106 131.438 2.10168 127.013C2.03358 126.904 2 126.78 2 126.651V77.9816C2 77.8984 2.01488 77.8153 2.04386 77.7374C6.99897 64.4126 17.9012 56.0003 31.6066 54.946C45.3525 53.8887 48.877 54.2411 58.041 54.946C65.3721 55.51 73.3142 64.8149 76.3689 69.3968L97.3923 105.837C97.4726 105.977 97.5023 106.145 97.4761 106.304C95.4555 118.569 87.2419 117.464 83.216 115.299C83.1154 115.245 83.033 115.167 82.9706 115.071L63.9184 85.8356C63.5356 85.2481 62.623 85.5192 62.623 86.2205V203.882C62.623 203.984 62.5989 204.089 62.5558 204.181C56.0668 218.078 45.8074 209.89 41.4754 204.036ZM41.4754 204.036V143.061" stroke="#FFC6C6" stroke-opacity="0.97" stroke-width="3.52459"/>
<path d="M174 138.531V98.4966C174 98.4139 173.985 98.3312 173.957 98.2536C169.894 87.2896 160.967 80.3684 149.747 79.5005C138.486 78.6295 135.599 78.9199 128.092 79.5005C122.086 79.965 115.58 87.6296 113.078 91.4038L95.8771 121.383C95.7975 121.522 95.7679 121.689 95.7941 121.847C97.4567 131.877 104.138 130.999 107.441 129.229C107.542 129.175 107.625 129.096 107.687 129L123.042 105.307C123.424 104.718 124.338 104.989 124.338 105.691V202.154C124.338 202.255 124.362 202.36 124.405 202.451C129.721 213.864 138.116 207.126 141.662 202.307C148.748 214.949 156.984 207.783 160.326 202.474C160.395 202.364 160.43 202.238 160.43 202.108V138.523C160.43 138.656 160.47 138.791 160.542 138.903C165.969 147.355 171.629 142.529 173.899 138.892C173.967 138.783 174 138.659 174 138.531Z" fill="url(#paint3_linear_33_43)"/>
<path d="M141.662 202.307C148.748 214.949 156.984 207.783 160.326 202.474C160.395 202.364 160.43 202.238 160.43 202.108V102.146V138.523C160.43 138.656 160.47 138.791 160.542 138.903C165.969 147.355 171.629 142.529 173.899 138.892C173.967 138.783 174 138.659 174 138.531V98.4966C174 98.4139 173.985 98.3312 173.957 98.2536C169.894 87.2896 160.967 80.3684 149.747 79.5005C138.486 78.6295 135.599 78.9199 128.092 79.5005C122.086 79.965 115.58 87.6296 113.078 91.4038L95.8771 121.383C95.7975 121.522 95.7679 121.689 95.7941 121.847C97.4567 131.877 104.138 130.999 107.441 129.229C107.542 129.175 107.625 129.096 107.687 129L123.042 105.307C123.424 104.718 124.338 104.989 124.338 105.691V202.154C124.338 202.255 124.362 202.36 124.405 202.451C129.721 213.864 138.116 207.126 141.662 202.307ZM141.662 202.307V152.081" stroke="#FFC6C6" stroke-opacity="0.97" stroke-width="3.52459"/>
<defs>
<linearGradient id="paint0_linear_33_43" x1="42.9277" y1="-3.40993" x2="64.0073" y2="57.9689" gradientUnits="userSpaceOnUse">
<stop stop-color="#DF3232"/>
<stop offset="1" stop-color="#F6B40A" stop-opacity="0"/>
</linearGradient>
<linearGradient id="paint1_linear_33_43" x1="141.693" y1="34.0866" x2="157.575" y2="80.3309" gradientUnits="userSpaceOnUse">
<stop stop-color="#DF3232"/>
<stop offset="1" stop-color="#F6B40A" stop-opacity="0"/>
</linearGradient>
<linearGradient id="paint2_linear_33_43" x1="19.2705" y1="48.6393" x2="66.8525" y2="241.787" gradientUnits="userSpaceOnUse">
<stop stop-color="#D84141"/>
<stop offset="1" stop-color="#F0A20B" stop-opacity="0"/>
</linearGradient>
<linearGradient id="paint3_linear_33_43" x1="103.861" y1="63.4426" x2="170.475" y2="212.885" gradientUnits="userSpaceOnUse">
<stop stop-color="#F01A1A"/>
<stop offset="1" stop-color="#E99D2B" stop-opacity="0.29"/>
</linearGradient>
</defs>
</svg>
