<svg width="213" height="158" viewBox="0 0 213 158" fill="none" xmlns="http://www.w3.org/2000/svg">
<path fill-rule="evenodd" clip-rule="evenodd" d="M190.878 84.0757C204.44 75.2786 213 62.3774 213 48C213 21.4904 183.898 0 148 0C112.102 0 83 21.4904 83 48C83 74.5096 112.102 96 148 96C156.391 96 164.411 94.8258 171.774 92.6879C172.027 92.8679 172.307 93.0227 172.614 93.1466L187.658 99.2228C190.619 100.419 193.719 97.8329 193.073 94.705L190.878 84.0757Z" fill="url(#paint0_linear_51_115)" fill-opacity="0.84"/>
<g filter="url(#filter0_b_51_115)">
<mask id="path-2-inside-1_51_115" fill="white">
<path fill-rule="evenodd" clip-rule="evenodd" d="M77.5 151C120.302 151 155 125.256 155 93.5C155 61.7436 120.302 36 77.5 36C34.6979 36 0 61.7436 0 93.5C0 110.151 9.53906 125.148 24.7838 135.649L17.5846 151.632C16.273 154.544 18.7351 157.743 21.886 157.221L64.3688 150.178C68.637 150.718 73.0242 151 77.5 151Z"/>
</mask>
<path fill-rule="evenodd" clip-rule="evenodd" d="M77.5 151C120.302 151 155 125.256 155 93.5C155 61.7436 120.302 36 77.5 36C34.6979 36 0 61.7436 0 93.5C0 110.151 9.53906 125.148 24.7838 135.649L17.5846 151.632C16.273 154.544 18.7351 157.743 21.886 157.221L64.3688 150.178C68.637 150.718 73.0242 151 77.5 151Z" fill="#F2982F" fill-opacity="0.47"/>
<path d="M24.7838 135.649L27.5191 136.881L28.5472 134.598L26.4855 133.178L24.7838 135.649ZM17.5846 151.632L14.8493 150.4H14.8493L17.5846 151.632ZM21.886 157.221L21.3953 154.262H21.3953L21.886 157.221ZM64.3688 150.178L64.7457 147.202L64.3107 147.147L63.8782 147.218L64.3688 150.178ZM152 93.5C152 108.208 143.971 121.764 130.513 131.749C117.055 141.734 98.3222 148 77.5 148V154C99.4799 154 119.497 147.394 134.088 136.568C148.68 125.742 158 110.548 158 93.5H152ZM77.5 39C98.3222 39 117.055 45.2658 130.513 55.2507C143.971 65.2357 152 78.7918 152 93.5H158C158 76.4518 148.68 61.2579 134.088 50.4321C119.497 39.606 99.4799 33 77.5 33V39ZM3 93.5C3 78.7918 11.0286 65.2357 24.4868 55.2507C37.9446 45.2658 56.6778 39 77.5 39V33C55.5201 33 35.5033 39.606 20.9117 50.4321C6.32036 61.2579 -3 76.4518 -3 93.5H3ZM26.4855 133.178C11.8299 123.083 3 108.92 3 93.5H-3C-3 111.381 7.24822 127.213 23.082 138.119L26.4855 133.178ZM20.32 152.864L27.5191 136.881L22.0484 134.417L14.8493 150.4L20.32 152.864ZM21.3953 154.262C20.6076 154.392 19.992 153.592 20.32 152.864L14.8493 150.4C12.5539 155.496 16.8626 161.095 22.3766 160.181L21.3953 154.262ZM63.8782 147.218L21.3953 154.262L22.3766 160.181L64.8595 153.138L63.8782 147.218ZM77.5 148C73.1499 148 68.8886 147.726 64.7457 147.202L63.992 153.154C68.3854 153.711 72.8985 154 77.5 154V148Z" fill="#DDCACA" mask="url(#path-2-inside-1_51_115)"/>
</g>
<circle cx="72" cy="93" r="11" fill="#F7F7F7"/>
<circle cx="39" cy="93" r="11" fill="white"/>
<circle cx="105" cy="93" r="11" fill="white"/>
<defs>
<filter id="filter0_b_51_115" x="-12" y="24" width="179" height="145.278" filterUnits="userSpaceOnUse" color-interpolation-filters="sRGB">
<feFlood flood-opacity="0" result="BackgroundImageFix"/>
<feGaussianBlur in="BackgroundImageFix" stdDeviation="6"/>
<feComposite in2="SourceAlpha" operator="in" result="effect1_backgroundBlur_51_115"/>
<feBlend mode="normal" in="SourceGraphic" in2="effect1_backgroundBlur_51_115" result="shape"/>
</filter>
<linearGradient id="paint0_linear_51_115" x1="115.5" y1="12" x2="267.5" y2="142.5" gradientUnits="userSpaceOnUse">
<stop stop-color="#162761"/>
<stop offset="1" stop-color="#A4B4F0" stop-opacity="0"/>
</linearGradient>
</defs>
</svg>
