<svg width="197" height="165" viewBox="0 0 197 165" fill="none" xmlns="http://www.w3.org/2000/svg">
<path fill-rule="evenodd" clip-rule="evenodd" d="M100.821 4.02848L100.703 4L100.585 4.02912L31.5849 21.0291L31.5783 21.9984L54.2045 27.9009V57.5146V57.822L54.4788 57.9608C69.0669 65.3387 107.337 75.6541 143.922 57.9647L144.204 57.8282V57.5146V27.8874L166.693 21.1886L166.206 50.9013L157.75 69.3059L158.568 69.8579L166.619 61.3334L171.778 69.7753L172.684 69.3721L167.206 50.9459L167.704 20.5228L167.711 20.1222L167.321 20.0285L100.821 4.02848ZM55.2045 57.2061V28.155L100.583 39.4997L100.709 39.531L100.834 39.4976L143.204 28.1659V57.2004C107.302 74.4129 69.7802 64.4654 55.2045 57.2061ZM165.281 20.566L143.575 27.0316L143.569 27.0334L100.7 38.4982L54.8307 27.0308L54.8257 27.0295L33.7384 21.5285L100.706 5.02921L165.281 20.566ZM159.928 66.9619L166.604 52.431L170.634 65.9851L167.131 60.2539L166.79 59.6958L166.341 60.1713L159.928 66.9619ZM60.4103 85.907C65.4116 83.1345 71.3435 82.577 76.7737 84.369L113.376 96.4479C116.141 97.3603 118.275 99.5823 119.075 102.382C120.025 105.705 118.939 109.277 116.3 111.509L114.561 112.981L84.2932 107.523L84.1157 108.507L114.616 114.007L114.66 114.015H114.704H121.214C124.9 114.015 128.523 113.067 131.737 111.264L172.394 88.446C174.65 87.1797 177.194 86.5146 179.782 86.5146H182.324C185.261 86.5146 188.042 87.838 189.894 90.1173C191.93 92.624 192.594 95.9763 191.666 99.0698L191.462 99.7479C190.699 102.293 189.047 104.479 186.807 105.909L124.11 145.928C121.43 147.639 118.389 148.703 115.227 149.036L114.53 149.109C112.028 149.373 109.498 149.173 107.068 148.52L65.4419 137.343C59.8099 135.831 53.8051 136.671 48.8046 139.671L46.4472 141.086L46.9617 141.943L49.3191 140.529C54.0871 137.668 59.8125 136.867 65.1826 138.309L106.809 149.486C109.357 150.171 112.01 150.38 114.635 150.104L115.331 150.03C118.648 149.681 121.837 148.565 124.648 146.771L187.345 106.752C189.787 105.193 191.588 102.81 192.42 100.035L192.624 99.3571C193.647 95.9464 192.915 92.2504 190.67 89.4867C188.628 86.9737 185.562 85.5146 182.324 85.5146H179.782C177.023 85.5146 174.31 86.2238 171.904 87.574L131.247 110.392C128.183 112.111 124.728 113.015 121.214 113.015H116.069L116.946 112.273C119.885 109.786 121.094 105.808 120.037 102.107C119.146 98.9892 116.769 96.5144 113.69 95.4982L77.0871 83.4193C71.392 81.54 65.1707 82.1247 59.9255 85.0324L24.1914 104.842L22.6918 102.307C19.7475 97.3308 13.3541 95.6389 8.33386 98.5077C3.20909 101.436 1.47062 107.991 4.47057 113.074L29.9194 156.196C32.9847 161.39 39.7575 162.988 44.821 159.711C49.6021 156.618 51.0884 150.301 48.1886 145.4L24.7008 105.703L60.4103 85.907ZM8.83 99.3759C13.3758 96.7783 19.1651 98.3102 21.8312 102.816L23.5783 105.769L47.328 145.909C49.9545 150.349 48.6083 156.07 44.2778 158.872C39.6915 161.839 33.557 160.392 30.7806 155.688L5.33177 112.566C2.61531 107.963 4.1895 102.028 8.83 99.3759Z" fill="url(#paint0_linear_64_10)"/>
<path d="M100.703 4L101.405 1.08323L100.695 0.912363L99.9854 1.0871L100.703 4ZM100.821 4.02848L101.523 1.11171L101.523 1.11171L100.821 4.02848ZM100.585 4.02912L99.8672 1.11622L99.8672 1.11623L100.585 4.02912ZM31.5849 21.0291L30.8672 18.1162L28.6008 18.6746L28.5849 21.0087L31.5849 21.0291ZM31.5783 21.9984L28.5783 21.978L28.5624 24.3121L30.821 24.9013L31.5783 21.9984ZM54.2045 27.9009H57.2045V25.5831L54.9617 24.9981L54.2045 27.9009ZM54.2045 57.822H51.2045V59.6666L52.8506 60.4991L54.2045 57.822ZM54.4788 57.9608L55.8328 55.2837L55.8327 55.2837L54.4788 57.9608ZM143.922 57.9647L145.228 60.6656L143.922 57.9647ZM144.204 57.8282L145.51 60.5291L147.204 59.71V57.8282H144.204ZM144.204 27.8874L143.348 25.0122L141.204 25.6507V27.8874H144.204ZM166.693 21.1886L169.693 21.2377L169.76 17.1448L165.837 18.3134L166.693 21.1886ZM166.206 50.9013L168.932 52.1538L169.196 51.5809L169.206 50.9505L166.206 50.9013ZM157.75 69.3059L155.024 68.0534L153.961 70.3675L156.072 71.7924L157.75 69.3059ZM158.568 69.8579L156.89 72.3445L159 73.7693L160.749 71.9178L158.568 69.8579ZM166.619 61.3334L169.179 59.7691L167.132 56.4205L164.438 59.2735L166.619 61.3334ZM171.778 69.7753L169.218 71.3397L170.591 73.5871L172.998 72.5161L171.778 69.7753ZM172.684 69.3721L173.904 72.1129L176.31 71.0419L175.559 68.5172L172.684 69.3721ZM167.206 50.9459L164.206 50.8967L164.199 51.3583L164.33 51.8008L167.206 50.9459ZM167.704 20.5228L170.704 20.572V20.5719L167.704 20.5228ZM167.711 20.1222L170.711 20.1713L170.75 17.7678L168.413 17.2054L167.711 20.1222ZM167.321 20.0285L166.62 22.9452L166.62 22.9452L167.321 20.0285ZM55.2045 28.155L55.9321 25.2446L52.2045 24.3127V28.155H55.2045ZM55.2045 57.2061H52.2045V59.0635L53.867 59.8915L55.2045 57.2061ZM100.583 39.4997L99.8556 42.4101L100.583 39.4997ZM100.709 39.531L99.9811 42.4415L100.734 42.6297L101.484 42.4292L100.709 39.531ZM100.834 39.4976L100.059 36.5995L100.059 36.5995L100.834 39.4976ZM143.204 28.1659H146.204V24.2581L142.429 25.2678L143.204 28.1659ZM143.204 57.2004L144.501 59.9056L146.204 59.0891V57.2004H143.204ZM143.575 27.0316L144.35 29.9297L144.391 29.9188L144.432 29.9067L143.575 27.0316ZM165.281 20.566L166.137 23.4411L176.824 20.2577L165.982 17.6492L165.281 20.566ZM143.569 27.0334L142.794 24.1352L142.793 24.1352L143.569 27.0334ZM100.7 38.4982L99.9726 41.4086L100.726 41.5968L101.475 41.3963L100.7 38.4982ZM54.8307 27.0308L54.0883 29.9375L54.0957 29.9394L54.1031 29.9412L54.8307 27.0308ZM54.8257 27.0295L54.0685 29.9324L54.0759 29.9343L54.0834 29.9362L54.8257 27.0295ZM33.7384 21.5285L33.0207 18.6156L32.9811 24.4313L33.7384 21.5285ZM100.706 5.02921L101.408 2.11245L100.697 1.94157L99.9882 2.11632L100.706 5.02921ZM166.604 52.431L169.48 51.5761L167.207 43.9325L163.878 51.1785L166.604 52.431ZM159.928 66.9619L157.202 65.7094L162.109 69.0218L159.928 66.9619ZM170.634 65.9851L168.074 67.5495L173.509 65.1302L170.634 65.9851ZM167.131 60.2539L164.571 61.8182L164.571 61.8182L167.131 60.2539ZM166.79 59.6958L169.35 58.1315L167.304 54.7829L164.609 57.6359L166.79 59.6958ZM166.341 60.1713L164.16 58.1114L164.16 58.1114L166.341 60.1713ZM76.7737 84.369L75.8336 87.2179L76.7737 84.369ZM60.4103 85.907L58.9558 83.2832H58.9558L60.4103 85.907ZM113.376 96.4479L114.317 93.599L113.376 96.4479ZM119.075 102.382L121.96 101.558H121.96L119.075 102.382ZM116.3 111.509L114.363 109.219L116.3 111.509ZM114.561 112.981L114.029 115.933L115.42 116.184L116.499 115.271L114.561 112.981ZM84.2932 107.523L84.8256 104.57L81.8732 104.038L81.3408 106.99L84.2932 107.523ZM84.1157 108.507L81.1634 107.974L80.631 110.927L83.5834 111.459L84.1157 108.507ZM114.616 114.007L114.083 116.959L114.083 116.959L114.616 114.007ZM114.66 114.015L114.127 116.967L114.391 117.015H114.66V114.015ZM131.737 111.264L133.205 113.88L131.737 111.264ZM172.394 88.446L170.925 85.8299L172.394 88.446ZM189.894 90.1173L187.565 92.0091V92.0091L189.894 90.1173ZM191.666 99.0698L188.792 98.2077L188.792 98.2078L191.666 99.0698ZM191.462 99.7479L194.336 100.61L194.336 100.61L191.462 99.7479ZM186.807 105.909L188.421 108.438V108.438L186.807 105.909ZM124.11 145.928L122.496 143.4H122.496L124.11 145.928ZM115.227 149.036L114.913 146.052L114.912 146.052L115.227 149.036ZM114.53 149.109L114.844 152.093L114.844 152.093L114.53 149.109ZM107.068 148.52L106.29 151.418L107.068 148.52ZM65.4419 137.343L64.6639 140.24H64.6639L65.4419 137.343ZM48.8046 139.671L50.3481 142.244H50.3481L48.8046 139.671ZM46.4472 141.086L44.9037 138.513L42.3312 140.057L43.8748 142.629L46.4472 141.086ZM46.9617 141.943L44.3893 143.487L45.9327 146.059L48.5052 144.516L46.9617 141.943ZM49.3191 140.529L47.7757 137.956L49.3191 140.529ZM65.1826 138.309L64.4046 141.206H64.4046L65.1826 138.309ZM106.809 149.486L106.031 152.384H106.031L106.809 149.486ZM114.635 150.104L114.949 153.087L114.949 153.087L114.635 150.104ZM115.331 150.03L115.017 147.047L115.017 147.047L115.331 150.03ZM124.648 146.771L126.262 149.3L124.648 146.771ZM187.345 106.752L185.731 104.223V104.223L187.345 106.752ZM192.42 100.035L195.294 100.897L195.294 100.897L192.42 100.035ZM192.624 99.3571L189.75 98.4951L189.75 98.4951L192.624 99.3571ZM190.67 89.4867L188.341 91.3785L188.341 91.3785L190.67 89.4867ZM171.904 87.574L170.436 84.9578L171.904 87.574ZM131.247 110.392L132.716 113.008L132.716 113.008L131.247 110.392ZM116.069 113.015L114.132 110.724L107.88 116.015H116.069V113.015ZM116.946 112.273L118.884 114.563L116.946 112.273ZM120.037 102.107L122.921 101.283L120.037 102.107ZM113.69 95.4982L114.63 92.6493L113.69 95.4982ZM77.0871 83.4193L78.0272 80.5705L77.0871 83.4193ZM59.9255 85.0324L58.471 82.4086L58.471 82.4086L59.9255 85.0324ZM24.1914 104.842L21.6095 106.369L23.0948 108.88L25.6459 107.465L24.1914 104.842ZM22.6918 102.307L25.2737 100.779V100.779L22.6918 102.307ZM8.33386 98.5077L6.84544 95.9029H6.84544L8.33386 98.5077ZM4.47057 113.074L7.05419 111.549L7.05419 111.549L4.47057 113.074ZM29.9194 156.196L32.503 154.671L32.503 154.671L29.9194 156.196ZM44.821 159.711L43.1913 157.192H43.1913L44.821 159.711ZM48.1886 145.4L45.6067 146.928L48.1886 145.4ZM24.7008 105.703L23.2463 103.079L20.5477 104.575L22.1189 107.23L24.7008 105.703ZM21.8312 102.816L19.2492 104.344V104.344L21.8312 102.816ZM8.83 99.3759L7.34158 96.7712H7.34158L8.83 99.3759ZM23.5783 105.769L26.1602 104.242V104.242L23.5783 105.769ZM47.328 145.909L44.7461 147.437H44.7461L47.328 145.909ZM44.2778 158.872L42.648 156.353L44.2778 158.872ZM30.7806 155.688L33.3642 154.163L30.7806 155.688ZM5.33177 112.566L2.74815 114.091H2.74815L5.33177 112.566ZM100.001 6.91677L100.12 6.94524L101.523 1.11171L101.405 1.08323L100.001 6.91677ZM101.303 6.94202L101.421 6.91289L99.9854 1.0871L99.8672 1.11622L101.303 6.94202ZM32.3025 23.942L101.303 6.94201L99.8672 1.11623L30.8672 18.1162L32.3025 23.942ZM34.5782 22.0188L34.5848 21.0495L28.5849 21.0087L28.5783 21.978L34.5782 22.0188ZM54.9617 24.9981L32.3355 19.0956L30.821 24.9013L53.4472 30.8038L54.9617 24.9981ZM57.2045 57.5146V27.9009H51.2045V57.5146H57.2045ZM57.2045 57.822V57.5146H51.2045V57.822H57.2045ZM55.8327 55.2837L55.5584 55.1449L52.8506 60.4991L53.1249 60.6379L55.8327 55.2837ZM142.616 55.2639C107.14 72.4171 69.8923 62.3943 55.8328 55.2837L53.1249 60.6379C68.2415 68.2831 107.534 78.8911 145.228 60.6656L142.616 55.2639ZM142.899 55.1274L142.616 55.2639L145.228 60.6656L145.51 60.5291L142.899 55.1274ZM141.204 57.5146V57.8282H147.204V57.5146H141.204ZM141.204 27.8874V57.5146H147.204V27.8874H141.204ZM165.837 18.3134L143.348 25.0122L145.061 30.7625L167.55 24.0637L165.837 18.3134ZM169.206 50.9505L169.693 21.2377L163.694 21.1394L163.207 50.8522L169.206 50.9505ZM160.476 70.5584L168.932 52.1538L163.48 49.6488L155.024 68.0534L160.476 70.5584ZM160.246 67.3714L159.429 66.8193L156.072 71.7924L156.89 72.3445L160.246 67.3714ZM164.438 59.2735L156.387 67.798L160.749 71.9178L168.8 63.3933L164.438 59.2735ZM174.338 68.211L169.179 59.7691L164.059 62.8978L169.218 71.3397L174.338 68.211ZM171.464 66.6313L170.558 67.0346L172.998 72.5161L173.904 72.1129L171.464 66.6313ZM164.33 51.8008L169.808 70.227L175.559 68.5172L170.081 50.091L164.33 51.8008ZM164.705 20.4736L164.206 50.8967L170.205 50.9951L170.704 20.572L164.705 20.4736ZM164.711 20.0731L164.705 20.4737L170.704 20.5719L170.711 20.1713L164.711 20.0731ZM166.62 22.9452L167.009 23.039L168.413 17.2054L168.023 17.1117L166.62 22.9452ZM100.12 6.94524L166.62 22.9452L168.023 17.1117L101.523 1.11171L100.12 6.94524ZM52.2045 28.155V57.2061H58.2045V28.155H52.2045ZM101.311 36.5892L55.9321 25.2446L54.4769 31.0654L99.8556 42.4101L101.311 36.5892ZM101.436 36.6206L101.311 36.5892L99.8556 42.4101L99.9811 42.4415L101.436 36.6206ZM100.059 36.5995L99.9336 36.6329L101.484 42.4292L101.609 42.3958L100.059 36.5995ZM142.429 25.2678L100.059 36.5995L101.609 42.3958L143.98 31.064L142.429 25.2678ZM146.204 57.2004V28.1659H140.204V57.2004H146.204ZM53.867 59.8915C68.9652 67.411 107.499 77.6455 144.501 59.9056L141.908 54.4952C107.105 71.1804 70.5952 61.5198 56.5419 54.5207L53.867 59.8915ZM144.432 29.9067L166.137 23.4411L164.424 17.6908L142.719 24.1564L144.432 29.9067ZM144.344 29.9316L144.35 29.9297L142.8 24.1334L142.794 24.1352L144.344 29.9316ZM101.475 41.3963L144.344 29.9315L142.793 24.1352L99.9252 35.6L101.475 41.3963ZM54.1031 29.9412L99.9726 41.4086L101.428 35.5877L55.5583 24.1204L54.1031 29.9412ZM54.0834 29.9362L54.0883 29.9375L55.5731 24.1241L55.5681 24.1228L54.0834 29.9362ZM32.9811 24.4313L54.0685 29.9324L55.583 24.1267L34.4956 18.6256L32.9811 24.4313ZM99.9882 2.11632L33.0207 18.6156L34.456 24.4413L101.424 7.9421L99.9882 2.11632ZM165.982 17.6492L101.408 2.11245L100.004 7.94597L164.579 23.4827L165.982 17.6492ZM163.878 51.1785L157.202 65.7094L162.654 68.2144L169.33 53.6835L163.878 51.1785ZM173.509 65.1302L169.48 51.5761L163.728 53.2859L167.758 66.8401L173.509 65.1302ZM164.571 61.8182L168.074 67.5495L173.193 64.4208L169.691 58.6895L164.571 61.8182ZM164.23 61.2601L164.571 61.8182L169.691 58.6896L169.35 58.1315L164.23 61.2601ZM168.522 62.2312L168.971 61.7557L164.609 57.6359L164.16 58.1114L168.522 62.2312ZM162.109 69.0218L168.522 62.2312L164.16 58.1114L157.747 64.9021L162.109 69.0218ZM77.7139 81.5201C71.489 79.4659 64.6889 80.105 58.9558 83.2832L61.8648 88.5308C66.1342 86.1641 71.198 85.6881 75.8336 87.2179L77.7139 81.5201ZM114.317 93.599L77.7139 81.5201L75.8336 87.2179L112.436 99.2967L114.317 93.599ZM121.96 101.558C120.887 97.8029 118.025 94.8227 114.317 93.599L112.436 99.2967C114.258 99.8978 115.664 101.362 116.191 103.206L121.96 101.558ZM118.238 113.799C121.777 110.805 123.233 106.015 121.96 101.558L116.191 103.206C116.816 105.395 116.101 107.748 114.363 109.219L118.238 113.799ZM116.499 115.271L118.238 113.799L114.363 109.219L112.624 110.691L116.499 115.271ZM83.7608 110.475L114.029 115.933L115.094 110.028L84.8256 104.57L83.7608 110.475ZM87.0681 109.039L87.2456 108.055L81.3408 106.99L81.1634 107.974L87.0681 109.039ZM115.148 111.054L84.6481 105.554L83.5834 111.459L114.083 116.959L115.148 111.054ZM115.192 111.062L115.148 111.054L114.083 116.959L114.127 116.967L115.192 111.062ZM114.704 111.015H114.66V117.015H114.704V111.015ZM121.214 111.015H114.704V117.015H121.214V111.015ZM130.269 108.648C127.503 110.2 124.385 111.015 121.214 111.015V117.015C125.414 117.015 129.543 115.935 133.205 113.88L130.269 108.648ZM170.925 85.8299L130.269 108.648L133.205 113.88L173.862 91.0622L170.925 85.8299ZM179.782 83.5146C176.68 83.5146 173.63 84.3119 170.925 85.8299L173.862 91.0622C175.67 90.0475 177.708 89.5146 179.782 89.5146V83.5146ZM182.324 83.5146H179.782V89.5146H182.324V83.5146ZM192.222 88.2256C189.8 85.2451 186.165 83.5146 182.324 83.5146V89.5146C184.358 89.5146 186.283 90.4309 187.565 92.0091L192.222 88.2256ZM194.539 99.9318C195.753 95.8867 194.885 91.5032 192.222 88.2256L187.565 92.0091C188.976 93.7447 189.435 96.0658 188.792 98.2077L194.539 99.9318ZM194.336 100.61L194.539 99.9318L188.792 98.2078L188.589 98.8858L194.336 100.61ZM188.421 108.438C191.267 106.621 193.366 103.844 194.336 100.61L188.589 98.8858C188.032 100.743 186.827 102.337 185.193 103.38L188.421 108.438ZM125.724 148.457L188.421 108.438L185.193 103.38L122.496 143.4L125.724 148.457ZM115.541 152.019C119.166 151.638 122.652 150.418 125.724 148.457L122.496 143.4C120.208 144.86 117.612 145.768 114.913 146.052L115.541 152.019ZM114.844 152.093L115.541 152.019L114.912 146.052L114.216 146.126L114.844 152.093ZM106.29 151.418C109.076 152.166 111.976 152.395 114.844 152.093L114.216 146.126C112.08 146.35 109.921 146.18 107.846 145.623L106.29 151.418ZM64.6639 140.24L106.29 151.418L107.846 145.623L66.2199 134.446L64.6639 140.24ZM50.3481 142.244C54.6509 139.662 59.8178 138.939 64.6639 140.24L66.2199 134.446C59.802 132.722 52.9594 133.68 47.2612 137.099L50.3481 142.244ZM47.9907 143.658L50.3481 142.244L47.2612 137.099L44.9037 138.513L47.9907 143.658ZM49.5342 140.4L49.0197 139.542L43.8748 142.629L44.3893 143.487L49.5342 140.4ZM47.7757 137.956L45.4182 139.371L48.5052 144.516L50.8626 143.101L47.7757 137.956ZM65.9606 135.411C59.8047 133.758 53.2413 134.677 47.7757 137.956L50.8626 143.101C54.9328 140.659 59.8204 139.975 64.4046 141.206L65.9606 135.411ZM107.587 146.589L65.9606 135.411L64.4046 141.206L106.031 152.384L107.587 146.589ZM114.321 147.12C112.063 147.358 109.78 147.178 107.587 146.589L106.031 152.384C108.935 153.163 111.958 153.402 114.949 153.087L114.321 147.12ZM115.017 147.047L114.321 147.12L114.949 153.087L115.645 153.014L115.017 147.047ZM123.034 144.243C120.616 145.786 117.871 146.746 115.017 147.047L115.645 153.014C119.424 152.616 123.059 151.345 126.262 149.3L123.034 144.243ZM185.731 104.223L123.034 144.243L126.262 149.3L188.959 109.281L185.731 104.223ZM189.547 99.1732C188.921 101.259 187.567 103.051 185.731 104.223L188.959 109.281C192.007 107.335 194.255 104.36 195.294 100.897L189.547 99.1732ZM189.75 98.4951L189.547 99.1732L195.294 100.897L195.497 100.219L189.75 98.4951ZM188.341 91.3785C189.96 93.3711 190.488 96.036 189.75 98.4951L195.497 100.219C196.806 95.8569 195.87 91.1297 192.998 87.595L188.341 91.3785ZM182.324 88.5146C184.659 88.5146 186.869 89.5666 188.341 91.3785L192.998 87.595C190.387 84.3808 186.466 82.5146 182.324 82.5146V88.5146ZM179.782 88.5146H182.324V82.5146H179.782V88.5146ZM173.373 90.1901C175.33 89.0916 177.537 88.5146 179.782 88.5146V82.5146C176.509 82.5146 173.29 83.3559 170.436 84.9578L173.373 90.1901ZM132.716 113.008L173.373 90.1901L170.436 84.9578L129.779 107.775L132.716 113.008ZM121.214 116.015C125.242 116.015 129.203 114.979 132.716 113.008L129.779 107.775C127.163 109.244 124.214 110.015 121.214 110.015V116.015ZM116.069 116.015H121.214V110.015H116.069V116.015ZM115.009 109.982L114.132 110.724L118.007 115.305L118.884 114.563L115.009 109.982ZM117.152 102.931C117.886 105.499 117.047 108.258 115.009 109.982L118.884 114.563C122.723 111.314 124.303 106.118 122.921 101.283L117.152 102.931ZM112.75 98.3471C114.886 99.052 116.534 100.769 117.152 102.931L122.921 101.283C121.757 97.2098 118.653 93.9769 114.63 92.6493L112.75 98.3471ZM76.147 86.2682L112.75 98.3471L114.63 92.6493L78.0272 80.5705L76.147 86.2682ZM61.38 87.6562C65.8933 85.1542 71.2465 84.6511 76.147 86.2682L78.0272 80.5705C71.5374 78.4288 64.4481 79.0952 58.471 82.4086L61.38 87.6562ZM25.6459 107.465L61.38 87.6562L58.471 82.4086L22.7369 102.218L25.6459 107.465ZM20.1099 103.835L21.6095 106.369L26.7733 103.314L25.2737 100.779L20.1099 103.835ZM9.82228 101.112C13.4193 99.0569 18.0003 100.269 20.1099 103.835L25.2737 100.779C21.4947 94.3924 13.2889 92.221 6.84544 95.9029L9.82228 101.112ZM7.05419 111.549C4.9047 107.907 6.15033 103.211 9.82228 101.112L6.84544 95.9029C0.267853 99.6616 -1.96346 108.075 1.88695 114.599L7.05419 111.549ZM32.503 154.671L7.05419 111.549L1.88694 114.599L27.3358 157.721L32.503 154.671ZM43.1913 157.192C39.5594 159.543 34.7016 158.397 32.503 154.671L27.3358 157.721C31.2678 164.383 39.9556 166.433 46.4508 162.23L43.1913 157.192ZM45.6067 146.928C47.6866 150.443 46.6205 154.974 43.1913 157.192L46.4508 162.23C52.5837 158.262 54.4903 150.159 50.7705 143.873L45.6067 146.928ZM22.1189 107.23L45.6067 146.928L50.7705 143.873L27.2827 104.175L22.1189 107.23ZM58.9558 83.2832L23.2463 103.079L26.1553 108.326L61.8648 88.5308L58.9558 83.2832ZM24.4131 101.289C20.9123 95.3718 13.3106 93.3603 7.34158 96.7712L10.3184 101.981C13.4411 100.196 17.4178 101.249 19.2492 104.344L24.4131 101.289ZM26.1602 104.242L24.4131 101.289L19.2492 104.344L20.9964 107.297L26.1602 104.242ZM49.9099 144.382L26.1602 104.242L20.9964 107.297L44.7461 147.437L49.9099 144.382ZM45.9075 161.39C51.5898 157.714 53.3563 150.207 49.9099 144.382L44.7461 147.437C46.5527 150.491 45.6267 154.426 42.648 156.353L45.9075 161.39ZM28.197 157.212C31.8401 163.385 39.8895 165.284 45.9075 161.39L42.648 156.353C39.4934 158.394 35.2739 157.399 33.3642 154.163L28.197 157.212ZM2.74815 114.091L28.197 157.212L33.3642 154.163L7.9154 111.041L2.74815 114.091ZM7.34158 96.7712C1.24826 100.253 -0.818765 108.047 2.74815 114.091L7.9154 111.041C6.04939 107.879 7.13074 103.802 10.3184 101.981L7.34158 96.7712Z" fill="url(#paint1_linear_64_10)"/>
<circle cx="15.2045" cy="111.515" r="3.5" fill="#FBD362"/>
<defs>
<linearGradient id="paint0_linear_64_10" x1="98.0387" y1="4" x2="98.0387" y2="161.415" gradientUnits="userSpaceOnUse">
<stop stop-color="#D19365"/>
<stop offset="1" stop-color="#E8731E" stop-opacity="0"/>
</linearGradient>
<linearGradient id="paint1_linear_64_10" x1="177.704" y1="37.0146" x2="11.7045" y2="167.015" gradientUnits="userSpaceOnUse">
<stop stop-color="#D99C81"/>
<stop offset="1" stop-color="#FFE458" stop-opacity="0.86"/>
</linearGradient>
</defs>
</svg>
