<svg width="118" height="118" viewBox="0 0 118 118" fill="none" xmlns="http://www.w3.org/2000/svg">
<circle cx="59" cy="59" r="59" fill="url(#paint0_linear_66_49)" fill-opacity="0.92"/>
<circle cx="59" cy="59" r="57.5" stroke="#F7E9E9" stroke-opacity="0.6" stroke-width="3"/>
<path fill-rule="evenodd" clip-rule="evenodd" d="M59 93.0535C61.0143 93.0535 64.5106 91.3202 67.8952 84.7292C69.2412 82.1081 70.4059 78.9865 71.3045 75.4775H46.6954C47.594 78.9865 48.7588 82.1081 50.1047 84.7292C53.4893 91.3202 56.9857 93.0535 59 93.0535ZM45.1271 66.6895C44.8618 64.229 44.7195 61.6573 44.7195 59C44.7195 56.3427 44.8618 53.771 45.1271 51.3105H72.8728C73.1382 53.771 73.2805 56.3427 73.2805 59C73.2805 61.6573 73.1382 64.229 72.8728 66.6895H45.1271ZM78.0851 75.4775C76.7607 81.2861 74.7576 86.3776 72.2717 90.3704C79.3074 87.3901 85.1334 82.1121 88.8087 75.4775H78.0851ZM92.1817 66.6895H79.4984C79.7433 64.1996 79.8714 61.6289 79.8714 59C79.8714 56.3711 79.7433 53.8004 79.4984 51.3105H92.1817C92.7521 53.7816 93.0535 56.3556 93.0535 59C93.0535 61.6444 92.7521 64.2184 92.1817 66.6895ZM38.5015 66.6895H25.8183C25.248 64.2184 24.9466 61.6444 24.9466 59C24.9466 56.3556 25.248 53.7816 25.8183 51.3105H38.5015C38.2567 53.8004 38.1285 56.3711 38.1285 59C38.1285 61.6289 38.2567 64.1996 38.5015 66.6895ZM29.1914 75.4775H39.9149C41.2393 81.286 43.2424 86.3775 45.7282 90.3703C38.6926 87.39 32.8667 82.1121 29.1914 75.4775ZM46.6954 42.5225L71.3045 42.5225C70.4059 39.0136 69.2412 35.8919 67.8952 33.2708C64.5106 26.6798 61.0143 24.9466 59 24.9466C56.9857 24.9466 53.4893 26.6798 50.1047 33.2708C48.7588 35.8919 47.594 39.0136 46.6954 42.5225ZM78.0851 42.5225H88.8087C85.1334 35.8879 79.3074 30.6099 72.2717 27.6296C74.7575 31.6224 76.7607 36.714 78.0851 42.5225ZM45.7282 27.6297C43.2424 31.6225 41.2393 36.714 39.9149 42.5225H29.1914C32.8666 35.8879 38.6926 30.61 45.7282 27.6297ZM59 99.6444C36.5527 99.6444 18.3556 81.4473 18.3556 59C18.3556 36.5527 36.5527 18.3556 59 18.3556C81.4473 18.3556 99.6445 36.5527 99.6445 59C99.6445 81.4473 81.4473 99.6444 59 99.6444Z" fill="white" fill-opacity="0.88"/>
<path d="M67.8952 84.7292L66.7289 84.1303L67.8952 84.7292ZM71.3045 75.4775L72.5746 75.8027L72.9937 74.1664H71.3045V75.4775ZM46.6954 75.4775V74.1664H45.0063L45.4253 75.8027L46.6954 75.4775ZM50.1047 84.7292L51.2711 84.1303L50.1047 84.7292ZM45.1271 66.6895L43.8236 66.8301L43.9498 68.0006H45.1271V66.6895ZM45.1271 51.3105V49.9994H43.9498L43.8236 51.1699L45.1271 51.3105ZM72.8728 51.3105L74.1764 51.1699L74.0501 49.9994H72.8728V51.3105ZM72.8728 66.6895V68.0006H74.0501L74.1764 66.8301L72.8728 66.6895ZM78.0851 75.4775V74.1664H77.0392L76.8068 75.186L78.0851 75.4775ZM72.2717 90.3704L71.1587 89.6774L68.9701 93.1928L72.7831 91.5776L72.2717 90.3704ZM88.8087 75.4775L89.9556 76.1128L91.0338 74.1664H88.8087V75.4775ZM79.4984 66.6895L78.1936 66.5612L78.0521 68.0006H79.4984V66.6895ZM92.1817 66.6895V68.0006H93.2247L93.4593 66.9844L92.1817 66.6895ZM79.4984 51.3105V49.9994H78.0521L78.1936 51.4388L79.4984 51.3105ZM92.1817 51.3105L93.4593 51.0157L93.2247 49.9994H92.1817V51.3105ZM25.8183 66.6895L24.5408 66.9844L24.7754 68.0006H25.8183V66.6895ZM38.5015 66.6895V68.0006H39.9479L39.8063 66.5612L38.5015 66.6895ZM25.8183 51.3105V49.9994H24.7754L24.5408 51.0157L25.8183 51.3105ZM38.5015 51.3105L39.8063 51.4388L39.9479 49.9994H38.5015V51.3105ZM39.9149 75.4775L41.1932 75.186L40.9607 74.1664H39.9149V75.4775ZM29.1914 75.4775V74.1664H26.9662L28.0445 76.1128L29.1914 75.4775ZM45.7282 90.3703L45.2168 91.5776L49.0298 93.1927L46.8412 89.6773L45.7282 90.3703ZM71.3045 42.5225V43.8336L72.9937 43.8336L72.5746 42.1973L71.3045 42.5225ZM46.6954 42.5225L45.4253 42.1973L45.0063 43.8336H46.6954V42.5225ZM67.8952 33.2708L66.7289 33.8698V33.8698L67.8952 33.2708ZM50.1047 33.2708L51.2711 33.8698V33.8698L50.1047 33.2708ZM88.8087 42.5225V43.8336H91.0338L89.9556 41.8872L88.8087 42.5225ZM78.0851 42.5225L76.8068 42.814L77.0392 43.8336H78.0851V42.5225ZM72.2717 27.6296L72.7831 26.4224L68.9701 24.8072L71.1587 28.3226L72.2717 27.6296ZM39.9149 42.5225V43.8336H40.9607L41.1932 42.814L39.9149 42.5225ZM45.7282 27.6297L46.8412 28.3227L49.0298 24.8073L45.2168 26.4224L45.7282 27.6297ZM29.1914 42.5225L28.0445 41.8872L26.9662 43.8336H29.1914V42.5225ZM66.7289 84.1303C63.4305 90.5534 60.2798 91.7423 59 91.7423V94.3646C61.7488 94.3646 65.5907 92.0871 69.0615 85.3281L66.7289 84.1303ZM70.0344 75.1522C69.1563 78.5813 68.0236 81.6089 66.7289 84.1303L69.0615 85.3281C70.4587 82.6072 71.6556 79.3916 72.5746 75.8027L70.0344 75.1522ZM71.3045 74.1664H46.6954V76.7886H71.3045V74.1664ZM51.2711 84.1303C49.9763 81.6089 48.8437 78.5813 47.9656 75.1522L45.4253 75.8027C46.3443 79.3916 47.5412 82.6072 48.9384 85.3281L51.2711 84.1303ZM59 91.7423C57.7201 91.7423 54.5694 90.5534 51.2711 84.1303L48.9384 85.3281C52.4093 92.0871 56.2512 94.3646 59 94.3646V91.7423ZM46.4307 66.5489C46.1704 64.1354 46.0306 61.6107 46.0306 59H43.4084C43.4084 61.704 43.5532 64.3226 43.8236 66.8301L46.4307 66.5489ZM46.0306 59C46.0306 56.3894 46.1704 53.8646 46.4307 51.4511L43.8236 51.1699C43.5532 53.6774 43.4084 56.296 43.4084 59H46.0306ZM45.1271 52.6216H72.8728V49.9994H45.1271V52.6216ZM71.5693 51.4511C71.8296 53.8646 71.9693 56.3894 71.9693 59H74.5916C74.5916 56.296 74.4468 53.6774 74.1764 51.1699L71.5693 51.4511ZM71.9693 59C71.9693 61.6107 71.8296 64.1354 71.5693 66.5489L74.1764 66.8301C74.4468 64.3226 74.5916 61.704 74.5916 59H71.9693ZM45.1271 68.0006H72.8728V65.3784H45.1271V68.0006ZM76.8068 75.186C75.5074 80.8847 73.5518 85.8336 71.1587 89.6774L73.3848 91.0633C75.9633 86.9216 78.0139 81.6874 79.3634 75.7689L76.8068 75.186ZM72.7831 91.5776C80.0904 88.4823 86.1393 83.002 89.9556 76.1128L87.6618 74.8422C84.1275 81.2223 78.5243 86.2979 71.7603 89.1631L72.7831 91.5776ZM88.8087 74.1664H78.0851V76.7886H88.8087V74.1664ZM79.4984 68.0006H92.1817V65.3784H79.4984V68.0006ZM78.5603 59C78.5603 61.5864 78.4342 64.1143 78.1936 66.5612L80.8033 66.8178C81.0523 64.2849 81.1826 61.6714 81.1826 59H78.5603ZM78.1936 51.4388C78.4342 53.8858 78.5603 56.4136 78.5603 59H81.1826C81.1826 56.3286 81.0523 53.7151 80.8033 51.1822L78.1936 51.4388ZM92.1817 49.9994H79.4984V52.6216H92.1817V49.9994ZM94.3646 59C94.3646 56.2557 94.0518 53.5828 93.4593 51.0157L90.9042 51.6054C91.4524 53.9805 91.7424 56.4555 91.7424 59H94.3646ZM93.4593 66.9844C94.0518 64.4172 94.3646 61.7443 94.3646 59H91.7424C91.7424 61.5445 91.4524 64.0195 90.9042 66.3946L93.4593 66.9844ZM25.8183 68.0006H38.5015V65.3784H25.8183V68.0006ZM23.6355 59C23.6355 61.7443 23.9483 64.4172 24.5408 66.9844L27.0959 66.3946C26.5477 64.0195 26.2577 61.5445 26.2577 59H23.6355ZM24.5408 51.0157C23.9483 53.5828 23.6355 56.2557 23.6355 59H26.2577C26.2577 56.4555 26.5477 53.9805 27.0959 51.6054L24.5408 51.0157ZM38.5015 49.9994H25.8183V52.6216H38.5015V49.9994ZM39.4396 59C39.4396 56.4136 39.5657 53.8858 39.8063 51.4388L37.1967 51.1822C36.9476 53.7151 36.8174 56.3286 36.8174 59H39.4396ZM39.8063 66.5612C39.5657 64.1143 39.4396 61.5864 39.4396 59H36.8174C36.8174 61.6714 36.9476 64.2849 37.1967 66.8178L39.8063 66.5612ZM39.9149 74.1664H29.1914V76.7886H39.9149V74.1664ZM46.8412 89.6773C44.4481 85.8335 42.4925 80.8846 41.1932 75.186L38.6366 75.7689C39.986 81.6874 42.0366 86.9216 44.6151 91.0632L46.8412 89.6773ZM28.0445 76.1128C31.8607 83.0019 37.9095 88.4822 45.2168 91.5776L46.2396 89.163C39.4757 86.2979 33.8726 81.2223 30.3383 74.8422L28.0445 76.1128ZM71.3045 41.2114L46.6954 41.2114V43.8336L71.3045 43.8336V41.2114ZM66.7289 33.8698C68.0236 36.3911 69.1563 39.4187 70.0344 42.8478L72.5746 42.1973C71.6556 38.6084 70.4587 35.3928 69.0615 32.6719L66.7289 33.8698ZM59 26.2577C60.2798 26.2577 63.4305 27.4466 66.7289 33.8698L69.0615 32.6719C65.5907 25.9129 61.7488 23.6354 59 23.6354V26.2577ZM51.2711 33.8698C54.5694 27.4466 57.7201 26.2577 59 26.2577V23.6354C56.2512 23.6354 52.4093 25.9129 48.9384 32.6719L51.2711 33.8698ZM47.9656 42.8478C48.8437 39.4187 49.9763 36.3911 51.2711 33.8698L48.9384 32.6719C47.5412 35.3928 46.3443 38.6084 45.4253 42.1973L47.9656 42.8478ZM88.8087 41.2114H78.0851V43.8336H88.8087V41.2114ZM71.7603 28.8369C78.5243 31.7021 84.1275 36.7777 87.6618 43.1579L89.9556 41.8872C86.1393 34.998 80.0904 29.5177 72.7831 26.4224L71.7603 28.8369ZM79.3634 42.2311C78.0139 36.3126 75.9633 31.0784 73.3848 26.9367L71.1587 28.3226C73.5518 32.1664 75.5074 37.1153 76.8068 42.814L79.3634 42.2311ZM41.1932 42.814C42.4925 37.1154 44.4481 32.1665 46.8412 28.3227L44.6152 26.9368C42.0366 31.0784 39.986 36.3126 38.6366 42.2311L41.1932 42.814ZM29.1914 43.8336H39.9149V41.2114H29.1914V43.8336ZM45.2168 26.4224C37.9095 29.5178 31.8607 34.9981 28.0445 41.8872L30.3383 43.1579C33.8726 36.7778 39.4757 31.7021 46.2396 28.837L45.2168 26.4224ZM17.0445 59C17.0445 82.1714 35.8286 100.956 59 100.956V98.3333C37.2768 98.3333 19.6667 80.7232 19.6667 59H17.0445ZM59 17.0444C35.8286 17.0444 17.0445 35.8286 17.0445 59H19.6667C19.6667 37.2768 37.2768 19.6667 59 19.6667V17.0444ZM100.956 59C100.956 35.8286 82.1714 17.0444 59 17.0444V19.6667C80.7232 19.6667 98.3334 37.2768 98.3334 59H100.956ZM59 100.956C82.1714 100.956 100.956 82.1714 100.956 59H98.3334C98.3334 80.7232 80.7232 98.3333 59 98.3333V100.956Z" fill="white" fill-opacity="0.46"/>
<defs>
<linearGradient id="paint0_linear_66_49" x1="59" y1="0" x2="32" y2="117" gradientUnits="userSpaceOnUse">
<stop stop-color="#FF7D06" stop-opacity="0.65"/>
<stop offset="1" stop-color="#EE2020" stop-opacity="0.53"/>
</linearGradient>
</defs>
</svg>
