<svg width="118" height="255" viewBox="0 0 118 255" fill="none" xmlns="http://www.w3.org/2000/svg">
<circle cx="59" cy="59" r="59" fill="url(#paint0_linear_79_71)" fill-opacity="0.92"/>
<circle cx="59" cy="59" r="54" stroke="#F7E9E9" stroke-opacity="0.6" stroke-width="10"/>
<circle cx="59" cy="196" r="59" fill="url(#paint1_linear_79_71)" fill-opacity="0.92"/>
<circle cx="59" cy="196" r="54" stroke="#F7E9E9" stroke-opacity="0.6" stroke-width="10"/>
<path d="M38.088 77L52.776 43.4H63.912L78.6 77H66.888L56.04 48.776H60.456L49.608 77H38.088ZM46.824 71.144L49.704 62.984H65.16L68.04 71.144H46.824Z" fill="white"/>
<path d="M43.736 215V181.4H61.688C66.328 181.4 69.752 182.232 71.96 183.896C74.168 185.528 75.272 187.624 75.272 190.184C75.272 191.88 74.792 193.4 73.832 194.744C72.904 196.056 71.544 197.096 69.752 197.864C67.96 198.632 65.752 199.016 63.128 199.016L64.088 196.424C66.712 196.424 68.968 196.792 70.856 197.528C72.776 198.264 74.248 199.336 75.272 200.744C76.328 202.12 76.856 203.784 76.856 205.736C76.856 208.648 75.64 210.92 73.208 212.552C70.808 214.184 67.288 215 62.648 215H43.736ZM54.872 207.08H61.688C62.936 207.08 63.864 206.856 64.472 206.408C65.112 205.96 65.432 205.304 65.432 204.44C65.432 203.576 65.112 202.92 64.472 202.472C63.864 202.024 62.936 201.8 61.688 201.8H54.104V194.312H60.152C61.432 194.312 62.36 194.104 62.936 193.688C63.544 193.24 63.848 192.616 63.848 191.816C63.848 190.984 63.544 190.36 62.936 189.944C62.36 189.528 61.432 189.32 60.152 189.32H54.872V207.08Z" fill="white"/>
<defs>
<linearGradient id="paint0_linear_79_71" x1="59" y1="0" x2="32" y2="117" gradientUnits="userSpaceOnUse">
<stop stop-color="#FF7D06" stop-opacity="0.83"/>
<stop offset="1" stop-color="#EE2020" stop-opacity="0.53"/>
</linearGradient>
<linearGradient id="paint1_linear_79_71" x1="59" y1="137" x2="32" y2="254" gradientUnits="userSpaceOnUse">
<stop stop-color="#FF7A00" stop-opacity="0.65"/>
<stop offset="1" stop-color="#EE2020" stop-opacity="0.53"/>
</linearGradient>
</defs>
</svg>
