<svg width="192" height="188" viewBox="0 0 192 188" fill="none" xmlns="http://www.w3.org/2000/svg">
<rect y="99" width="87" height="89" rx="13" fill="url(#paint0_linear_78_9)" fill-opacity="0.16"/>
<rect x="3" y="102" width="81" height="83" rx="10" stroke="black" stroke-opacity="0.12" stroke-width="6"/>
<rect x="105" y="99" width="87" height="89" rx="13" fill="url(#paint1_linear_78_9)" fill-opacity="0.16"/>
<rect x="108" y="102" width="81" height="83" rx="10" stroke="black" stroke-opacity="0.12" stroke-width="6"/>
<rect width="87" height="89" rx="13" fill="url(#paint2_linear_78_9)" fill-opacity="0.16"/>
<rect x="3" y="3" width="81" height="83" rx="10" stroke="black" stroke-opacity="0.12" stroke-width="6"/>
<rect x="105" width="87" height="89" rx="13" fill="url(#paint3_linear_78_9)" fill-opacity="0.16"/>
<rect x="108" y="3" width="81" height="83" rx="10" stroke="black" stroke-opacity="0.12" stroke-width="6"/>
<path d="M75 44.5C75 39.0156 73.5681 33.6263 70.846 28.8652C68.1239 24.1041 64.2059 20.1362 59.4796 17.354C54.7533 14.5719 49.3825 13.0719 43.8986 13.0025C38.4147 12.9331 33.0077 14.2967 28.2125 16.9584L43.5 44.5H75Z" fill="#F99B56" fill-opacity="0.51"/>
<path d="M75 44.5C75 49.5683 73.777 54.5617 71.435 59.0564C69.0929 63.551 65.7008 67.4142 61.5468 70.3179C57.3928 73.2216 52.5994 75.08 47.5737 75.7355C42.548 76.3909 37.4383 75.824 32.6785 74.0829L43.5 44.5H75Z" fill="#F89A9A"/>
<path d="M33.5828 74.3982C27.6695 72.4367 22.4706 68.7658 18.6436 63.8497C14.8166 58.9336 12.5334 52.993 12.0826 46.7792C11.6318 40.5655 13.0337 34.3575 16.1111 28.9405C19.1885 23.5235 23.803 19.1407 29.3713 16.3463L43.5 44.5L33.5828 74.3982Z" fill="#F1D793"/>
<mask id="path-12-inside-1_78_9" fill="white">
<path fill-rule="evenodd" clip-rule="evenodd" d="M137 15H146H154H163V40H163.024C163.094 40 163.12 40.0929 163.06 40.1294C163.027 40.1492 163.016 40.1921 163.036 40.225L173.17 57.029C175.022 60.0985 176 63.615 176 67.1995V71C176 72.6569 174.657 74 173 74H124C122.343 74 121 72.6569 121 71V68.3806C121 63.5526 122.398 58.828 125.025 54.7773L132.56 43.1582C133.838 41.1887 136.025 40 138.373 40H137V15Z"/>
</mask>
<path fill-rule="evenodd" clip-rule="evenodd" d="M137 15H146H154H163V40H163.024C163.094 40 163.12 40.0929 163.06 40.1294C163.027 40.1492 163.016 40.1921 163.036 40.225L173.17 57.029C175.022 60.0985 176 63.615 176 67.1995V71C176 72.6569 174.657 74 173 74H124C122.343 74 121 72.6569 121 71V68.3806C121 63.5526 122.398 58.828 125.025 54.7773L132.56 43.1582C133.838 41.1887 136.025 40 138.373 40H137V15Z" fill="url(#paint4_linear_78_9)"/>
<path d="M137 15V14H136V15H137ZM163 15H164V14H163V15ZM163 40H162V41H163V40ZM163.06 40.1294L163.576 40.9857L163.576 40.9857L163.06 40.1294ZM163.036 40.225L162.18 40.7414L162.18 40.7415L163.036 40.225ZM173.17 57.029L172.314 57.5454L173.17 57.029ZM125.025 54.7773L124.186 54.2332L124.186 54.2332L125.025 54.7773ZM132.56 43.1582L131.721 42.614L131.721 42.614L132.56 43.1582ZM137 40H136V41H137V40ZM146 14H137V16H146V14ZM154 14H146V16H154V14ZM163 14H154V16H163V14ZM164 40V15H162V40H164ZM163 41H163.024V39H163V41ZM163.024 41C162.081 41 161.736 39.7597 162.543 39.273L163.576 40.9857C164.504 40.4261 164.107 39 163.024 39V41ZM162.543 39.273C162.037 39.5781 161.875 40.2356 162.18 40.7414L163.892 39.7086C164.158 40.1485 164.016 40.7203 163.576 40.9857L162.543 39.273ZM162.18 40.7415L172.314 57.5454L174.027 56.5126L163.892 39.7086L162.18 40.7415ZM172.314 57.5454C174.071 60.4591 175 63.797 175 67.1995H177C177 63.433 175.972 59.7379 174.027 56.5126L172.314 57.5454ZM175 67.1995V71H177V67.1995H175ZM175 71C175 72.1046 174.105 73 173 73V75C175.209 75 177 73.2091 177 71H175ZM173 73H124V75H173V73ZM124 73C122.895 73 122 72.1046 122 71H120C120 73.2091 121.791 75 124 75V73ZM122 71V68.3806H120V71H122ZM122 68.3806C122 63.7457 123.342 59.2101 125.864 55.3215L124.186 54.2332C121.454 58.4459 120 63.3595 120 68.3806H122ZM125.864 55.3215L133.399 43.7023L131.721 42.614L124.186 54.2332L125.864 55.3215ZM133.399 43.7023C134.492 42.0171 136.364 41 138.373 41V39C135.687 39 133.183 40.3603 131.721 42.614L133.399 43.7023ZM137 41H138.373V39H137V41ZM136 15V40H138V15H136Z" fill="black" fill-opacity="0.08" mask="url(#path-12-inside-1_78_9)"/>
<path fill-rule="evenodd" clip-rule="evenodd" d="M135.825 163.156L178.311 120.789L170.543 113L128.057 155.367L128.091 155.401C127.906 155.586 127.752 155.814 127.646 156.08L124.441 164.148C123.795 165.776 125.404 167.39 127.033 166.748L135.11 163.565C135.377 163.46 135.605 163.307 135.791 163.122L135.825 163.156Z" fill="#E69797" fill-opacity="0.67"/>
<path fill-rule="evenodd" clip-rule="evenodd" d="M30.2583 120.095C29.5558 119.602 28.5862 119.771 28.0926 120.473L13.2827 141.551C12.7891 142.254 12.9585 143.223 13.6609 143.717C13.742 143.774 13.8265 143.822 13.9135 143.861L28.5583 164.704C29.0518 165.406 30.0214 165.576 30.7239 165.082C31.4264 164.588 31.5957 163.619 31.1021 162.916L16.5863 142.257L30.6365 122.261C31.1301 121.558 30.9607 120.589 30.2583 120.095Z" fill="#D23030" fill-opacity="0.39"/>
<rect x="52.5186" y="109" width="4.20485" height="68.968" rx="2.10242" transform="rotate(17.6376 52.5186 109)" fill="#D23030" fill-opacity="0.39"/>
<path fill-rule="evenodd" clip-rule="evenodd" d="M59.7938 120.099C60.5053 119.599 61.4873 119.77 61.9873 120.482L76.9878 141.831C77.4877 142.542 77.3162 143.524 76.6047 144.024C76.4896 144.105 76.3673 144.169 76.2412 144.215L61.5157 165.172C61.0158 165.884 60.0337 166.055 59.3222 165.555C58.6107 165.056 58.4392 164.073 58.9391 163.362L73.6034 142.492L59.4107 122.292C58.9107 121.581 59.0823 120.599 59.7938 120.099Z" fill="#D23030" fill-opacity="0.39"/>
<defs>
<linearGradient id="paint0_linear_78_9" x1="43.5" y1="99" x2="43.5" y2="188" gradientUnits="userSpaceOnUse">
<stop stop-color="#F13A00"/>
<stop offset="1" stop-color="#FF773D" stop-opacity="0.74"/>
</linearGradient>
<linearGradient id="paint1_linear_78_9" x1="148.5" y1="99" x2="148.5" y2="188" gradientUnits="userSpaceOnUse">
<stop stop-color="#F13A00"/>
<stop offset="1" stop-color="#FF773D" stop-opacity="0.74"/>
</linearGradient>
<linearGradient id="paint2_linear_78_9" x1="43.5" y1="0" x2="43.5" y2="89" gradientUnits="userSpaceOnUse">
<stop stop-color="#F13A00"/>
<stop offset="1" stop-color="#FF773D" stop-opacity="0.74"/>
</linearGradient>
<linearGradient id="paint3_linear_78_9" x1="148.5" y1="0" x2="148.5" y2="89" gradientUnits="userSpaceOnUse">
<stop stop-color="#F13A00"/>
<stop offset="1" stop-color="#FF773D" stop-opacity="0.74"/>
</linearGradient>
<linearGradient id="paint4_linear_78_9" x1="108.5" y1="34" x2="240.5" y2="-15" gradientUnits="userSpaceOnUse">
<stop stop-color="#DF6C6C" stop-opacity="0.47"/>
<stop offset="1" stop-color="#F84A00" stop-opacity="0.26"/>
</linearGradient>
</defs>
</svg>
